<?xml version="1.0" encoding="utf-8"?>
<!-- Generator: Adobe Illustrator 23.0.2, SVG Export Plug-In . SVG Version: 6.00 Build 0)  -->
<svg version="1.1" xmlns="http://www.w3.org/2000/svg" xmlns:xlink="http://www.w3.org/1999/xlink" x="0px" y="0px"
	 viewBox="0 0 500 500" style="enable-background:new 0 0 500 500;" xml:space="preserve">
<style type="text/css">
	.st0{fill:#A1BBDD;}
	.st1{display:none;}
	.st2{display:inline;fill:#869CB4;}
	.st3{display:inline;fill:#FFFFFF;}
	.st4{display:inline;}
	.st5{fill:#869CB4;}
	.st6{fill:#FFFFFF;}
	.st7{fill:#0E0E0E;}
</style>
<g id="Layer_3">
	<rect x="-6.9" y="-4.7" class="st0" width="511.5" height="511.5"/>
</g>
<g id="Layer_1" class="st1">
	<polygon class="st2" points="344.7,335.7 361.9,361.9 340.5,341.6 336.7,374.4 333.1,342.6 312.7,361.9 329.9,335.7 290.8,331.1 
		330.1,326.6 312,299 333.1,319 337.3,266 341.6,319 362.6,299 344.5,326.6 383.8,331.1 	"/>
	<polygon class="st3" points="338.8,335.7 356.1,361.9 334.7,341.6 330.9,374.4 327.2,342.6 306.8,361.9 324.1,335.7 284.9,331.1 
		324.2,326.6 306.1,299 327.2,319 331.4,266 335.7,319 356.8,299 338.6,326.6 377.9,331.1 	"/>
	<circle class="st2" cx="351.9" cy="161.4" r="6.6"/>
	<circle class="st2" cx="427" cy="206.8" r="6.6"/>
	<path class="st2" d="M93.7,383.1c-11,0.7-20.1,8.5-22.7,18.8c-2.6-10.2-11.3-17.9-22-18.8l0.1-0.1c11-0.7,20.1-8.5,22.7-18.9
		c2.5,10.1,11.2,17.8,21.8,18.8L93.7,383.1z"/>
	<path class="st2" d="M298.6,302.9c-6.9,0.4-12.6,5.3-14.2,11.8c-1.6-6.3-7.1-11.1-13.8-11.8l0,0c6.9-0.4,12.6-5.3,14.2-11.8
		C286.5,297.4,291.9,302.2,298.6,302.9L298.6,302.9z"/>
	<path class="st2" d="M58.1,410.4c-5.3,0.3-9.7,4.1-10.9,9c-1.2-4.9-5.5-8.6-10.6-9l0,0c5.3-0.3,9.7-4.1,10.9-9.1
		C48.8,406.2,53,409.9,58.1,410.4L58.1,410.4z"/>
	<path class="st2" d="M452.4,266.7c-7.9,0.4-14.4,6.1-16.2,13.5c-1.8-7.2-8.1-12.8-15.8-13.5l0,0c7.9-0.4,14.5-6.1,16.2-13.5
		C438.5,260.5,444.7,265.9,452.4,266.7L452.4,266.7z"/>
	<g class="st4">
		<circle class="st5" cx="443.6" cy="228.7" r="4.3"/>
		<circle class="st6" cx="439.8" cy="228.9" r="4.3"/>
	</g>
	<g class="st4">
		<circle class="st5" cx="61.1" cy="430.3" r="6.6"/>
		<circle class="st6" cx="55.2" cy="430.3" r="6.6"/>
	</g>
	<g class="st4">
		<circle class="st5" cx="233.8" cy="342.1" r="6.6"/>
		<circle class="st6" cx="227.9" cy="342.1" r="6.6"/>
	</g>
	<g class="st4">
		<circle class="st5" cx="402.3" cy="305.2" r="6.6"/>
		<circle class="st6" cx="396.4" cy="305.2" r="6.6"/>
	</g>
	<g class="st4">
		<circle class="st5" cx="96.6" cy="359.8" r="6.6"/>
		<circle class="st6" cx="90.8" cy="359.8" r="6.6"/>
	</g>
	<circle class="st3" cx="346" cy="161.4" r="6.6"/>
	<circle class="st3" cx="421.1" cy="207.1" r="6.6"/>
	<path class="st3" d="M89.2,383.1c-11,0.7-20.1,8.5-22.7,18.8c-2.6-10.2-11.3-17.9-22-18.8l0.1-0.1c11-0.7,20.1-8.5,22.7-18.9
		c2.5,10.1,11.2,17.8,21.8,18.8L89.2,383.1z"/>
	<path class="st3" d="M292.7,302.9c-6.9,0.4-12.6,5.3-14.2,11.8c-1.6-6.3-7.1-11.1-13.8-11.8l0,0c6.9-0.4,12.6-5.3,14.2-11.8
		C280.6,297.4,286,302.2,292.7,302.9L292.7,302.9z"/>
	<path class="st3" d="M52.3,410.4c-5.3,0.3-9.7,4.1-10.9,9c-1.2-4.9-5.5-8.6-10.6-9l0,0c5.3-0.3,9.7-4.1,10.9-9.1
		C42.9,406.2,47.1,409.9,52.3,410.4L52.3,410.4z"/>
	<path class="st2" d="M430.5,177.1c-9.1,0.6-16.6,7-18.7,15.5c-2.1-8.4-9.3-14.7-18.2-15.5l0.1-0.1c9.1-0.6,16.6-7,18.7-15.6
		c2.1,8.3,9.3,14.7,18,15.5L430.5,177.1z"/>
	<g class="st4">
		<circle class="st5" cx="373" cy="188.3" r="4.3"/>
		<circle class="st6" cx="369.1" cy="188.3" r="4.3"/>
	</g>
	<g class="st4">
		<circle class="st5" cx="333.4" cy="142.4" r="4.3"/>
		<circle class="st6" cx="329.5" cy="142.4" r="4.3"/>
	</g>
	<g class="st4">
		<circle class="st5" cx="448.4" cy="159.1" r="4.3"/>
		<circle class="st6" cx="444.6" cy="159.1" r="4.3"/>
	</g>
	<g class="st4">
		<circle class="st5" cx="360" cy="284.5" r="4.3"/>
		<circle class="st6" cx="356.2" cy="284.5" r="4.3"/>
	</g>
	<g class="st4">
		<circle class="st5" cx="286.8" cy="359.8" r="4.3"/>
		<circle class="st6" cx="283" cy="359.8" r="4.3"/>
	</g>
	<g class="st4">
		<circle class="st5" cx="108.1" cy="374.4" r="4.3"/>
		<circle class="st6" cx="104.3" cy="374.4" r="4.3"/>
	</g>
	<g class="st4">
		<circle class="st5" cx="120.5" cy="346.4" r="4.3"/>
		<circle class="st6" cx="116.7" cy="346.4" r="4.3"/>
	</g>
	<path class="st3" d="M426.7,177.1c-9.1,0.6-16.6,7-18.7,15.5c-2.1-8.4-9.3-14.7-18.2-15.5l0.1-0.1c9.1-0.6,16.6-7,18.7-15.6
		c2.1,8.3,9.3,14.7,18,15.5L426.7,177.1z"/>
	<g class="st4">
		<path class="st5" d="M176.7,346.5c-5.3,0.3-9.7,4.1-10.9,9c-1.2-4.9-5.5-8.6-10.6-9l0,0c5.3-0.3,9.7-4.1,10.9-9.1
			C167.4,342.3,171.6,345.9,176.7,346.5L176.7,346.5z"/>
		<path class="st6" d="M170.9,346.5c-5.3,0.3-9.7,4.1-10.9,9c-1.2-4.9-5.5-8.6-10.6-9l0,0c5.3-0.3,9.7-4.1,10.9-9.1
			C161.5,342.3,165.7,345.9,170.9,346.5L170.9,346.5z"/>
	</g>
	<g class="st4">
		<path class="st5" d="M395.2,159.2c-5.3,0.3-9.7,4.1-10.9,9c-1.2-4.9-5.5-8.6-10.6-9l0,0c5.3-0.3,9.7-4.1,10.9-9.1
			C385.8,154.9,390,158.6,395.2,159.2L395.2,159.2z"/>
		<path class="st6" d="M389.3,159.2c-5.3,0.3-9.7,4.1-10.9,9c-1.2-4.9-5.5-8.6-10.6-9l0,0c5.3-0.3,9.7-4.1,10.9-9.1
			C379.9,154.9,384.2,158.6,389.3,159.2L389.3,159.2z"/>
	</g>
	<g class="st4">
		<path class="st5" d="M320.1,132.6c-3.3,0.2-5.9,2.5-6.7,5.5c-0.8-3-3.3-5.3-6.5-5.5l0,0c3.3-0.2,5.9-2.5,6.7-5.6
			C314.4,130,317,132.3,320.1,132.6L320.1,132.6z"/>
		<path class="st6" d="M316.5,132.6c-3.3,0.2-5.9,2.5-6.7,5.5c-0.8-3-3.3-5.3-6.5-5.5l0,0c3.3-0.2,5.9-2.5,6.7-5.6
			C310.8,130,313.4,132.3,316.5,132.6L316.5,132.6z"/>
	</g>
	<g class="st4">
		<path class="st5" d="M431.3,238.8c-3.3,0.2-5.9,2.5-6.7,5.5c-0.8-3-3.3-5.3-6.5-5.5l0,0c3.3-0.2,5.9-2.5,6.7-5.6
			C425.6,236.2,428.2,238.5,431.3,238.8L431.3,238.8z"/>
		<path class="st6" d="M427.7,238.8c-3.3,0.2-5.9,2.5-6.7,5.5c-0.8-3-3.3-5.3-6.5-5.5l0,0c3.3-0.2,5.9-2.5,6.7-5.6
			C422,236.2,424.6,238.5,427.7,238.8L427.7,238.8z"/>
	</g>
	<path class="st3" d="M446.5,266.7c-7.9,0.4-14.4,6.1-16.2,13.5c-1.8-7.2-8.1-12.8-15.8-13.5l0,0c7.9-0.4,14.5-6.1,16.2-13.5
		C432.6,260.5,438.8,265.9,446.5,266.7L446.5,266.7z"/>
</g>
<g id="Layer_2" class="st1">
	<g class="st4">
		<g>
			<path class="st7" d="M348.8,163.8c34.9,12.9,81,31.6,85.8,74.4c4.8,42.4-35.4,70.2-70.5,82.2c-80.4,27.4-167.8,15.2-249.4,37.1
				c-10.7,2.9-21.7,5.9-31.5,11.1c-9.2,4.9-16,12.3-21.8,20.8c-11.9,17.5-22.7,38.3-18.2,60.1c0.7,3.1,5.5,1.8,4.8-1.3
				c-4.5-21.4,7.8-42.9,20.1-59.6c13.3-18.2,35.9-23.5,56.7-28.5c42.5-10.2,86.4-11.9,129.7-15.4c41.8-3.4,85.2-8,124.2-24.5
				c32.6-13.8,65.1-43.2,60.9-82c-4.8-45.5-52.3-65.5-89.5-79.3C347.1,157.8,345.8,162.7,348.8,163.8L348.8,163.8z"/>
		</g>
	</g>
</g>
</svg>
