<?xml version="1.0" encoding="utf-8"?>
<!-- Generator: Adobe Illustrator 23.0.2, SVG Export Plug-In . SVG Version: 6.00 Build 0)  -->
<svg version="1.1" xmlns="http://www.w3.org/2000/svg" xmlns:xlink="http://www.w3.org/1999/xlink" x="0px" y="0px"
	 viewBox="0 0 500 500" style="enable-background:new 0 0 500 500;" xml:space="preserve">
<style type="text/css">
	.st0{fill:#A1BBDD;}
	.st1{fill:#FFFFFF;}
	.st2{fill:#869CB4;}
</style>
<g id="Color_Background">
	<rect x="-6.9" y="-4.7" class="st0" width="511.5" height="511.5"/>
</g>
<g id="Text">
</g>
<g id="Sparkles">
	<g>
		<g>
			<path class="st1" d="M48.2,230c0.2-0.2,0.4-0.2,0.7-0.2c0.2,0,0.4,0.1,0.6,0.2l0.1,0c0.2,0.1,0.3,0.3,0.4,0.5l7.9,22.7l8-22.7
				c0.1-0.2,0.2-0.4,0.4-0.5l0.1,0c0.2-0.1,0.4-0.2,0.7-0.2c0.2,0,0.5,0.1,0.7,0.2c0.2,0.2,0.4,0.4,0.4,0.6l5.4,25.4
				c0.1,0.5-0.1,1-0.5,1.3c-0.4,0.3-1,0.3-1.4,0.1l-0.1-0.1c-0.3-0.2-0.5-0.5-0.6-0.8l-3.7-18.9c0-0.2-0.2-0.3-0.4-0.4
				c-0.3-0.1-0.6,0-0.7,0.3l-7,19.4c-0.1,0.2-0.2,0.4-0.4,0.6c-0.4,0.3-1,0.3-1.4,0c-0.2-0.1-0.4-0.3-0.5-0.6l-6.9-19.4
				c-0.1-0.2-0.2-0.3-0.4-0.4c-0.3-0.1-0.6,0.1-0.7,0.4l-3.8,18.9c-0.1,0.4-0.3,0.7-0.6,0.9c-0.4,0.2-0.8,0.2-1.2,0.1l-0.1,0
				c-0.6-0.2-0.9-0.8-0.7-1.4l5.4-25.2C47.8,230.4,48,230.2,48.2,230z"/>
			<path class="st1" d="M84.9,240.9c5.1,0,8.7,3.7,8.7,8.2c0,4.5-3.7,8.2-8.7,8.2c-5.1,0-8.7-3.7-8.7-8.2
				C76.2,244.6,79.8,240.9,84.9,240.9z M84.9,254.8c3.6,0,5.7-2.5,5.7-5.8c0-3.2-2.1-5.7-5.7-5.7c-3.6,0-5.7,2.5-5.7,5.7
				C79.2,252.4,81.3,254.8,84.9,254.8z"/>
			<path class="st1" d="M96,243.1c0-0.7,0.6-1.3,1.4-1.3c0.4,0,0.8,0.3,0.9,0.8l0.1,0.6c0.8-0.8,2.3-1.8,4.5-1.8
				c1.1,0,1.9,0.2,2.3,0.4c0.2,0.1,0.5,0.2,0.7,0.5l0.1,0.1c0.2,0.3,0.2,0.8,0.1,1.1l0,0.1c-0.1,0.3-0.4,0.6-0.8,0.7
				c-0.3,0.1-0.6,0.1-0.8,0c-0.3-0.1-0.9-0.3-1.6-0.3c-2.7,0-4.1,2.5-4.3,4.9c-0.3,3.5,0.1,7.7,0.1,7.7l0,0l0,0
				c0,0.5-0.4,0.9-0.9,0.9c-0.9,0-1.6-0.7-1.6-1.6V243.1z"/>
			<path class="st1" d="M116.1,240.9c4.7,0,7.9,3.1,7.9,7.2c0,0.4,0.1,1.9-1,1.9h-12.4c0.3,2.8,2.1,4.9,5.7,4.9
				c2.1,0,3.7-0.7,4.6-1.3c0.2-0.1,0.4-0.2,0.6-0.2h0.1c0.4,0,0.7,0.2,0.9,0.5c0.2,0.3,0.3,0.6,0.2,0.9l0,0.1
				c-0.1,0.2-0.2,0.4-0.4,0.6c-1,0.8-3.4,1.8-6.1,1.8c-5.5,0-8.6-3.7-8.6-8.2C107.5,244.7,110.6,240.9,116.1,240.9z M121.4,248.2
				c-0.2-2.7-1.8-4.8-5.3-4.8c-3.5,0-5.2,2.1-5.5,4.8H121.4z"/>
			<path class="st1" d="M140.4,243c0-0.7,0.6-1.3,1.4-1.3c0.5,0,0.8,0.4,0.9,0.8l0,0l0.1,0.8c0.9-0.8,2.6-1.9,5.2-1.9
				c2.4,0,4.3,0.9,5.5,2.6c1-1,3.1-2.6,6.1-2.6c4.6,0,6.6,2.9,6.6,7.2v7.2c0,0.9-0.8,1.6-1.7,1.6c-0.5,0-0.9-0.4-0.9-0.9V249
				c0-3.2-1.4-4.7-4.1-4.7c-2.7,0-4.3,1.2-5,1.8c0.2,0.8,0.3,1.6,0.3,2.5v7.1c0,0.9-0.8,1.6-1.8,1.6c-0.6,0-1-0.4-1-0.9V249
				c0-3.2-1.5-4.7-4.3-4.7c-2.8,0-4.4,1.4-4.8,1.8v10.3c0,0.5-0.4,0.9-0.9,0.9c-0.9,0-1.6-0.7-1.6-1.6V243z"/>
			<path class="st1" d="M176.3,246.5c1.4,0,2.8,0.3,3.5,0.5c-0.1-2.7-0.4-3.7-3-3.7c-2.1,0-4.3,0.5-4.9,0.7
				c-0.3,0.1-0.7-0.1-0.8-0.4c-0.1-0.3,0-0.7,0.3-0.9c0.7-0.4,2.9-1.7,5.6-1.7c5.1,0,5.4,3.1,5.4,6.9v8.2c0,0.5-0.4,0.9-0.9,0.9
				h-0.5c-0.5,0-0.8-0.4-0.9-0.7l0,0l-0.1-0.6c-1.2,0.8-2.9,1.7-5.1,1.7c-3.1,0-5.6-2.1-5.6-5.4
				C169.3,248.8,172.1,246.5,176.3,246.5z M175.1,255c2.1,0,4-1.2,4.8-2v-3.6c-0.7-0.3-2-0.6-3.5-0.6c-2.8,0-4.1,1.3-4.1,3.2
				C172.2,253.9,173.2,255,175.1,255z"/>
			<path class="st1" d="M186.8,251.2c-0.5-0.8-1-2-1-3.6c0-3.8,2.8-6.7,7.7-6.7h6.8c0.6,0,0.9,0.5,0.9,0.9v0.1l0,0.1
				c-0.3,0.7-0.9,1.1-1.7,1.2l-0.7,0c0.8,0.8,1.7,2.2,1.7,4.4c0,3.5-2.7,6.5-7.4,6.5c-2.5,0-4.1-0.7-4.7-1.2c-0.5,0.3-1.5,1-1.5,2.2
				c0,1.4,1.1,1.7,2.7,1.7h6.4c3.6,0,6.3,1.7,6.3,5.4c0,3.6-3.5,6.8-8.8,6.8c-5.9,0-8.5-3.3-8.5-6.2c0-2,1.1-3.3,2-4
				c-1-0.5-2.6-1.6-2.6-3.5C184.4,253.1,186,251.7,186.8,251.2z M193.5,266.6c3.8,0,5.8-1.9,5.8-4.3c0-1.7-0.5-3-3.2-3h-5.5
				c-0.5,0.1-2.9,1.1-2.9,3.4C187.6,264.5,189.4,266.6,193.5,266.6z M198,247.9c0-3-2.1-4.6-4.8-4.6c-3.1,0-4.5,1.9-4.5,4.6
				c0,2.6,1.1,4.6,4.5,4.6C196.2,252.5,198,250.5,198,247.9z"/>
			<path class="st1" d="M205,233.1c0-1,0.8-1.8,1.8-1.8c1,0,1.8,0.8,1.8,1.8c0,1-0.8,1.7-1.8,1.7S205,234.1,205,233.1z M205.4,242.9
				c0-0.7,0.6-1.2,1.3-1.2c0.7,0,1.3,0.5,1.3,1.2v13.5c0,0.5-0.4,0.9-0.9,0.9c-0.9,0-1.6-0.7-1.6-1.6V242.9z"/>
			<path class="st1" d="M221.4,241c3.2,0,5.2,1.4,6.1,2.4c0.2,0.2,0.3,0.5,0.3,0.8l0,0.1c0,0.3-0.1,0.5-0.3,0.7
				c-0.2,0.2-0.6,0.4-0.9,0.3l-0.2,0c-0.3,0-0.5-0.1-0.7-0.3c-0.5-0.5-2-1.5-4.3-1.5c-3.9,0-6.2,2.4-6.2,5.6c0,3.3,2.4,5.7,6.2,5.7
				c2.7,0,4.1-1.3,4.6-2c0.2-0.2,0.4-0.3,0.7-0.4l0.1,0c0.3,0,0.7,0.1,0.9,0.3c0.2,0.2,0.3,0.4,0.4,0.7l0,0.1c0.1,0.3,0,0.7-0.2,0.9
				c-0.9,1.1-3.2,2.9-6.5,2.9c-5.3,0-9.3-3.5-9.3-8.2C212.1,244.5,216.1,241,221.4,241z"/>
			<path class="st1" d="M237.7,246.5c1.4,0,2.8,0.3,3.5,0.5c-0.1-2.7-0.4-3.7-3-3.7c-2.1,0-4.3,0.5-4.9,0.7
				c-0.3,0.1-0.7-0.1-0.8-0.4c-0.1-0.3,0-0.7,0.3-0.9c0.7-0.4,2.9-1.7,5.6-1.7c5.1,0,5.4,3.1,5.4,6.9v8.2c0,0.5-0.4,0.9-0.9,0.9
				h-0.5c-0.5,0-0.8-0.4-0.9-0.7l0,0l-0.1-0.6c-1.2,0.8-2.9,1.7-5.1,1.7c-3.1,0-5.6-2.1-5.6-5.4
				C230.7,248.8,233.4,246.5,237.7,246.5z M236.4,255c2.1,0,4-1.2,4.8-2v-3.6c-0.7-0.3-2-0.6-3.5-0.6c-2.8,0-4.1,1.3-4.1,3.2
				C233.6,253.9,234.6,255,236.4,255z"/>
			<path class="st1" d="M247.8,231.2c0-0.7,0.6-1.3,1.3-1.3c0.7,0,1.3,0.6,1.3,1.3v25.1c0,0.5-0.4,0.9-0.9,0.9
				c-0.9,0-1.6-0.7-1.6-1.6V231.2z"/>
			<path class="st1" d="M276.8,241c3.2,0,5.2,1.4,6.1,2.4c0.2,0.2,0.3,0.5,0.3,0.8l0,0.1c0,0.3-0.1,0.5-0.3,0.7
				c-0.2,0.2-0.6,0.4-0.9,0.3l-0.2,0c-0.3,0-0.5-0.1-0.7-0.3c-0.5-0.5-2-1.5-4.3-1.5c-3.9,0-6.2,2.4-6.2,5.6c0,3.3,2.4,5.7,6.2,5.7
				c2.7,0,4.1-1.3,4.6-2c0.2-0.2,0.4-0.3,0.7-0.4l0.1,0c0.3,0,0.7,0.1,0.9,0.3c0.2,0.2,0.3,0.4,0.4,0.7l0,0.1c0.1,0.3,0,0.7-0.2,0.9
				c-0.9,1.1-3.2,2.9-6.5,2.9c-5.3,0-9.3-3.5-9.3-8.2C267.6,244.5,271.5,241,276.8,241z"/>
			<path class="st1" d="M294.9,240.9c5.1,0,8.7,3.7,8.7,8.2c0,4.5-3.7,8.2-8.7,8.2c-5.1,0-8.7-3.7-8.7-8.2
				C286.2,244.6,289.8,240.9,294.9,240.9z M294.9,254.8c3.6,0,5.7-2.5,5.7-5.8c0-3.2-2.1-5.7-5.7-5.7c-3.6,0-5.7,2.5-5.7,5.7
				C289.2,252.4,291.3,254.8,294.9,254.8z"/>
			<path class="st1" d="M307,242.1c0.3-0.2,0.5-0.4,0.9-0.4c0.5,0,0.8,0.3,0.9,0.8l0,0l0.1,0.8c1-0.8,2.9-2,6-2c5,0,7,2.9,7,7.2v7.3
				c0,0.9-0.7,1.6-1.6,1.6c-0.5,0-0.9-0.4-0.9-0.9v-7.4c0-3.2-1.5-4.7-4.6-4.7c-3.2,0-5.2,1.4-5.7,1.9v10.3c0,0.5-0.4,0.9-0.9,0.9
				c-0.9,0-1.6-0.7-1.6-1.5V243C306.6,242.7,306.7,242.3,307,242.1z"/>
			<path class="st1" d="M327.1,243.7h-1.4c-0.7,0-0.9-0.5-0.9-0.9c0-0.8,0.6-1.4,1.4-1.4h0.9v-3.5c0-0.3,0.1-0.6,0.4-0.9l0.1-0.1
				c0.2-0.2,0.5-0.3,0.8-0.4c0.4,0,0.7,0.1,1,0.4c0.2,0.2,0.4,0.5,0.4,0.9v3.5h5c0.6,0,0.9,0.5,0.9,0.9c0,0.8-0.6,1.4-1.4,1.4h-4.5
				v8.6c0,1.7,0.1,2.2,1.6,2.2c1.1,0,2.5-0.3,3.1-0.6c0.3-0.1,0.6-0.2,0.9-0.1c0.5,0.2,0.9,0.7,0.8,1.3c0,0.4-0.2,0.7-0.5,0.9
				c-0.8,0.5-2.4,1.3-4.5,1.3c-3.6,0-3.9-2.2-3.9-4.6V243.7z"/>
			<path class="st1" d="M346.4,240.9c4.7,0,7.9,3.1,7.9,7.2c0,0.4,0.1,1.9-1,1.9h-12.4c0.3,2.8,2.1,4.9,5.7,4.9
				c2.1,0,3.7-0.7,4.6-1.3c0.2-0.1,0.4-0.2,0.6-0.2h0.1c0.4,0,0.7,0.2,0.9,0.5c0.2,0.3,0.3,0.6,0.2,0.9l0,0.1
				c-0.1,0.2-0.2,0.4-0.4,0.6c-1,0.8-3.4,1.8-6.1,1.8c-5.5,0-8.6-3.7-8.6-8.2C337.8,244.7,340.9,240.9,346.4,240.9z M351.7,248.2
				c-0.2-2.7-1.8-4.8-5.3-4.8c-3.5,0-5.2,2.1-5.5,4.8H351.7z"/>
			<path class="st1" d="M357.9,242.1c0.3-0.2,0.5-0.4,0.9-0.4c0.5,0,0.8,0.3,0.9,0.8l0,0l0.1,0.8c1-0.8,2.9-2,6-2c5,0,7,2.9,7,7.2
				v7.3c0,0.9-0.7,1.6-1.6,1.6c-0.5,0-0.9-0.4-0.9-0.9v-7.4c0-3.2-1.5-4.7-4.6-4.7c-3.2,0-5.2,1.4-5.7,1.9v10.3
				c0,0.5-0.4,0.9-0.9,0.9c-0.9,0-1.6-0.7-1.6-1.5V243C357.4,242.7,357.6,242.3,357.9,242.1z"/>
			<path class="st1" d="M378,243.7h-1.4c-0.7,0-0.9-0.5-0.9-0.9c0-0.8,0.6-1.4,1.4-1.4h0.9v-3.5c0-0.3,0.1-0.6,0.4-0.9l0.1-0.1
				c0.2-0.2,0.5-0.3,0.8-0.4c0.4,0,0.7,0.1,1,0.4c0.2,0.2,0.4,0.5,0.4,0.9v3.5h5c0.6,0,0.9,0.5,0.9,0.9c0,0.8-0.6,1.4-1.4,1.4h-4.5
				v8.6c0,1.7,0.1,2.2,1.6,2.2c1.1,0,2.5-0.3,3.1-0.6c0.3-0.1,0.6-0.2,0.9-0.1c0.5,0.2,0.9,0.7,0.8,1.3c0,0.4-0.2,0.7-0.5,0.9
				c-0.8,0.5-2.4,1.3-4.5,1.3c-3.6,0-3.9-2.2-3.9-4.6V243.7z"/>
			<path class="st1" d="M119.4,293c3.2,0,5.2,1.4,6.1,2.4c0.2,0.2,0.3,0.5,0.3,0.8l0,0.1c0,0.3-0.1,0.5-0.3,0.7
				c-0.2,0.2-0.6,0.4-0.9,0.3l-0.2,0c-0.3,0-0.5-0.1-0.7-0.3c-0.5-0.5-2-1.5-4.3-1.5c-3.9,0-6.2,2.4-6.2,5.6c0,3.3,2.4,5.7,6.2,5.7
				c2.7,0,4.1-1.3,4.6-2c0.2-0.2,0.4-0.3,0.7-0.4l0.1,0c0.3,0,0.7,0.1,0.9,0.3c0.2,0.2,0.3,0.4,0.4,0.7l0,0.1c0.1,0.3,0,0.7-0.2,0.9
				c-0.9,1.1-3.2,2.9-6.5,2.9c-5.3,0-9.3-3.5-9.3-8.2C110.1,296.6,114.1,293,119.4,293z"/>
			<path class="st1" d="M137.5,293c5.1,0,8.7,3.7,8.7,8.2c0,4.5-3.7,8.2-8.7,8.2c-5.1,0-8.7-3.7-8.7-8.2
				C128.8,296.7,132.4,293,137.5,293z M137.5,306.9c3.6,0,5.7-2.5,5.7-5.8c0-3.2-2.1-5.7-5.7-5.7c-3.6,0-5.7,2.5-5.7,5.7
				C131.8,304.4,133.9,306.9,137.5,306.9z"/>
			<path class="st1" d="M149.4,295.1c0-0.7,0.6-1.3,1.4-1.3c0.5,0,0.8,0.4,0.9,0.8l0,0l0.1,0.8c0.9-0.8,2.6-1.9,5.2-1.9
				c2.4,0,4.3,0.9,5.5,2.6c1-1,3.1-2.6,6.1-2.6c4.6,0,6.6,2.9,6.6,7.2v7.2c0,0.9-0.8,1.6-1.7,1.6c-0.5,0-0.9-0.4-0.9-0.9v-7.4
				c0-3.2-1.4-4.7-4.1-4.7c-2.7,0-4.3,1.2-5,1.8c0.2,0.8,0.3,1.6,0.3,2.5v7.1c0,0.9-0.8,1.6-1.8,1.6c-0.6,0-1-0.4-1-0.9v-7.4
				c0-3.2-1.5-4.7-4.3-4.7c-2.8,0-4.4,1.4-4.8,1.8v10.3c0,0.5-0.4,0.9-0.9,0.9c-0.9,0-1.6-0.7-1.6-1.6V295.1z"/>
			<path class="st1" d="M179.3,285.2c0-1,0.8-1.8,1.8-1.8c1,0,1.8,0.8,1.8,1.8c0,1-0.8,1.7-1.8,1.7
				C180.1,286.9,179.3,286.2,179.3,285.2z M179.8,295c0-0.7,0.6-1.2,1.3-1.2c0.7,0,1.3,0.5,1.3,1.2v13.5c0,0.5-0.4,0.9-0.9,0.9
				c-0.9,0-1.6-0.7-1.6-1.6V295z"/>
			<path class="st1" d="M187.2,294.2c0.3-0.2,0.5-0.4,1-0.4c0.5,0,0.8,0.3,0.9,0.8l0,0l0.1,0.8c1-0.8,2.9-2,6-2c5,0,7,2.9,7,7.2v7.3
				c0,0.9-0.7,1.6-1.6,1.6c-0.5,0-0.9-0.4-0.9-0.9v-7.4c0-3.2-1.5-4.7-4.6-4.7c-3.2,0-5.2,1.4-5.7,1.9v10.3c0,0.5-0.4,0.9-0.9,0.9
				c-0.9,0-1.6-0.7-1.6-1.5v-12.8C186.8,294.7,186.9,294.4,187.2,294.2z"/>
			<path class="st1" d="M207,303.3c-0.5-0.8-1-2-1-3.6c0-3.8,2.8-6.7,7.7-6.7h6.8c0.6,0,0.9,0.5,0.9,0.9v0.1l0,0.1
				c-0.3,0.7-0.9,1.1-1.7,1.2l-0.7,0c0.8,0.8,1.7,2.2,1.7,4.4c0,3.5-2.7,6.5-7.4,6.5c-2.5,0-4.1-0.7-4.7-1.2c-0.5,0.3-1.5,1-1.5,2.2
				c0,1.4,1.1,1.7,2.7,1.7h6.4c3.6,0,6.3,1.7,6.3,5.4c0,3.6-3.5,6.8-8.8,6.8c-5.9,0-8.5-3.3-8.5-6.2c0-2,1.1-3.3,2-4
				c-1-0.5-2.6-1.6-2.6-3.5C204.6,305.1,206.2,303.8,207,303.3z M213.6,318.6c3.8,0,5.8-1.9,5.8-4.3c0-1.7-0.5-3-3.2-3h-5.5
				c-0.5,0.1-2.9,1.1-2.9,3.4C207.7,316.6,209.5,318.6,213.6,318.6z M218.2,300c0-3-2.1-4.6-4.8-4.6c-3.1,0-4.5,1.9-4.5,4.6
				c0,2.6,1.1,4.6,4.5,4.6C216.4,304.6,218.2,302.6,218.2,300z"/>
			<path class="st1" d="M238.8,305.7c0.3-0.1,0.6,0,0.9,0.2c0.6,0.4,2,1.3,3.7,1.3c2,0,2.9-1,2.9-2.2c0-1.4-1-2-3.7-2.9
				c-2.8-0.9-5.1-2.1-5.1-4.7c0-1.9,1.7-4.2,5.6-4.2c1.9,0,3.4,0.6,4.3,1.1c0.3,0.2,0.6,0.5,0.6,0.9c0.1,0.6-0.3,1.1-0.8,1.3
				c-0.3,0.1-0.7,0.1-1-0.1c-0.6-0.3-1.8-0.9-3.1-0.9c-2.2,0-2.5,1.1-2.5,1.9c0,1.2,0.7,1.8,3,2.6c2.9,1,5.8,2,5.8,5
				c0,2.5-2.7,4.5-6,4.5c-2.5,0-4.1-0.9-5.1-1.6c-0.3-0.2-0.5-0.5-0.5-1C237.8,306.3,238.2,305.8,238.8,305.7z"/>
			<path class="st1" d="M260.7,293c5.1,0,8.7,3.7,8.7,8.2c0,4.5-3.7,8.2-8.7,8.2c-5.1,0-8.7-3.7-8.7-8.2
				C251.9,296.7,255.6,293,260.7,293z M260.7,306.9c3.6,0,5.7-2.5,5.7-5.8c0-3.2-2.1-5.7-5.7-5.7c-3.6,0-5.7,2.5-5.7,5.7
				C254.9,304.4,257,306.9,260.7,306.9z"/>
			<path class="st1" d="M280.3,293c5.1,0,8.7,3.7,8.7,8.2c0,4.5-3.7,8.2-8.7,8.2c-5.1,0-8.7-3.7-8.7-8.2
				C271.6,296.7,275.2,293,280.3,293z M280.3,306.9c3.6,0,5.7-2.5,5.7-5.8c0-3.2-2.1-5.7-5.7-5.7c-3.6,0-5.7,2.5-5.7,5.7
				C274.5,304.4,276.7,306.9,280.3,306.9z"/>
			<path class="st1" d="M292.4,294.2c0.3-0.2,0.5-0.4,0.9-0.4c0.5,0,0.8,0.3,0.9,0.8l0,0l0.1,0.8c1-0.8,2.9-2,6-2c5,0,7,2.9,7,7.2
				v7.3c0,0.9-0.7,1.6-1.6,1.6c-0.5,0-0.9-0.4-0.9-0.9v-7.4c0-3.2-1.5-4.7-4.6-4.7c-3.2,0-5.2,1.4-5.7,1.9v10.3
				c0,0.5-0.4,0.9-0.9,0.9c-0.9,0-1.6-0.7-1.6-1.5v-12.8C291.9,294.7,292.1,294.4,292.4,294.2z"/>
			<path class="st1" d="M316.4,308.5c0,1.1-0.9,2-2,2c-1.1,0-2-0.9-2-2c0-1.2,1-2,2-2C315.5,306.5,316.4,307.3,316.4,308.5z
				 M313.3,298.5l-0.4-10.9v-4.3c0-0.5,0.2-0.9,0.6-1.2c0.5-0.4,1.3-0.4,1.8,0c0.4,0.3,0.6,0.7,0.6,1.2v4.2l-0.3,10.9
				c0,0.2-0.1,0.4-0.2,0.6c-0.4,0.5-1.2,0.6-1.7,0.1C313.4,298.9,313.3,298.7,313.3,298.5z"/>
		</g>
		<polygon class="st2" points="394.1,156.5 411.4,182.7 390,162.5 386.2,195.2 382.5,163.4 362.1,182.7 379.4,156.5 340.2,152 
			379.6,147.4 361.4,119.8 382.5,139.8 386.8,86.9 391,139.8 412.1,119.8 393.9,147.4 433.3,152 		"/>
		<polygon class="st1" points="388.2,156.5 405.5,182.7 384.1,162.5 380.3,195.2 376.6,163.4 356.2,182.7 373.5,156.5 334.4,152 
			373.7,147.4 355.5,119.8 376.6,139.8 380.9,86.9 385.1,139.8 406.2,119.8 388.1,147.4 427.4,152 		"/>
		<g id="Layer_21_2_">
			<circle class="st2" cx="451" cy="323.6" r="6.6"/>
			<circle class="st2" cx="290" cy="389.6" r="6.6"/>
			<circle class="st2" cx="428.8" cy="240" r="6.6"/>
			<circle class="st2" cx="431.6" cy="302.9" r="6.6"/>
			<path class="st2" d="M451,383.7c-14.2,0.9-25.9,10.9-29.3,24.3c-3.3-13.1-14.6-23-28.4-24.3l0.1-0.1
				c14.2-0.9,25.9-10.9,29.3-24.4c3.2,13,14.5,22.9,28.2,24.3L451,383.7z"/>
			<path class="st2" d="M345.3,401.4c-6.9,0.4-12.6,5.3-14.2,11.8c-1.6-6.3-7.1-11.1-13.8-11.8l0,0c6.9-0.4,12.6-5.3,14.2-11.8
				C333.2,395.9,338.7,400.7,345.3,401.4L345.3,401.4z"/>
			<path class="st2" d="M263.8,401.4c-5.3,0.3-9.7,4.1-10.9,9c-1.2-4.9-5.5-8.6-10.6-9l0,0c5.3-0.3,9.7-4.1,10.9-9.1
				C254.4,397.1,258.6,400.8,263.8,401.4L263.8,401.4z"/>
			<path class="st2" d="M457.5,275.3c-7.9,0.4-14.4,6.1-16.2,13.5c-1.8-7.2-8.1-12.8-15.8-13.5l0,0c7.9-0.4,14.5-6.1,16.2-13.5
				C443.6,269.1,449.8,274.5,457.5,275.3L457.5,275.3z"/>
		</g>
		<g id="Layer_21_1_">
			<circle class="st1" cx="445.2" cy="323.6" r="6.6"/>
			<circle class="st1" cx="284.2" cy="389.6" r="6.6"/>
			<circle class="st1" cx="422.9" cy="240" r="6.6"/>
			<circle class="st1" cx="425.7" cy="302.9" r="6.6"/>
			<path class="st1" d="M445.2,383.7c-14.2,0.9-25.9,10.9-29.3,24.3c-3.3-13.1-14.6-23-28.4-24.3l0.1-0.1
				c14.2-0.9,25.9-10.9,29.3-24.4c3.2,13,14.5,22.9,28.2,24.3L445.2,383.7z"/>
			<path class="st1" d="M339.5,401.4c-6.9,0.4-12.6,5.3-14.2,11.8c-1.6-6.3-7.1-11.1-13.8-11.8l0,0c6.9-0.4,12.6-5.3,14.2-11.8
				C327.3,395.9,332.8,400.7,339.5,401.4L339.5,401.4z"/>
			<path class="st1" d="M257.9,401.4c-5.3,0.3-9.7,4.1-10.9,9c-1.2-4.9-5.5-8.6-10.6-9l0,0c5.3-0.3,9.7-4.1,10.9-9.1
				C248.6,397.1,252.8,400.8,257.9,401.4L257.9,401.4z"/>
			<path class="st1" d="M451.6,275.3c-7.9,0.4-14.4,6.1-16.2,13.5c-1.8-7.2-8.1-12.8-15.8-13.5l0,0c7.9-0.4,14.5-6.1,16.2-13.5
				C437.7,269.1,443.9,274.5,451.6,275.3L451.6,275.3z"/>
		</g>
	</g>
</g>
</svg>
