<?xml version="1.0" encoding="utf-8"?>
<!-- Generator: Adobe Illustrator 23.0.2, SVG Export Plug-In . SVG Version: 6.00 Build 0)  -->
<svg version="1.1" xmlns="http://www.w3.org/2000/svg" xmlns:xlink="http://www.w3.org/1999/xlink" x="0px" y="0px"
	 viewBox="0 0 500 500" style="enable-background:new 0 0 500 500;" xml:space="preserve">
<style type="text/css">
	.st0{display:none;opacity:0.17;}
	.st1{display:inline;fill:#BC3C3F;}
	.st2{display:inline;opacity:2.000000e-02;fill:#FFFFFF;}
	.st3{display:inline;}
	.st4{fill:#DFDFDF;}
	.st5{opacity:0.95;}
	.st6{opacity:7.000000e-02;fill:#DFDFDF;}
	.st7{display:inline;fill:#FFFFFF;}
	.st8{display:inline;fill:#F2E2EA;}
	.st9{display:inline;fill:#E7C7D6;}
	.st10{display:inline;opacity:7.000000e-02;fill:#020301;}
	.st11{display:inline;fill:#BE4751;}
	.st12{display:inline;fill:#020301;}
	.st13{fill:#020301;}
	.st14{fill:#FFFFFF;}
	.st15{fill:#252723;}
	.st16{fill:none;}
	.st17{display:none;fill:#252723;}
	.st18{font-family:'Febrero-Regular';}
	.st19{font-size:60px;}
	.st20{display:none;}
	.st21{fill:#1E1E1E;}
	.st22{display:inline;fill:#C9C9C9;}
	.st23{fill:#C9C9C9;}
	.st24{fill:#BA844F;}
	.st25{fill:#D69A58;}
	.st26{fill:#F48282;}
	.st27{fill:#CE6161;}
</style>
<g id="Layer_1">
</g>
<g id="Layer_2">
	<g class="st0">
		<path class="st1" d="M250,116.7c-49.5,0-89.6,40.1-89.6,89.6c0,49.5,40.1,89.6,89.6,89.6s89.6-40.1,89.6-89.6
			C339.6,156.8,299.5,116.7,250,116.7z M250,275.3c-38.1,0-69-30.9-69-69s30.9-69,69-69s69,30.9,69,69S288.1,275.3,250,275.3z"/>
		<path class="st1" d="M250,2.3C137.4,2.3,46.1,93.6,46.1,206.3S137.4,410.2,250,410.2s203.9-91.3,203.9-203.9S362.6,2.3,250,2.3z
			 M250,363.4c-86.8,0-157.1-70.4-157.1-157.1S163.2,49.1,250,49.1s157.1,70.3,157.1,157.1S336.8,363.4,250,363.4z"/>
		<rect y="-25.6" class="st2" width="500" height="465.7"/>
		<g class="st3">
			<path class="st4" d="M211.1,120.9c0,18.4-8.5,33.4-19.1,33.4s-18.8-14.7-17.7-33.1c0.8-12.9,7.5-23.9,13.1-29.5
				c2.4-2.4,6.7-2.4,9.1,0C202.2,97.4,211.1,108.3,211.1,120.9z"/>
			<g class="st5">
				<path class="st4" d="M307.7,121.8c0,5.1-0.5,9.9-1.5,14.2c-0.5,2.2-1.1,4.2-1.8,6.1c-0.9,2.3-1.8,4.4-2.9,6.2
					c-0.6,1-1.3,1.9-2,2.8c-2.6,3.1-5.6,5-8.8,5c-2,0-3.8-0.7-5.6-1.9c-2.3-1.6-4.3-4.1-6.1-7.4c-0.9-1.7-1.7-3.7-2.5-5.8v0
					c-1.8-5.4-2.9-12-2.9-19.1c0-0.7,0-1.4,0-2c0.4-12.1,8-22.6,12.9-28c2.2-2.4,5.9-2.4,8.1,0.1
					C299.7,97.6,307.7,108.9,307.7,121.8z"/>
				<path class="st4" d="M211.1,121.8c0,18.9-7.6,34.2-17,34.2c-9.4,0-17-15.3-17-34.2c0-12.9,7.9-24.1,13-29.9c2.1-2.5,6-2.5,8.1,0
					C203.2,97.7,211.1,108.9,211.1,121.8z"/>
				<path class="st4" d="M301.9,120.5c0,3.4-0.4,6.5-1,9.4c-0.3,1.4-0.7,2.8-1.2,4c-0.6,1.5-1.2,2.9-1.9,4.1
					c-0.4,0.7-0.8,1.3-1.3,1.8c-1.7,2.1-3.7,3.3-5.8,3.3c-1.3,0-2.5-0.4-3.7-1.2c-1.5-1-2.9-2.7-4-4.9c-0.6-1.1-1.2-2.4-1.6-3.8v0
					c-1.2-3.6-1.9-7.9-1.9-12.6c0-0.5,0-0.9,0-1.3c0.2-8,5.3-14.9,8.6-18.5c1.4-1.6,3.9-1.6,5.3,0
					C296.6,104.5,301.9,111.9,301.9,120.5z"/>
				<path class="st4" d="M205.3,120.4c0,12.5-5,22.6-11.3,22.6c-6.2,0-11.3-10.1-11.3-22.6c0-8.5,5.2-15.9,8.6-19.8
					c1.4-1.6,4-1.6,5.4,0C200.1,104.5,205.3,111.9,205.3,120.4z"/>
				<ellipse class="st4" cx="245" cy="288.5" rx="10.1" ry="19.9"/>
				
					<ellipse transform="matrix(0.7071 -0.7071 0.7071 0.7071 -21.6584 237.9447)" class="st6" cx="276.4" cy="145.1" rx="23.9" ry="26.1"/>
				
					<ellipse transform="matrix(0.7071 -0.7071 0.7071 0.7071 -42.1721 191.6955)" class="st6" cx="210.3" cy="146.8" rx="26.1" ry="23.9"/>
				<ellipse class="st6" cx="244.5" cy="269.4" rx="13.6" ry="23.6"/>
				<path class="st4" d="M314.5,198.4c0,2.6-0.1,5.2-0.3,7.8c-0.3,3.8-0.7,7.5-1.4,11.2c-0.4,2.4-1,4.8-1.6,7.2
					c-9.1,35.2-35.9,60.7-67.6,60.7c-39.2,0-70.9-38.9-70.9-86.8s31.7-86.8,70.9-86.8c10.8,0,21,2.9,30.1,8.2
					c7,4,13.4,9.4,18.9,15.9c1.6,1.9,3.2,3.9,4.6,5.9c1.5,2.1,2.9,4.3,4.2,6.6c0.6,1,1.2,2.1,1.7,3.1c1.8,3.5,3.5,7.2,4.9,11
					c3.7,9.8,5.9,20.6,6.3,31.9C314.5,195.7,314.5,197,314.5,198.4z"/>
				<path class="st4" d="M318.2,187.4c-0.9,2.6-2.2,4.9-3.8,6.9c0.1,1.4,0.1,2.7,0.1,4.1c0,2.6-0.1,5.2-0.3,7.8
					c-4.6,2.9-10,4.6-15.8,4.6c-16.5,0-29.9-13.4-29.9-29.9c0-11.7,6.8-21.9,16.6-26.8c4-2,8.5-3.1,13.3-3.1c0.4,0,0.8,0,1.1,0
					c1.3,0,2.5,0.2,3.7,0.4c1.8,3.5,3.5,7.2,4.9,11C317,167,321.5,177.6,318.2,187.4z"/>
				<path class="st4" d="M318.2,187.4c-0.9,2.6-2.2,4.9-3.8,6.9c0.1,1.4,0.1,2.7,0.1,4.1c0,2.6-0.1,5.2-0.3,7.8
					c-4.6,2.9-10,4.6-15.8,4.6c-16.5,0-29.9-13.4-29.9-29.9c0-11.7,6.8-21.9,16.6-26.8c4-2,8.5-3.1,13.3-3.1c0.4,0,0.8,0,1.1,0
					c1.3,0,2.5,0.2,3.7,0.4c1.8,3.5,3.5,7.2,4.9,11C317,167,321.5,177.6,318.2,187.4z"/>
				<path class="st4" d="M298.4,220.1c-21.7,0-39.2-17.6-39.2-39.2c0-14.6,8-27.4,19.9-34.2c5.4-3.1,11.6-4.9,18.2-5.1
					c-1.5-2.1-3-4-4.6-5.9c-5.8,0.7-11.2,2.5-16.1,5.2v0c-14.1,7.7-23.7,22.7-23.7,40c0,25.1,20.4,45.5,45.5,45.5
					c4.5,0,8.8-0.6,12.9-1.8c0.6-2.3,1.1-4.7,1.6-7.2C308.3,219.2,303.5,220.1,298.4,220.1z"/>
				<path class="st4" d="M318.2,187.4c-0.9,2.6-2.2,4.9-3.8,6.9c0.1,1.4,0.1,2.7,0.1,4.1c0,2.6-0.1,5.2-0.3,7.8
					c-4.6,2.9-10,4.6-15.8,4.6c-16.5,0-29.9-13.4-29.9-29.9c0-11.7,6.8-21.9,16.6-26.8c4-2,8.5-3.1,13.3-3.1c0.4,0,0.8,0,1.1,0
					c1.3,0,2.5,0.2,3.7,0.4c1.8,3.5,3.5,7.2,4.9,11C317,167,321.5,177.6,318.2,187.4z"/>
				<circle class="st4" cx="186.4" cy="180.9" r="20.9"/>
				<ellipse class="st4" cx="241.9" cy="225.1" rx="28.6" ry="13.9"/>
				<ellipse class="st4" cx="242.9" cy="220.2" rx="20.8" ry="4.4"/>
				<g>
					<path class="st4" d="M318.2,187.4c-0.9,2.6-2.2,4.9-3.8,6.9c-5.3,6.4-14.2,9.2-22.6,6.4c-11-3.6-16.9-15.4-13.3-26.4
						c3.6-11,15.4-16.9,26.4-13.3c1.1,0.4,2.2,0.8,3.2,1.4C317,167,321.5,177.6,318.2,187.4z"/>
					<circle class="st4" cx="298.2" cy="187.2" r="12.1"/>
				</g>
				<circle class="st4" cx="186.4" cy="187.2" r="12.1"/>
			</g>
		</g>
		<path class="st7" d="M299.8,123.4c0,4.8-0.5,9.4-1.5,13.5c-0.5,2-1,4-1.7,5.8c-0.8,2.2-1.8,4.2-2.8,5.9c-0.6,1-1.2,1.8-1.9,2.6
			c-2.5,3-5.3,4.7-8.4,4.7c-1.9,0-3.7-0.6-5.3-1.8c-2.2-1.5-4.1-3.9-5.8-7c-0.9-1.7-1.7-3.5-2.3-5.5v0c-1.7-5.2-2.8-11.4-2.8-18.2
			c0-0.7,0-1.3,0-1.9c0.3-11.5,7.6-21.5,12.3-26.7c2.1-2.3,5.6-2.3,7.7,0.1C292.2,100.4,299.8,111.1,299.8,123.4z"/>
		<path class="st7" d="M207.9,123.4c0,17.9-7.3,32.5-16.2,32.5c-9,0-16.2-14.6-16.2-32.5c0-12.3,7.6-22.9,12.3-28.5
			c2-2.4,5.7-2.4,7.7,0C200.4,100.5,207.9,111.2,207.9,123.4z"/>
		<path class="st8" d="M294.3,122.1c0,3.2-0.3,6.2-1,8.9c-0.3,1.4-0.7,2.6-1.1,3.8c-0.5,1.4-1.2,2.7-1.8,3.9
			c-0.4,0.6-0.8,1.2-1.2,1.7c-1.6,2-3.5,3.1-5.6,3.1c-1.2,0-2.4-0.4-3.5-1.2c-1.4-1-2.7-2.6-3.8-4.6c-0.6-1.1-1.1-2.3-1.6-3.7v0
			c-1.2-3.4-1.8-7.6-1.8-12c0-0.4,0-0.9,0-1.3c0.2-7.6,5-14.2,8.1-17.6c1.4-1.5,3.7-1.5,5.1,0C289.3,106.9,294.3,114,294.3,122.1z"
			/>
		<path class="st8" d="M202.4,122.1c0,11.9-4.8,21.5-10.7,21.5s-10.7-9.6-10.7-21.5c0-8.1,5-15.2,8.2-18.8c1.3-1.6,3.8-1.6,5.1,0
			C197.4,106.9,202.4,114,202.4,122.1z"/>
		<ellipse class="st9" cx="240.1" cy="282" rx="9.6" ry="18.9"/>
		
			<ellipse transform="matrix(0.7071 -0.7071 0.7071 0.7071 -23.8416 233.5797)" class="st10" cx="270" cy="145.6" rx="22.7" ry="24.8"/>
		
			<ellipse transform="matrix(0.7071 -0.7071 0.7071 0.7071 -43.3575 189.5799)" class="st10" cx="207.2" cy="147.1" rx="24.8" ry="22.7"/>
		<ellipse class="st10" cx="239.7" cy="263.8" rx="12.9" ry="22.5"/>
		<path class="st7" d="M306.3,196.3c0,2.5-0.1,5-0.3,7.4c-0.2,3.6-0.7,7.2-1.3,10.6c-0.4,2.3-0.9,4.6-1.5,6.8
			c-8.6,33.5-34.2,57.7-64.3,57.7c-37.2,0-67.4-37-67.4-82.6s30.2-82.6,67.4-82.6c10.2,0,19.9,2.8,28.6,7.8c6.7,3.8,12.8,9,18,15.2
			c1.5,1.8,3,3.7,4.4,5.6c1.4,2,2.8,4.1,4,6.3c0.6,1,1.1,2,1.6,3c1.8,3.3,3.3,6.8,4.7,10.4c3.5,9.3,5.6,19.6,6,30.4
			C306.3,193.7,306.3,195,306.3,196.3z"/>
		<path class="st11" d="M309.8,185.8c-0.8,2.5-2.1,4.7-3.6,6.5c0,1.3,0.1,2.6,0.1,3.9c0,2.5-0.1,5-0.3,7.4
			c-4.4,2.8-9.5,4.3-15.1,4.3c-15.7,0-28.4-12.7-28.4-28.4c0-11.2,6.4-20.8,15.8-25.5c3.8-1.9,8.1-3,12.6-3c0.4,0,0.7,0,1.1,0
			c1.2,0,2.4,0.2,3.5,0.4c1.8,3.3,3.3,6.8,4.7,10.4C308.7,166.4,312.9,176.5,309.8,185.8z"/>
		<path class="st11" d="M309.8,185.8c-0.8,2.5-2.1,4.7-3.6,6.5c0,1.3,0.1,2.6,0.1,3.9c0,2.5-0.1,5-0.3,7.4
			c-4.4,2.8-9.5,4.3-15.1,4.3c-15.7,0-28.4-12.7-28.4-28.4c0-11.2,6.4-20.8,15.8-25.5c3.8-1.9,8.1-3,12.6-3c0.4,0,0.7,0,1.1,0
			c1.2,0,2.4,0.2,3.5,0.4c1.8,3.3,3.3,6.8,4.7,10.4C308.7,166.4,312.9,176.5,309.8,185.8z"/>
		<path class="st11" d="M290.9,216.9c-20.6,0-37.3-16.7-37.3-37.3c0-13.9,7.6-26.1,18.9-32.5c5.1-2.9,11-4.7,17.3-4.8
			c-1.4-2-2.8-3.8-4.4-5.6c-5.5,0.7-10.6,2.4-15.3,5v0c-13.4,7.4-22.5,21.6-22.5,38c0,23.9,19.4,43.3,43.3,43.3
			c4.2,0,8.3-0.6,12.2-1.8c0.6-2.2,1.1-4.5,1.5-6.8C300.4,216,295.8,216.9,290.9,216.9z"/>
		<path class="st11" d="M309.8,185.8c-0.8,2.5-2.1,4.7-3.6,6.5c0,1.3,0.1,2.6,0.1,3.9c0,2.5-0.1,5-0.3,7.4
			c-4.4,2.8-9.5,4.3-15.1,4.3c-15.7,0-28.4-12.7-28.4-28.4c0-11.2,6.4-20.8,15.8-25.5c3.8-1.9,8.1-3,12.6-3c0.4,0,0.7,0,1.1,0
			c1.2,0,2.4,0.2,3.5,0.4c1.8,3.3,3.3,6.8,4.7,10.4C308.7,166.4,312.9,176.5,309.8,185.8z"/>
		<circle class="st12" cx="184.4" cy="179.6" r="19.9"/>
		<ellipse class="st12" cx="237.3" cy="221.6" rx="27.3" ry="13.2"/>
		<ellipse class="st7" cx="238.2" cy="217" rx="19.8" ry="4.2"/>
		<g class="st3">
			<path class="st13" d="M309.8,185.8c-0.8,2.5-2.1,4.7-3.6,6.5c-5.1,6.1-13.5,8.8-21.5,6.1c-10.4-3.4-16.1-14.7-12.7-25.1
				c3.4-10.4,14.7-16.1,25.1-12.7c1.1,0.4,2.1,0.8,3,1.3C308.7,166.4,312.9,176.5,309.8,185.8z"/>
			<circle class="st14" cx="290.8" cy="185.6" r="11.5"/>
		</g>
		<circle class="st7" cx="184.4" cy="185.6" r="11.5"/>
	</g>
	<g>
		<path class="st15" d="M207.1,443c0-0.7,0.6-1.3,1.3-1.3h22.4c1,0,1.8,0.8,1.8,1.8c0,1-0.8,1.8-1.8,1.8h-17.6c-1.3,0-2.3,1-2.3,2.2
			v10.9h17.3c1,0,1.8,0.8,1.8,1.8c0,1-0.8,1.8-1.8,1.8h-14.5c-1.5,0-2.7,1.2-2.7,2.6v10c0,0.8,0.7,1.5,1.6,1.5h18.3
			c1,0,1.7,0.8,1.7,1.7s-0.8,1.7-1.7,1.7h-22.4c-0.7,0-1.3-0.6-1.3-1.3V443z"/>
		<path class="st15" d="M246,464.3c1.9,0,3.8,0.5,4.8,0.7c-0.1-3.8-0.6-5.1-4.1-5.1c-2.9,0-5.9,0.7-6.8,0.9c-0.5,0.1-1-0.1-1.1-0.6
			c-0.2-0.4,0-0.9,0.4-1.2c0.9-0.6,4-2.4,7.8-2.4c7.1,0,7.5,4.3,7.5,9.5v11.4c0,0.7-0.6,1.2-1.3,1.2h-0.6c-0.7,0-1.1-0.5-1.2-1l0,0
			L251,477c-1.6,1.2-4,2.4-7,2.4c-4.3,0-7.7-2.9-7.7-7.5C236.3,467.5,240.1,464.3,246,464.3z M244.2,476c2.9,0,5.6-1.6,6.6-2.8v-5
			c-1-0.4-2.7-0.9-4.9-0.9c-3.9,0-5.7,1.7-5.7,4.4C240.3,474.5,241.6,476,244.2,476z"/>
		<path class="st15" d="M258.1,459.6c0-1,0.9-1.8,2-1.8c0.6,0,1.1,0.4,1.2,1.1l0.1,0.8c1.2-1.1,3.2-2.5,6.3-2.5
			c1.5,0,2.6,0.3,3.2,0.6c0.3,0.1,0.7,0.3,0.9,0.7l0.1,0.2c0.3,0.5,0.3,1.1,0.1,1.5l0,0.1c-0.2,0.5-0.6,0.8-1,1
			c-0.4,0.1-0.8,0.1-1.1,0c-0.5-0.2-1.3-0.5-2.2-0.5c-3.7,0-5.7,3.5-5.9,6.8c-0.4,4.8,0.1,10.6,0.1,10.6l0,0v0
			c0,0.7-0.5,1.2-1.3,1.2c-1.3,0-2.3-1-2.3-2.2V459.6z"/>
		<path class="st15" d="M276,474.1c0.4-0.1,0.9,0,1.2,0.3c0.8,0.6,2.7,1.7,5.1,1.7c2.8,0,4-1.4,4-3c0-1.9-1.4-2.8-5.1-4
			c-3.8-1.3-7-3-7-6.5c0-2.6,2.4-5.9,7.7-5.9c2.6,0,4.7,0.8,5.9,1.5c0.5,0.3,0.8,0.7,0.9,1.3c0.1,0.8-0.4,1.6-1.1,1.9
			c-0.4,0.1-0.9,0.1-1.4-0.1c-0.8-0.4-2.5-1.2-4.3-1.2c-3,0-3.4,1.5-3.4,2.7c0,1.7,1,2.5,4.1,3.5c4,1.4,8,2.8,8,6.9
			c0,3.5-3.7,6.2-8.3,6.2c-3.4,0-5.7-1.3-7-2.2c-0.4-0.3-0.7-0.7-0.7-1.3C274.6,475,275.2,474.3,276,474.1z"/>
	</g>
	<rect x="177" y="441" class="st16" width="142" height="43.8"/>
	<text transform="matrix(1 0 0 1 177.0221 479.5152)" class="st17 st18 st19">Ears</text>
	<g class="st20">
		<g class="st3">
			<path d="M337.8,21.7v3.1c-7.5,6.9-39.7,12.1-78.3,12.1c-44.2,0-80-6.8-80-15.2H337.8z"/>
			<path class="st21" d="M337.8,21.7c0,1-0.6,2.1-1.6,3.1c-2.5,2.3-7.8,4.5-15.3,6.3c-4.1,1-8.9,1.9-14.3,2.7
				c-11.6,1.7-25.6,2.8-40.9,3.1c-2.1,0-4.2,0.1-6.3,0.1c-1.4,0-2.8,0-4.1,0c-16-0.1-30.8-1.2-43-2.8c-5.3-0.7-10.1-1.6-14.3-2.5
				c-7.5-1.7-13.1-3.7-16.1-6c-0.3-0.2-0.6-0.5-0.9-0.7c-0.3-0.3-0.5-0.5-0.7-0.7c-0.3-0.4-0.5-0.7-0.7-1.1
				c-0.1-0.3-0.2-0.5-0.2-0.8c0-0.1,0-0.3,0-0.4c0-5,12.4-9.3,31.5-12.1c8.7-1.3,18.8-2.2,29.8-2.7c5.7-0.3,11.7-0.4,17.9-0.4
				c6.9,0,13.6,0.2,20,0.5c11.1,0.6,21.2,1.6,29.8,2.9C326.4,12.7,337.8,16.9,337.8,21.7z"/>
			<path d="M414.1,115.7h0.5l-53.7,293.8H152.1L98.6,117c-0.6-1.6-0.9-3.1-0.9-4.8c0-13.1,20-23.8,44.6-23.8
				c15.2,0,28.6,4,36.7,10.2c0.1,0.1,0.3,0.2,0.5,0.4V21.7c0,0.1,0,0.3,0,0.4c0,0.3,0.1,0.5,0.2,0.8c0.1,0.2,0.2,0.4,0.3,0.6
				c0.1,0.2,0.2,0.4,0.4,0.6c0.2,0.2,0.4,0.5,0.7,0.7c0.7,0.6,1.5,1.2,2.6,1.8c0.2,0.1,0.4,0.2,0.7,0.4c0.2,0.1,0.4,0.2,0.7,0.4
				c3.2,1.5,7.6,2.9,13.1,4.2c4.2,0.9,9,1.8,14.3,2.5c11.1,1.5,24.4,2.5,38.9,2.8c2.7,0.1,5.4,0.1,8.2,0.1c2.1,0,4.2,0,6.3-0.1
				c15.3-0.2,29.3-1.3,41-2.9c5.3-0.7,10.1-1.6,14.3-2.6c8.2-1.9,14.1-4.1,16.8-6.6v70.9c0.6-0.3,1.2-0.6,1.8-1
				c8-3.9,18.6-6.3,30.3-6.3c24.6,0,44.6,10.7,44.6,23.8C414.5,113.4,414.4,114.6,414.1,115.7z"/>
		</g>
		<path class="st22" d="M339.6,94.7c-0.6,0.3-1.2,0.6-1.8,1c0,0-2.5,5.5-2.5,51.3c0,79.8-33.9,144.5-75.7,144.5
			s-75.7-64.7-75.7-144.5c0-45.7-4-54.4-4.4-51.6c-0.2,1.1-0.3,2.2-0.5,3.3c-1.7,12.8-2.7,26.2-2.7,40c0,87.8,37.3,158.9,83.2,158.9
			s83.2-71.2,83.2-158.9C342.8,123.4,341.7,108.6,339.6,94.7z"/>
		<g class="st3">
			<circle class="st23" cx="260.8" cy="312" r="11.5"/>
			<circle class="st23" cx="251.6" cy="301.8" r="6.8"/>
			<circle class="st23" cx="270" cy="301.8" r="6.8"/>
			<path class="st24" d="M269.8,313.3c0,1.8-0.5,3.5-1.5,4.9c-1.6,2.4-4.3,4-7.4,4c-1.4,0-2.8-0.3-4-0.9c-2.9-1.5-5-4.5-5-8
				c0-3.6,2.1-6.7,5.2-8.1c1.1-0.5,2.4-0.8,3.7-0.8c0.3,0,0.5,0,0.7,0C266.1,304.8,269.8,308.7,269.8,313.3z"/>
			<path class="st25" d="M266.5,312.4c0,2.6-1.1,5-2.9,6.6c-1.6,1.5-3.7,2.3-6,2.3c-0.2,0-0.5,0-0.7,0c-2.9-1.5-5-4.5-5-8
				c0-3.6,2.1-6.7,5.2-8.1c1.1-0.5,2.4-0.8,3.7-0.8c0.3,0,0.5,0,0.7,0C264.5,305.9,266.5,308.9,266.5,312.4z"/>
			<path class="st24" d="M256.7,301.8c0,3-2.5,5.5-5.5,5.5c-0.9,0-1.6-0.2-2.4-0.6c-1.8-0.9-3.1-2.8-3.1-4.9c0-3,2.5-5.5,5.5-5.5
				c0.2,0,0.3,0,0.4,0.1C254.5,296.5,256.7,298.9,256.7,301.8z"/>
			<path class="st25" d="M254.8,301.2c0,3-2.5,5.5-5.5,5.5c-0.2,0-0.3,0-0.5,0c-1.8-0.9-3.1-2.8-3.1-4.9c0-3,2.5-5.5,5.5-5.5
				c0.2,0,0.3,0,0.4,0.1C253.5,297.1,254.8,299,254.8,301.2z"/>
			<path class="st24" d="M275.5,301.2c0,3-2.5,5.5-5.5,5.5c-1.1,0-2.2-0.3-3.1-0.9c-1.5-1-2.4-2.6-2.4-4.5c0-3,2.5-5.5,5.5-5.5
				c0.2,0,0.4,0,0.7,0.1C273.4,296.1,275.5,298.4,275.5,301.2z"/>
			<path class="st25" d="M273.8,300.7c0,2.9-2.4,5.3-5.3,5.3c-0.5,0-1.1-0.1-1.6-0.3c-1.5-1-2.4-2.6-2.4-4.5c0-3,2.5-5.5,5.5-5.5
				c0.2,0,0.4,0,0.7,0.1C272.5,296.6,273.8,298.5,273.8,300.7z"/>
		</g>
	</g>
</g>
<g id="Layer_3">
	<path class="st15" d="M260.1,162.6c-74.5,0-135,72-135,160.7c0,19.4,2.9,38,8.2,55.3h31.5c-6.9-16.7-10.7-35.5-10.7-55.3
		c0-69.7,47.5-126.2,106-126.2s106,56.5,106,126.2c0,19.8-3.8,38.6-10.7,55.3h31.5c5.3-17.2,8.2-35.9,8.2-55.3
		C395,234.5,334.6,162.6,260.1,162.6z"/>
	<circle class="st15" cx="123.1" cy="129.1" r="106.7"/>
	<circle class="st15" cx="380.6" cy="124" r="106.7"/>
	<path class="st26" d="M257.6,196.4L81.2,279.7c-7.5,3.5-16.1-1.9-16.1-10.2V102.9c0-8.3,8.6-13.7,16.1-10.2L257.6,176
		C266.2,180.1,266.2,192.3,257.6,196.4z"/>
	<polygon class="st27" points="226.6,182.3 102.5,182.3 111.4,136.4 	"/>
	<polygon class="st27" points="241.1,189.1 91.3,240.8 82.9,196.6 	"/>
	<path class="st26" d="M266.2,192l176.4,83.3c7.5,3.5,16.1-1.9,16.1-10.2V98.5c0-8.3-8.6-13.7-16.1-10.2l-176.4,83.3
		C257.6,175.6,257.6,187.9,266.2,192z"/>
	<polygon class="st27" points="297.3,177.9 421.3,177.9 412.5,131.9 	"/>
	<polygon class="st27" points="282.7,184.7 432.5,236.4 441,192.1 	"/>
	<path class="st26" d="M289.8,232.6h-68.7c-6.6,0-12-5.4-12-12v-68.7c0-6.6,5.4-12,12-12h68.7c6.6,0,12,5.4,12,12v68.7
		C301.8,227.2,296.4,232.6,289.8,232.6z"/>
	<path class="st27" d="M248.1,197.8h-14.3c-6.6,0-12-5.4-12-12v-27.1c0-6.6,5.4-12,12-12h14.3c6.6,0,12,5.4,12,12v27.1
		C260.1,192.4,254.7,197.8,248.1,197.8z"/>
</g>
</svg>
