<?xml version="1.0" encoding="utf-8"?>
<!-- Generator: Adobe Illustrator 23.0.2, SVG Export Plug-In . SVG Version: 6.00 Build 0)  -->
<svg version="1.1" id="Layer_1" xmlns="http://www.w3.org/2000/svg" xmlns:xlink="http://www.w3.org/1999/xlink" x="0px" y="0px"
	 viewBox="0 0 500 500" style="enable-background:new 0 0 500 500;" xml:space="preserve">
<style type="text/css">
	.st0{fill:#A3BDD5;}
	.st1{fill:#5176AD;}
	.st2{fill:#3A5773;}
	.st3{display:none;fill:#5176AD;}
</style>
<rect x="210.3" y="315.4" class="st0" width="223.6" height="106.4"/>
<path class="st1" d="M412.8,362.3c3.5,1.4,5.9-3.3,4.6-9c-2.4-10.6-17.4-23.9-19.2-20.5C396.5,336.1,406.3,359.6,412.8,362.3z"/>
<rect x="278.9" y="323.9" class="st1" width="155" height="8.3"/>
<rect x="295.8" y="327.2" class="st0" width="7.3" height="1.8"/>
<rect x="309.9" y="327.2" class="st0" width="7.3" height="1.8"/>
<rect x="324" y="327.2" class="st0" width="7.3" height="1.8"/>
<rect x="338.1" y="327.2" class="st0" width="7.3" height="1.8"/>
<rect x="352.1" y="327.2" class="st0" width="7.3" height="1.8"/>
<rect x="366.2" y="327.2" class="st0" width="7.3" height="1.8"/>
<rect x="380.3" y="327.2" class="st0" width="7.3" height="1.8"/>
<rect x="394.4" y="327.2" class="st0" width="7.3" height="1.8"/>
<rect x="408.4" y="327.2" class="st0" width="7.3" height="1.8"/>
<rect x="422.5" y="327.2" class="st0" width="7.3" height="1.8"/>
<g>
	<path class="st1" d="M278.9,286.3v133.8c0,8.4-6.8,15.2-15.2,15.2H80.4c-8.4,0-15.2-6.8-15.2-15.2V286.3c0-0.9,0-1.8,0-2.6
		c1.1-72.7,48.5-131.2,106.8-131.2c58.3,0,105.7,58.5,106.8,131.2C278.8,284.5,278.9,285.4,278.9,286.3z"/>
	<path class="st1" d="M65.2,283.7L65.2,283.7c0,0.9,0,1.8,0,2.6V283.7z"/>
	<path class="st1" d="M278.9,283.7v2.6C278.9,285.4,278.8,284.5,278.9,283.7L278.9,283.7z"/>
	<path class="st1" d="M200.3,169.1c0,2.4-0.1,4.7-0.3,7c-1.8-24.3-13.7-43.1-28-43.1c-14.2,0-26,18.5-28,42.5
		c-0.2-2.1-0.2-4.3-0.2-6.4c0-27.4,12.7-49.5,28.2-49.5C187.6,119.6,200.3,141.8,200.3,169.1z"/>
	<path class="st1" d="M200.2,182.6c0,27.3-12.7,49.5-28.3,49.5c-15.6,0-28.2-22.2-28.2-49.5c0-2.4,0.1-4.7,0.3-7
		c1.8,24.3,13.7,43.1,28,43.1c14.2,0,26-18.5,28-42.5C200.2,178.3,200.2,180.4,200.2,182.6z"/>
	<rect x="86.2" y="302.2" class="st0" width="173.3" height="109.9"/>
	<rect x="138" y="203.9" class="st0" width="69.6" height="34.9"/>
</g>
<polygon class="st2" points="423.4,185.9 412.6,283.7 313.5,283.7 291.8,185.9 "/>
<path class="st3" d="M343.8,83.5c-37.4,0-67.7,23.1-67.7,51.6c0,1.4,0.1,2.8,0.2,4.1h8.9c-0.2-1.4-0.2-2.7-0.2-4.1
	c0-24.8,26.3-44.8,58.8-44.8c32.5,0,58.8,20.1,58.8,44.8c0,1.4-0.1,2.8-0.2,4.1h8.9c0.2-1.4,0.2-2.7,0.2-4.1
	C411.5,106.6,381.2,83.5,343.8,83.5z"/>
<path class="st1" d="M357.6,83.6c-35,0-63.3,42.4-63.3,94.7c0,2.6,0.1,5.1,0.2,7.6h8.3c-0.2-2.5-0.2-5-0.2-7.6
	c0-45.5,24.6-82.3,55-82.3c30.4,0,55,36.8,55,82.3c0,2.6-0.1,5.1-0.2,7.6h8.3c0.1-2.5,0.2-5,0.2-7.6
	C420.9,126,392.6,83.6,357.6,83.6z"/>
<polygon class="st0" points="431.4,166.6 398.6,243.8 316.4,243.8 283.5,166.6 "/>
<circle class="st1" cx="359.9" cy="223.1" r="10.5"/>
<circle class="st2" cx="359.9" cy="223.1" r="5.2"/>
<rect x="281.9" y="327.2" class="st0" width="7.3" height="1.8"/>
<rect x="571" y="159.7" class="st0" width="84.1" height="84.1"/>
<rect x="571" y="263.3" class="st1" width="84.1" height="84.1"/>
<rect x="571" y="366.9" class="st2" width="84.1" height="84.1"/>
</svg>
