<?xml version="1.0" encoding="utf-8"?>
<!-- Generator: Adobe Illustrator 23.0.2, SVG Export Plug-In . SVG Version: 6.00 Build 0)  -->
<svg version="1.1" id="Layer_1" xmlns="http://www.w3.org/2000/svg" xmlns:xlink="http://www.w3.org/1999/xlink" x="0px" y="0px"
	 viewBox="0 0 500 500" style="enable-background:new 0 0 500 500;" xml:space="preserve">
<style type="text/css">
	.st0{fill:#A3BDD5;}
	.st1{fill:#5176AD;}
	.st2{fill:#3A5773;}
</style>
<rect x="571" y="159.7" class="st0" width="84.1" height="84.1"/>
<rect x="571" y="263.3" class="st1" width="84.1" height="84.1"/>
<rect x="571" y="366.9" class="st2" width="84.1" height="84.1"/>
<g>
	<rect x="136.1" y="98.5" class="st0" width="270.5" height="309"/>
	<rect x="136.1" y="84.4" class="st1" width="263.9" height="327.6"/>
	<rect x="139.4" y="84.4" class="st1" width="263.9" height="327.6"/>
	<rect x="124.1" y="84.4" class="st2" width="263.9" height="327.6"/>
	<rect x="117.1" y="80.9" class="st0" width="263.9" height="338.2"/>
	<path class="st2" d="M130.7,425.3h-7.8c-6.6,0-12-5.4-12-12V86.7c0-6.6,5.4-12,12-12h7.8c6.6,0,12,5.4,12,12v326.7
		C142.7,419.9,137.3,425.3,130.7,425.3z"/>
	<rect x="183.3" y="138.2" class="st1" width="145.6" height="95.3"/>
</g>
</svg>
