<?xml version="1.0" encoding="utf-8"?>
<!-- Generator: Adobe Illustrator 23.0.2, SVG Export Plug-In . SVG Version: 6.00 Build 0)  -->
<svg version="1.1" id="Layer_1" xmlns="http://www.w3.org/2000/svg" xmlns:xlink="http://www.w3.org/1999/xlink" x="0px" y="0px"
	 viewBox="0 0 500 500" style="enable-background:new 0 0 500 500;" xml:space="preserve">
<style type="text/css">
	.st0{fill:#E0DFDE;}
	.st1{fill:#262825;}
	.st2{fill:none;}
	.st3{display:none;fill:#262825;}
	.st4{font-family:'Febrero-Regular';}
	.st5{font-size:60px;}
	.st6{fill:#0E0E0E;}
	.st7{fill:#F1DCBE;}
	.st8{fill:#C8A06E;}
	.st9{fill:#E4B980;}
	.st10{fill:#E1CBAF;}
	.st11{fill:#FAF4ED;}
	.st12{fill:#D8D4D2;}
	.st13{fill:#C6ADC8;}
	.st14{fill:#FFFFFF;}
	.st15{fill:#F2DEAC;}
	.st16{fill:#F5E7C9;}
	.st17{fill:#EAD19F;}
	.st18{fill:#B5B5B5;}
	.st19{fill:#C9C9C8;}
	.st20{fill:#B59F93;}
	.st21{fill:#D4BED3;}
	.st22{fill:#B28E65;}
	.st23{fill:#C1AAC0;}
	.st24{fill:#DDCBA5;}
	.st25{fill:#FDF9CB;}
	.st26{fill:#658ABD;}
	.st27{fill:#F4E3BD;}
	.st28{fill:#DBC297;}
	.st29{display:none;}
	.st30{display:inline;}
	.st31{display:inline;fill:#DBC297;}
	.st32{display:inline;fill:#DDCBA5;}
	.st33{fill:#C9B082;}
	.st34{fill:#EFDCBD;}
	.st35{fill:#B9D4B3;}
	.st36{fill:#8D8A86;}
	.st37{fill:#C9C8C6;}
	.st38{fill:#616161;}
</style>
<g>
	<path class="st0" d="M357.9,376.3h-55.4l2.6-26.5c0.5-4.7,0.3-9.4-0.4-14l-2.2-14.2h55.4l-1.1,4.2c-2.8,11.2-3.4,22.6-1.6,33.9
		L357.9,376.3z"/>
	<ellipse class="st0" cx="330.1" cy="342.9" rx="16.2" ry="8.8"/>
	<path class="st0" d="M306,327.1c-0.4-1.9-0.8-3.7-0.9-5.6h-2.7l1.3,8.5h2.8C306.4,329,306.2,328,306,327.1z"/>
	<path class="st0" d="M312.1,321.5h-4.4c0.1,2,0.6,3.8,1,5.8c0.2,0.9,0.3,1.8,0.5,2.7h3.6C312.3,327.2,312.1,324.3,312.1,321.5z"/>
	<path class="st0" d="M318.3,327.3c-0.4-1.9-0.9-3.8-1-5.8v0h-2.7c0,2.9,0.2,5.7,0.6,8.5h3.5C318.6,329.1,318.5,328.2,318.3,327.3z"
		/>
	<path class="st0" d="M322.8,321.5h-2.9c0,0,0,0,0,0c0.1,2,0.6,3.9,1,5.9c0.2,0.9,0.3,1.8,0.5,2.6h1.9
		C323.1,327.2,322.8,324.3,322.8,321.5z"/>
	<path class="st0" d="M327.9,321.5h-2.5c0,2.9,0.3,5.7,0.5,8.5h3.2C328.4,327.2,328,324.4,327.9,321.5z"/>
	<path class="st0" d="M333.7,321.5h-3.2c0.1,2.9,0.6,5.7,1.1,8.5h2.7C333.7,327.2,333.6,324.3,333.7,321.5z"/>
	<path class="st0" d="M339.8,327.1c-0.3-1.9-0.7-3.7-0.8-5.6h-2.7c0,2.9,0.1,5.7,0.7,8.5h3.3C340.1,329,339.9,328,339.8,327.1z"/>
	<path class="st0" d="M347,321.5h-5.5c0.1,2,0.5,3.8,0.9,5.8c0.2,0.9,0.3,1.8,0.4,2.7h3.3C346.2,327.1,346.6,324.3,347,321.5z"/>
	<path class="st0" d="M349.5,321.5c-0.3,2.8-0.7,5.7-0.9,8.5h4.2c0.4-2.8,0.9-5.7,0.9-8.5H349.5z"/>
	<polygon class="st0" points="303.9,331 304.2,332.7 355.3,332.7 355.7,330 303.8,330 	"/>
</g>
<g>
	<path class="st1" d="M18.2,442.3c0.7-0.7,1.9-0.7,2.6,0c0.4,0.3,0.6,0.8,0.6,1.3v14.9h24.2v-14.9c0-0.5,0.2-0.9,0.6-1.3
		c0.7-0.7,1.9-0.7,2.6,0c0.4,0.4,0.6,0.8,0.6,1.3v34.7c0,0.7-0.5,1.3-1.3,1.3c-1.3,0-2.4-1.1-2.4-2.4v-15.3H24.8
		c-1.9,0-3.4,1.5-3.4,3.3v13.1c0,0.7-0.5,1.3-1.3,1.3c-1.3,0-2.4-1.1-2.4-2.4v-33.6C17.7,443.1,17.9,442.6,18.2,442.3z"/>
	<path class="st1" d="M65.6,456.6c7,0,12.1,5.1,12.1,11.3c0,6.3-5.1,11.4-12.1,11.4c-7.1,0-12.1-5.1-12.1-11.4
		C53.6,461.7,58.6,456.6,65.6,456.6z M65.6,475.8c4.9,0,7.9-3.4,7.9-8c0-4.4-2.9-7.8-7.9-7.8c-5,0-7.9,3.4-7.9,7.8
		C57.7,472.4,60.6,475.8,65.6,475.8z"/>
	<path class="st1" d="M83.7,460.4h-1.9c-0.9,0-1.2-0.7-1.2-1.3c0-1.1,0.9-2,2-2h1.2v-4.8c0-0.4,0.2-0.9,0.5-1.2l0.1-0.1
		c0.3-0.3,0.7-0.5,1.1-0.5c0.5,0,0.9,0.1,1.3,0.5c0.3,0.3,0.5,0.8,0.5,1.2v4.9h6.9c0.8,0,1.3,0.6,1.3,1.3c0,1.1-0.9,2-2,2h-6.2v11.9
		c0,2.4,0.2,3.1,2.2,3.1c1.5,0,3.4-0.5,4.3-0.9c0.4-0.2,0.9-0.2,1.3-0.1c0.7,0.3,1.2,1,1.1,1.8c-0.1,0.5-0.3,0.9-0.7,1.2
		c-1.1,0.7-3.4,1.8-6.2,1.8c-4.9,0-5.5-3-5.5-6.3V460.4z"/>
	<path class="st1" d="M126.9,445.1h-9.6c-0.5,0-1-0.2-1.4-0.7l0-0.1c-0.5-0.7-0.5-1.6,0.1-2.2c0.3-0.4,0.8-0.6,1.3-0.6h23.4
		c0.5,0,1,0.2,1.3,0.6c0.6,0.7,0.6,1.7,0,2.3c-0.3,0.4-0.8,0.6-1.3,0.6h-4.5c-2.8,0-5.2,2.1-5.2,4.6v28.4c0,0.7-0.8,1.3-1.6,1.3
		h-1.1c-0.8,0-1.4-0.6-1.4-1.3V445.1z"/>
	<path class="st1" d="M156.8,456.6c7,0,12.1,5.1,12.1,11.3c0,6.3-5.1,11.4-12.1,11.4c-7.1,0-12.1-5.1-12.1-11.4
		C144.8,461.7,149.8,456.6,156.8,456.6z M156.8,475.8c4.9,0,7.9-3.4,7.9-8c0-4.4-2.9-7.8-7.9-7.8c-5,0-7.9,3.4-7.9,7.8
		C148.9,472.4,151.8,475.8,156.8,475.8z"/>
	<path class="st1" d="M176.1,493.6c0,0.7-0.6,1.3-1.3,1.3c-1.2,0-2.2-1-2.2-2.2v-33.8c0-0.5,0.2-1,0.6-1.3c0.3-0.3,0.8-0.5,1.3-0.5
		h0.1c0.6,0,1.1,0.4,1.2,1.1l0,0.5c1.3-0.9,3.5-2.1,7.1-2.1c7.1,0,11.7,5.1,11.7,11.3c0,6.3-4.8,11.3-12.3,11.3
		c-3.1,0-5.1-0.9-6.2-1.6V493.6z M182,475.8c5.7,0,8.5-3.4,8.5-7.9c0-4.5-2.5-7.9-7.7-7.9c-4,0-6,1.9-6.6,2.4v11.4
		C176.7,474.3,178.7,475.8,182,475.8z"/>
	<path class="st1" d="M199.6,445.9c0-1.3,1.1-2.5,2.4-2.5s2.4,1.2,2.4,2.5c0,1.3-1.1,2.4-2.4,2.4S199.6,447.2,199.6,445.9z
		 M200.3,459.3c0-0.9,0.8-1.7,1.8-1.7s1.8,0.8,1.8,1.7V478c0,0.7-0.5,1.2-1.3,1.2c-1.3,0-2.3-1-2.3-2.2V459.3z"/>
	<path class="st1" d="M222.3,456.7c4.4,0,7.2,1.9,8.5,3.3c0.3,0.3,0.4,0.7,0.4,1.2l0,0.2c0,0.4-0.2,0.7-0.5,1
		c-0.3,0.3-0.8,0.5-1.3,0.4l-0.3,0c-0.4,0-0.7-0.2-0.9-0.4c-0.7-0.7-2.7-2.1-5.9-2.1c-5.4,0-8.6,3.3-8.6,7.8c0,4.6,3.3,7.9,8.5,7.9
		c3.7,0,5.6-1.9,6.4-2.7c0.3-0.3,0.6-0.5,1-0.5l0.2,0c0.5,0,0.9,0.1,1.3,0.4c0.3,0.2,0.4,0.6,0.5,0.9l0,0.1c0.1,0.5,0,0.9-0.3,1.3
		c-1.2,1.5-4.4,4-9,4c-7.3,0-12.8-4.8-12.8-11.3C209.5,461.5,215,456.7,222.3,456.7z"/>
	<path class="st1" d="M265.8,441.2c0.6-0.3,1.3-0.2,1.8,0.2c0.5,0.4,0.7,1.1,0.5,1.7l-11.6,35.5c-0.1,0.4-0.4,0.7-0.8,0.9
		c-0.5,0.3-1.2,0.3-1.7-0.1c-0.6-0.4-0.9-1.2-0.7-1.9l11.6-35.5C265.1,441.8,265.4,441.5,265.8,441.2L265.8,441.2z"/>
	<path class="st1" d="M288.8,442.9c0-0.7,0.6-1.2,1.2-1.2h12.2c7.5,0,12.4,3.9,12.4,10.1c0,3.8-2.2,6.8-5,8.4
		c3.4,1.3,6.1,4.2,6.1,8.8c0,6.2-5.2,10.5-13.7,10.5H290c-0.7,0-1.2-0.5-1.2-1.2V442.9z M302.3,476.1c6.1,0,9.5-3,9.5-7.1
		c0-4.2-3.8-6.8-9.8-6.8h-5.2c-2.4,0-4.3,1.8-4.3,4.1v8.8c0,0.5,0.4,0.9,1,0.9H302.3z M302.6,458.6c5.3,0,8-2.8,8-6.7
		c0-4.1-3-6.6-8.4-6.6h-8.7c-0.5,0-1,0.4-1,0.9v12.4H302.6z"/>
	<path class="st1" d="M330.4,456.6c7,0,12.1,5.1,12.1,11.3c0,6.3-5.1,11.4-12.1,11.4c-7.1,0-12.1-5.1-12.1-11.4
		C318.3,461.7,323.3,456.6,330.4,456.6z M330.4,475.8c4.9,0,7.9-3.4,7.9-8c0-4.4-2.9-7.8-7.9-7.8c-5,0-7.9,3.4-7.9,7.8
		C322.4,472.4,325.4,475.8,330.4,475.8z"/>
	<path class="st1" d="M346.6,460.4c-0.6-0.8-0.3-1.9,0.7-2.3c0.5-0.1,1.1-0.1,1.5,0.1l0.2,0.1c0.2,0.1,0.3,0.2,0.5,0.3l5.8,6.9
		l5.8-6.9c0.1-0.1,0.3-0.2,0.5-0.3l0.2-0.1c0.5-0.2,1-0.2,1.5-0.1c1,0.4,1.3,1.5,0.7,2.3l-6.1,7.9l6.5,8.6c0.6,0.8,0.3,1.9-0.7,2.3
		c-0.5,0.1-1.1,0.1-1.5-0.1l-0.2-0.1c-0.2-0.1-0.4-0.3-0.4-0.3l-6.2-7.6l-6.2,7.6c-0.1,0.1-0.3,0.2-0.5,0.3l-0.2,0.1
		c-0.5,0.2-1,0.2-1.5,0.1c-1-0.4-1.3-1.5-0.7-2.3l6.6-8.5L346.6,460.4z"/>
	<path class="st1" d="M369.9,443.2c0-1,0.8-1.8,1.8-1.8s1.8,0.8,1.8,1.8V478c0,0.7-0.5,1.3-1.3,1.3c-1.3,0-2.3-1-2.3-2.2V443.2z"/>
	<path class="st1" d="M379.9,459.3c0-1.2,1-2.2,2.3-2.2c0.7,0,1.3,0.6,1.3,1.3v10.3c0,4.5,2.1,6.5,6.3,6.5c4.4,0,6.7-2.1,7.2-2.6
		v-13.3c0-1.2,1-2.1,2.3-2.1c0.7,0,1.3,0.6,1.3,1.3V477c0,1-0.9,1.8-2,1.8c-0.8,0-1.2-0.7-1.2-1.1l0,0l-0.1-0.8
		c-1.3,1-3.6,2.4-7.7,2.4c-6.9,0-9.7-3.9-9.7-9.9V459.3z"/>
	<path class="st1" d="M406.7,458.2c0.4-0.3,0.8-0.5,1.3-0.5c0.7,0,1.1,0.5,1.2,1l0,0l0.1,1.1c1.4-1.2,4-2.7,8.3-2.7
		c6.9,0,9.7,4,9.7,9.9v10c0,1.2-1,2.2-2.3,2.2c-0.7,0-1.3-0.5-1.3-1.2v-10.3c0-4.5-2.1-6.5-6.3-6.5c-4.4,0-7.2,2-7.9,2.6v14.2
		c0,0.6-0.5,1.2-1.3,1.2c-1.2,0-2.2-0.9-2.2-2.1v-17.7C406.1,459,406.3,458.6,406.7,458.2z"/>
	<path class="st1" d="M444.8,456.7c4.4,0,7.2,1.9,8.5,3.3c0.3,0.3,0.4,0.7,0.4,1.2l0,0.2c0,0.4-0.2,0.7-0.5,1
		c-0.3,0.3-0.8,0.5-1.3,0.4l-0.3,0c-0.4,0-0.7-0.2-0.9-0.4c-0.7-0.7-2.7-2.1-5.9-2.1c-5.4,0-8.6,3.3-8.6,7.8c0,4.6,3.3,7.9,8.5,7.9
		c3.7,0,5.6-1.9,6.4-2.7c0.3-0.3,0.6-0.5,1-0.5l0.2,0c0.5,0,0.9,0.1,1.3,0.4c0.3,0.2,0.4,0.6,0.5,0.9l0,0.1c0.1,0.5,0,0.9-0.3,1.3
		c-1.2,1.5-4.4,4-9,4c-7.3,0-12.8-4.8-12.8-11.3C432,461.5,437.5,456.7,444.8,456.7z"/>
	<path class="st1" d="M460,441.8c0.5-0.2,0.9-0.2,1.3,0c0.4,0.2,0.7,0.5,0.8,0.9l0.1,0.2c0.1,0.2,0.1,0.4,0.1,0.6v16.4
		c1.4-1.1,3.9-2.7,8-2.7c6.4,0,9.7,3.6,9.7,9.9v11c0,0.7-0.6,1.2-1.3,1.2c-1.3,0-2.3-1-2.3-2.1v-9.4c0-4.5-2.1-6.5-6.3-6.5
		c-4.5,0-7.2,2.1-7.9,2.7v14.2c0,0.7-0.5,1.2-1.3,1.2c-1.2,0-2.2-1-2.2-2.1v-33.7c0-0.2,0-0.5,0.1-0.7l0.1-0.2
		C459.3,442.3,459.6,441.9,460,441.8z"/>
</g>
<rect x="15" y="441" class="st2" width="470" height="43.8"/>
<text transform="matrix(1 0 0 1 15.0001 479.5152)" class="st3 st4 st5">Hot Topic / Boxlunch</text>
<rect x="69.4" y="52.4" class="st6" width="361.2" height="319.3"/>
<polygon class="st7" points="431,52.9 431,371.9 71.9,371.9 "/>
<rect x="200.2" y="238.2" class="st8" width="107.7" height="76.6"/>
<polygon class="st8" points="200.2,314.8 247.9,358.4 360.9,358.4 307.9,314.8 "/>
<polygon class="st9" points="307.9,238.2 200.2,238.2 197.2,235.9 304.4,235.9 307.9,238.2 "/>
<polygon class="st9" points="200.2,314.8 200.2,314.8 197.2,235.9 200.2,238.2 "/>
<polygon class="st10" points="315.7,321.2 284.6,301.2 284.6,301.2 315.7,301.2 "/>
<polygon class="st10" points="279.2,293.1 284.6,301.2 315.7,301.2 311.5,292.7 "/>
<path class="st11" d="M298.7,281.3v15.2c-0.5,0.1-1.1,0.2-1.8,0.2c-0.8,0-1.6-0.1-2.1-0.2v-15.2H298.7z"/>
<rect x="288.9" y="275.5" transform="matrix(4.477669e-11 -1 1 4.477669e-11 7.5804 574.2391)" class="st11" width="4" height="15.6"/>
<ellipse class="st12" cx="283.1" cy="283.3" rx="0.5" ry="2"/>
<ellipse class="st13" cx="297.9" cy="329.1" rx="3.8" ry="3.5"/>
<path class="st14" d="M354,323.6c-0.1,2.9-0.5,5.7-0.9,8.5h0.4l2.1-8.5H354z"/>
<g>
	<rect x="281.9" y="301" class="st15" width="31.1" height="41.6"/>
	<polygon class="st16" points="276.5,292.9 281.9,301 313,301 308.8,292.5 	"/>
	<polygon class="st17" points="277.8,337.6 281.9,342.6 281.9,301 276.5,292.9 	"/>
	<path class="st18" d="M300.1,296.7c0,0.4-1.5,0.8-3.4,0.8c-0.5,0-0.9,0-1.3-0.1c-1.2-0.1-2-0.4-2-0.7c0-0.5,1.5-0.8,3.4-0.8
		c1,0,1.9,0.1,2.5,0.3C299.8,296.3,300.1,296.5,300.1,296.7z"/>
	<path class="st19" d="M299.4,296.4c0,0.5-1.7,0.9-4,1c-1.2-0.1-2-0.4-2-0.7c0-0.5,1.5-0.8,3.4-0.8c1,0,1.9,0.1,2.5,0.3
		C299.4,296.3,299.4,296.3,299.4,296.4z"/>
	<g>
		<circle class="st13" cx="291.4" cy="318.8" r="3.8"/>
		<polygon class="st20" points="298.3,318.8 296.5,318.8 295.6,310.4 299.3,310.4 		"/>
		<circle class="st21" cx="291.9" cy="318.3" r="3.3"/>
		<circle class="st13" cx="294.5" cy="323.9" r="3.6"/>
		<circle class="st21" cx="295.2" cy="323.6" r="3.3"/>
		<circle class="st21" cx="298.4" cy="328.9" r="3.3"/>
		<circle class="st13" cx="296.4" cy="319.7" r="3.9"/>
		<ellipse class="st13" cx="299.8" cy="324.2" rx="3.8" ry="3.3"/>
		<circle class="st21" cx="297.4" cy="318.3" r="3.3"/>
		<circle class="st21" cx="300.7" cy="323.6" r="3.3"/>
		<ellipse class="st13" cx="302.4" cy="318.2" rx="4.1" ry="3.5"/>
		<circle class="st21" cx="303.4" cy="318.3" r="3.3"/>
	</g>
</g>
<g>
	<path class="st22" d="M353.7,379h-55.4l2.6-26.5c0.5-4.7,0.3-9.4-0.4-14l-2.2-14.2h55.4l-1.1,4.2c-2.8,11.2-3.4,22.6-1.6,33.9
		L353.7,379z"/>
	<path class="st22" d="M353.7,379h-55.4l2.6-26.5c0.5-4.7,0.3-9.4-0.4-14l-2.2-14.2h55.4l-1.1,4.2c-2.8,11.2-3.4,22.6-1.6,33.9
		L353.7,379z"/>
	<ellipse class="st22" cx="326" cy="345.6" rx="16.2" ry="8.8"/>
	<path class="st22" d="M301.9,329.8c-0.4-1.9-0.8-3.7-0.9-5.6h-2.7l1.3,8.5h2.8C302.3,331.8,302.1,330.8,301.9,329.8z"/>
	<path class="st22" d="M307.9,324.2h-4.4c0.1,2,0.6,3.8,1,5.8c0.2,0.9,0.3,1.8,0.5,2.7h3.6C308.2,329.9,308,327.1,307.9,324.2z"/>
	<path class="st22" d="M314.1,330c-0.4-1.9-0.9-3.8-1-5.8v0h-2.7c0,2.9,0.2,5.7,0.6,8.5h3.5C314.5,331.8,314.3,330.9,314.1,330z"/>
	<path class="st22" d="M318.7,324.2h-2.9c0,0,0,0,0,0c0.1,2,0.6,3.9,1,5.9c0.2,0.9,0.3,1.8,0.5,2.6h1.9
		C319,329.9,318.7,327.1,318.7,324.2z"/>
	<path class="st22" d="M323.8,324.2h-2.5c0,2.9,0.3,5.7,0.5,8.5h3.2C324.3,329.9,323.9,327.1,323.8,324.2z"/>
	<path class="st22" d="M329.5,324.2h-3.2c0.1,2.9,0.6,5.7,1.1,8.5h2.7C329.6,329.9,329.5,327.1,329.5,324.2z"/>
	<path class="st22" d="M335.6,329.8c-0.3-1.9-0.7-3.7-0.8-5.6h-2.7c0,2.9,0.1,5.7,0.7,8.5h3.3C335.9,331.8,335.8,330.8,335.6,329.8z
		"/>
	<path class="st22" d="M342.8,324.2h-5.5c0.1,2,0.5,3.8,0.9,5.8c0.2,0.9,0.3,1.8,0.4,2.7h3.3C342.1,329.9,342.5,327.1,342.8,324.2z"
		/>
	<path class="st22" d="M345.4,324.2c-0.3,2.8-0.7,5.7-0.9,8.5h4.2c0.4-2.8,0.9-5.7,0.9-8.5H345.4z"/>
	<polygon class="st22" points="299.8,333.8 300,335.4 351.2,335.4 351.6,332.7 299.6,332.7 	"/>
</g>
<g>
	<path class="st23" d="M353.6,378.4h-55.4l8.4-29.7c0.5-4.7-5.4-6.2-6.1-10.8l-2.2-14.2h55.4l-1.1,4.2c-2.8,11.2-3.4,22.6-1.6,33.9
		L353.6,378.4z"/>
	<path class="st23" d="M353.6,378.4h-55.4l14.3-28.9c0.5-4.7-11.3-7-12.1-11.7l-2.2-14.2h55.4l-1.1,4.2c-2.8,11.2-3.4,22.6-1.6,33.9
		L353.6,378.4z"/>
	<ellipse class="st23" cx="325.9" cy="345" rx="16.2" ry="8.8"/>
	<path class="st23" d="M301.8,329.2c-0.4-1.9-0.8-3.7-0.9-5.6h-2.7l1.3,8.5h2.8C302.2,331.2,302,330.2,301.8,329.2z"/>
	<path class="st23" d="M307.8,323.6h-4.4c0.1,2,0.6,3.8,1,5.8c0.2,0.9,0.3,1.8,0.5,2.7h3.6C308.1,329.3,307.9,326.5,307.8,323.6z"/>
	<path class="st23" d="M314,329.4c-0.4-1.9-0.9-3.8-1-5.8v0h-2.7c0,2.9,0.2,5.7,0.6,8.5h3.5C314.4,331.2,314.2,330.3,314,329.4z"/>
	<path class="st23" d="M318.6,323.6h-2.9c0,0,0,0,0,0c0.1,2,0.6,3.9,1,5.9c0.2,0.9,0.3,1.8,0.5,2.6h1.9
		C318.9,329.3,318.6,326.5,318.6,323.6z"/>
	<path class="st23" d="M323.7,323.6h-2.5c0,2.9,0.3,5.7,0.5,8.5h3.2C324.2,329.3,323.8,326.5,323.7,323.6z"/>
	<path class="st23" d="M329.4,323.6h-3.2c0.1,2.9,0.6,5.7,1.1,8.5h2.7C329.5,329.3,329.4,326.5,329.4,323.6z"/>
	<path class="st23" d="M335.5,329.2c-0.3-1.9-0.7-3.7-0.8-5.6H332c0,2.9,0.1,5.7,0.7,8.5h3.3C335.8,331.2,335.7,330.2,335.5,329.2z"
		/>
	<path class="st23" d="M342.8,323.6h-5.5c0.1,2,0.5,3.8,0.9,5.8c0.2,0.9,0.3,1.8,0.4,2.7h3.3C342,329.3,342.4,326.4,342.8,323.6z"/>
	<path class="st23" d="M345.3,323.6c-0.3,2.8-0.7,5.7-0.9,8.5h4.2c0.4-2.8,0.9-5.7,0.9-8.5H345.3z"/>
	<polygon class="st23" points="299.7,333.1 300,334.8 351.1,334.8 351.5,332.1 299.5,332.1 	"/>
</g>
<g>
	<path class="st24" d="M299.5,332.2l54.1-8.5l-1,4.2c-1.2,4.9-2,9.8-2.4,14.8H301c-0.1-1.6-0.3-3.1-0.5-4.7l-0.5-3l-0.3-1.7
		L299.5,332.2z"/>
	<polygon class="st24" points="353.4,376.8 353.6,378.4 298.2,378.4 298.4,376.8 	"/>
	<path class="st24" d="M341.4,342.6h-31.1c2-3.6,8.2-6.3,15.5-6.3C333.3,336.3,339.5,339,341.4,342.6z"/>
	<path class="st24" d="M301.8,329.3c-0.2-1.1-0.1,0.3-0.7,1.3c-0.4,0.6-1.1,1.2-1.6,1.4l0,0l2.8,0.2
		C302.2,331.2,302,330.2,301.8,329.3z"/>
	<path class="st24" d="M307.8,323.7h-4.4c0.1,2,0.6,3.8,1,5.8c0.2,0.9,0.3,1.8,0.5,2.7h3.6C308.1,329.4,307.9,326.5,307.8,323.7z"/>
	<path class="st24" d="M314,329.5c-0.4-1.9-0.9-3.8-1-5.8v0h-2.7c0,2.9,0.2,5.7,0.6,8.5h3.5C314.4,331.3,314.2,330.4,314,329.5z"/>
	<path class="st24" d="M318.6,323.7h-2.9c0,0,0,0,0,0c0.1,2,0.6,3.9,1,5.9c0.2,0.9,0.3,1.8,0.5,2.6h1.9
		C318.9,329.3,318.6,326.5,318.6,323.7z"/>
	<path class="st24" d="M323.7,323.7h-2.5c0,2.9,0.3,5.7,0.5,8.5h3.2C324.2,329.4,323.8,326.5,323.7,323.7z"/>
	<path class="st24" d="M329.4,323.7h-3.2c0.1,2.9,0.6,5.7,1.1,8.5h2.7C329.5,329.4,329.4,326.5,329.4,323.7z"/>
	<path class="st24" d="M335.5,329.2c-0.3-1.9-0.7-3.7-0.8-5.6H332c0,2.9,0.1,5.7,0.7,8.5h3.3C335.8,331.2,335.7,330.2,335.5,329.2z"
		/>
	<path class="st24" d="M342.8,323.7h-5.5c0.1,2,0.5,3.8,0.9,5.8c0.2,0.9,0.3,1.8,0.4,2.7h3.3C342,329.3,342.4,326.5,342.8,323.7z"/>
	<path class="st24" d="M345.3,323.7c-0.3,2.8-0.7,5.7-0.9,8.5h4.2c0.4-2.8,0.9-5.7,0.9-8.5H345.3z"/>
	<polygon class="st24" points="299.7,333.2 300,334.9 351.1,334.9 351.5,332.2 299.5,332 	"/>
</g>
<g>
	<path class="st25" d="M355.6,378.4h-55.4l2.6-26.5c0.5-4.7,0.3-9.4-0.4-14l-2.2-14.2h55.4l-1.1,4.2c-2.8,11.2-3.4,22.6-1.6,33.9
		L355.6,378.4z"/>
	<ellipse class="st26" cx="327.8" cy="345" rx="16.2" ry="8.8"/>
	<path class="st14" d="M303.7,329.2c-0.4-1.9-0.8-3.7-0.9-5.6h-2.7l1.3,8.5h2.8C304.1,331.2,303.9,330.2,303.7,329.2z"/>
	<path class="st14" d="M309.8,323.6h-4.4c0.1,2,0.6,3.8,1,5.8c0.2,0.9,0.3,1.8,0.5,2.7h3.6C310,329.3,309.8,326.5,309.8,323.6z"/>
	<path class="st14" d="M316,329.4c-0.4-1.9-0.9-3.8-1-5.8v0h-2.7c0,2.9,0.2,5.7,0.6,8.5h3.5C316.3,331.2,316.2,330.3,316,329.4z"/>
	<path class="st14" d="M320.5,323.6h-2.9c0,0,0,0,0,0c0.1,2,0.6,3.9,1,5.9c0.2,0.9,0.3,1.8,0.5,2.6h1.9
		C320.8,329.3,320.5,326.5,320.5,323.6z"/>
	<path class="st14" d="M325.6,323.6h-2.5c0,2.9,0.3,5.7,0.5,8.5h3.2C326.2,329.3,325.7,326.5,325.6,323.6z"/>
	<path class="st14" d="M331.4,323.6h-3.2c0.1,2.9,0.6,5.7,1.1,8.5h2.7C331.5,329.3,331.4,326.5,331.4,323.6z"/>
	<path class="st14" d="M337.5,329.2c-0.3-1.9-0.7-3.7-0.8-5.6h-2.7c0,2.9,0.1,5.7,0.7,8.5h3.3C337.8,331.2,337.7,330.2,337.5,329.2z
		"/>
	<path class="st14" d="M344.7,323.6h-5.5c0.1,2,0.5,3.8,0.9,5.8c0.2,0.9,0.3,1.8,0.4,2.7h3.3C344,329.3,344.4,326.4,344.7,323.6z"/>
	<path class="st14" d="M347.2,323.6c-0.3,2.8-0.7,5.7-0.9,8.5h4.2c0.4-2.8,0.9-5.7,0.9-8.5H347.2z"/>
	<polygon class="st27" points="301.6,333.1 301.9,334.8 353.1,334.8 353.4,332.1 301.5,332.1 	"/>
</g>
<g>
	<g>
		<path class="st28" d="M282.2,317.1c0.3,2.1-0.2,4.2-1.2,6.1l4.9,38.2l-52.3,6.8c0,0,19.4-54,20.2-47.6c0.1,0.6,0.1,1.2,0.1,1.8
			l0.3,0c-0.1-0.5-0.2-1-0.3-1.5c0-0.1,0-0.1,0-0.2C253.2,314.2,281.4,310.7,282.2,317.1z"/>
		<path class="st28" d="M254.2,322.5c0.1,0.5,0.2,0.9,0.3,1.4l-0.3,0c0-0.5,0-1.1-0.1-1.6c-0.1-0.6-0.2-1.1-0.4-1.6
			c0.1,0,0.2,0,0.3,0c0,0.5,0,1.1,0,1.7C254.1,322.4,254.1,322.4,254.2,322.5z"/>
		<path class="st28" d="M280.3,319.1c0.3,2-0.2,3.9-1.1,5.6l4.6,35.3l-48.3,6.2l-4.5-35c-1.6-1.5-2.7-3.5-2.9-5.6
			c-0.8-5.9,4.5-11.5,11.7-12.4c6.5-0.8,12.4,2.4,14.1,7.4c0.2,0.5,0.3,1.1,0.4,1.6c0.1,0.5,0.1,0.7,0,0.2c0-0.1,0-0.1,0-0.2
			c-0.1-0.6-0.1-1.1,0-1.7c0.4-5.2,5.3-9.7,11.7-10.5C273,309.2,279.5,313.2,280.3,319.1z"/>
	</g>
	<path class="st28" d="M254.7,326.9c2-0.5,5.3-0.2,9-4c2.9-2.9,5.4-8,7.6-9.3c1-0.6,2.4,5.5,5.8,5.4c1.2,0-0.5-15.1-0.5-15.1
		s3.2,1.2,4.1,1.7c0.8,0.5,6.4,3.6,7.2,8.4c1.3,6.9-5,5.1,1.3,12.2c6.5,7.3-4,10.9,1.6,14.8c4.6,3.2,1.5,5.3,4.4,8.5
		c3.2,3.4,0.2,9.8-1,12.4c-0.7,1.5-3.6,7.5-10.7,11.3c-4.4,2.3-4.7,0.8-15.5,3.8c-8.4,2.3-10.5,3.8-15.9,3.9c-1.8,0-2-0.2-9.3-1.4
		c-14.1-2.3-9.5-3.8-11.3-5.8c-2.6-2.9-5-6.1-2.5-9.2c2.7-3.4-2.8-3.1,2.4-7.2c2.3-1.8,2.3-3.6,1.1-6c-1.5-2.9,0.2-1.5-5.1-5.7
		C225,343.4,250.4,327.9,254.7,326.9z"/>
	<g>
		<path class="st28" d="M283,323.5c0.3,2.1-0.2,4.2-1.2,6.1l4.9,38.2l-52.3,6.8l-4.9-37.9c-1.7-1.7-2.9-3.7-3.2-6.1
			c-0.8-6.4,4.8-12.4,12.6-13.4c7.8-1,14.8,3.4,15.6,9.8c0.1,0.6,0.1,1.2,0.1,1.8l0.3,0c-0.1-0.5-0.2-1-0.3-1.5c0-0.1,0-0.1,0-0.2
			c-0.7-6.3,4.9-12.2,12.6-13.2C275.2,312.7,282.2,317.1,283,323.5z"/>
		<path class="st28" d="M255,328.9c0.1,0.5,0.2,0.9,0.3,1.4l-0.3,0c0-0.5,0-1.1-0.1-1.6c-0.1-0.6-0.2-1.1-0.4-1.6c0.1,0,0.2,0,0.3,0
			c0,0.5,0,1.1,0,1.7C255,328.8,255,328.9,255,328.9z"/>
		<path class="st28" d="M281.1,325.6c0.3,2-0.2,3.9-1.1,5.6l4.6,35.3l-48.3,6.2l-4.5-35c-1.6-1.5-2.7-3.5-2.9-5.6
			c-0.8-5.9,4.5-11.5,11.7-12.4c6.5-0.8,12.4,2.4,14.1,7.4c0.2,0.5,0.3,1.1,0.4,1.6c0.1,0.5,0.1,0.7,0,0.2c0-0.1,0-0.1,0-0.2
			c-0.1-0.6-0.1-1.1,0-1.7c0.4-5.2,5.3-9.7,11.7-10.5C273.9,315.6,280.3,319.6,281.1,325.6z"/>
	</g>
</g>
<g class="st29">
	<g class="st30">
		<path class="st28" d="M389.9,316.5c0.3,2.1-0.2,4.2-1.2,6.1l4.9,38.2l-52.3,6.8l-4.9-37.9c-1.7-1.7-2.9-3.7-3.2-6.1
			c-0.8-6.4,4.8-12.4,12.6-13.4c7.8-1,14.8,3.4,15.6,9.8c0.1,0.6,0.1,1.2,0.1,1.8l0.3,0c-0.1-0.5-0.2-1-0.3-1.5c0-0.1,0-0.1,0-0.2
			c-0.7-6.3,4.9-12.2,12.6-13.2C382.1,305.7,389.1,310.1,389.9,316.5z"/>
		<path class="st28" d="M361.9,321.9c0.1,0.5,0.2,0.9,0.3,1.4l-0.3,0c0-0.5,0-1.1-0.1-1.6c-0.1-0.6-0.2-1.1-0.4-1.6
			c0.1,0,0.2,0,0.3,0c0,0.5,0,1.1,0,1.7C361.9,321.8,361.9,321.8,361.9,321.9z"/>
		<path class="st28" d="M388,318.5c0.3,2-0.2,3.9-1.1,5.6l4.6,35.3l-48.3,6.2l-4.5-35c-1.6-1.5-2.7-3.5-2.9-5.6
			c-0.8-5.9,4.5-11.5,11.7-12.4c6.5-0.8,12.4,2.4,14.1,7.4c0.2,0.5,0.3,1.1,0.4,1.6c0.1,0.5,0.1,0.7,0,0.2c0-0.1,0-0.1,0-0.2
			c-0.1-0.6-0.1-1.1,0-1.7c0.4-5.2,5.3-9.7,11.7-10.5C380.8,308.6,387.2,312.6,388,318.5z"/>
	</g>
	<path class="st31" d="M344.3,326.5c-0.5-4.9-0.9-3-0.4-5.7c0.4-2.3-9.2-9.2-7.8-10.2c2.2-1.6,6.4-3.5,9.7-2.3
		c1.8,0.7,1.7,1.7,3.7,3.6c2.5,2.4,7.5,5.4,11.9,4.4c2-0.5,3.9-2.3,7.6-6.1c2.9-2.9,3.2-3.9,5.5-5.2c1-0.6,3.5-2,6.9-2
		c3.4-0.1,5.9,1.2,7.3,2c0.8,0.5,6.4,3.6,7.2,8.4c1.3,6.9-5,5.1,1.3,12.2c6.5,7.3-4,10.9,1.6,14.8c4.6,3.2,1.5,5.3,4.4,8.5
		c3.2,3.4,0.2,9.8-1,12.4c-0.7,1.5-3.6,7.5-10.7,11.3c-4.4,2.3-4.7,0.8-15.5,3.8c-8.4,2.3-10.5,3.8-15.9,3.9c-1.8,0-2-0.2-9.3-1.4
		c-14.1-2.3-9.5-3.8-11.3-5.8c-2.6-2.9-5-6.1-2.5-9.2c2.7-3.4-2.8-3.1,2.4-7.2c2.3-1.8,2.3-3.6,1.1-6c-1.5-2.9,0.2-1.5-5.1-5.7
		c-2.7-2.1,1.3-3.8,2.2-7.4c0.7-2.6,5.5-1.2,5.8-5.3C343.6,331.1,344.4,327,344.3,326.5z"/>
	<g class="st30">
		<path class="st28" d="M390.7,322.9c0.3,2.1-0.2,4.2-1.2,6.1l4.9,38.2l-52.3,6.8l-4.9-37.9c-1.7-1.7-2.9-3.7-3.2-6.1
			c-0.8-6.4,4.8-12.4,12.6-13.4c7.8-1,14.8,3.4,15.6,9.8c0.1,0.6,0.1,1.2,0.1,1.8l0.3,0c-0.1-0.5-0.2-1-0.3-1.5c0-0.1,0-0.1,0-0.2
			c-0.7-6.3,4.9-12.2,12.6-13.2C382.9,312.1,389.9,316.5,390.7,322.9z"/>
		<path class="st28" d="M362.7,328.3c0.1,0.5,0.2,0.9,0.3,1.4l-0.3,0c0-0.5,0-1.1-0.1-1.6c-0.1-0.6-0.2-1.1-0.4-1.6
			c0.1,0,0.2,0,0.3,0c0,0.5,0,1.1,0,1.7C362.7,328.2,362.7,328.3,362.7,328.3z"/>
		<path class="st28" d="M388.8,325c0.3,2-0.2,3.9-1.1,5.6l4.6,35.3l-48.3,6.2l-4.5-35c-1.6-1.5-2.7-3.5-2.9-5.6
			c-0.8-5.9,4.5-11.5,11.7-12.4c6.5-0.8,12.4,2.4,14.1,7.4c0.2,0.5,0.3,1.1,0.4,1.6c0.1,0.5,0.1,0.7,0,0.2c0-0.1,0-0.1,0-0.2
			c-0.1-0.6-0.1-1.1,0-1.7c0.4-5.2,5.3-9.7,11.7-10.5C381.6,315,388.1,319,388.8,325z"/>
	</g>
</g>
<g class="st29">
	<g class="st30">
		<path class="st24" d="M390,316.5c0.3,2.1-0.2,4.2-1.2,6.1l4.9,38.2l-52.3,6.8l-4.9-37.9c-1.7-1.7,24.3-16.2,25.1-9.8
			c0.1,0.6,0.1,1.2,0.1,1.8l0.3,0c-0.1-0.5-0.2-1-0.3-1.5c0-0.1,0-0.1,0-0.2C361,313.6,389.2,310.1,390,316.5z"/>
		<path class="st24" d="M362,321.9c0.1,0.5,0.2,0.9,0.3,1.4l-0.3,0c0-0.5,0-1.1-0.1-1.6c-0.1-0.6-0.2-1.1-0.4-1.6c0.1,0,0.2,0,0.3,0
			c0,0.5,0,1.1,0,1.7C361.9,321.8,362,321.8,362,321.9z"/>
		<path class="st24" d="M388.1,318.5c0.3,2-0.2,3.9-1.1,5.6l4.6,35.3l-48.3,6.2l-4.5-35c-1.6-1.5-2.7-3.5-2.9-5.6
			c-0.8-5.9,4.5-11.5,11.7-12.4c6.5-0.8,12.4,2.4,14.1,7.4c0.2,0.5,0.3,1.1,0.4,1.6c0.1,0.5,0.1,0.7,0,0.2c0-0.1,0-0.1,0-0.2
			c-0.1-0.6-0.1-1.1,0-1.7c0.4-5.2,5.3-9.7,11.7-10.5C380.8,308.6,387.3,312.6,388.1,318.5z"/>
	</g>
	<path class="st32" d="M343.1,323.9c-0.5-4.9,4.4-1.2,4.8-3.9c0.4-2.3-7.2,2.2-5.8,1.2c2.2-1.6,0.7-5.8,4-4.5
		c1.8,0.7,1.4-6.7,3.5-4.8c2.5,2.4,8.1,9.9,12.4,8.9c2-0.5,5.5,2,9.2-1.8c2.9-2.9,1.4-2.7,3.6-3.9c1-0.6,9.7-1.4,13.1-1.5
		c3.4-0.1,1.7-3,1.7-8.2c0-0.9,5.6,3.1,6.4,8c1.3,6.9-5,5.1,1.3,12.2c6.5,7.3-4.2,11.1,1.6,14.8c0.6,0.4,1.3,1.1,1.7,1.6
		c0.1,0.1-0.2,0-0.5,0c-1.9,0.1-0.7-0.2-1.5-0.1c-2.9,0.3-10.3-0.8-8.3,1.4c3.2,3.4,13.1,15.4,11.9,18c-0.7,1.5-3.6,7.5-10.7,11.3
		c-4.4,2.3-4.7,0.8-15.5,3.8c-8.4,2.3-10.5,3.8-15.9,3.9c-1.8,0-2-0.2-9.3-1.4c-14.1-2.3-9.5-3.8-11.3-5.8c-2.6-2.9-5-6.1-2.5-9.2
		c2.7-3.4-2.8-3.1,2.4-7.2c2.3-1.8,2.3-3.6,1.1-6c-1.5-2.9,0.2-1.5-5.1-5.7c-2.7-2.1,4.5-6,5.4-9.7c0.7-2.6,5.6-0.4,5.9-4.6
		C346.9,329.5,343.2,324.5,343.1,323.9z"/>
	<g class="st30">
		<path class="st24" d="M390.8,322.9c0.3,2.1-0.2,4.2-1.2,6.1l4.9,38.2l-52.3,6.8l-4.9-37.9c-1.7-1.7-2.9-3.7-3.2-6.1
			c-0.8-6.4,4.8-12.4,12.6-13.4c7.8-1,14.8,3.4,15.6,9.8c0.1,0.6,0.1,1.2,0.1,1.8l0.3,0c-0.1-0.5-0.2-1-0.3-1.5c0-0.1,0-0.1,0-0.2
			c-0.7-6.3,4.9-12.2,12.6-13.2C383,312.1,390,316.5,390.8,322.9z"/>
		<path class="st24" d="M362.8,328.3c0.1,0.5,0.2,0.9,0.3,1.4l-0.3,0c0-0.5,0-1.1-0.1-1.6c-0.1-0.6-0.2-1.1-0.4-1.6
			c0.1,0,0.2,0,0.3,0c0,0.5,0,1.1,0,1.7C362.8,328.2,362.8,328.3,362.8,328.3z"/>
		<path class="st24" d="M388.9,325c0.3,2-0.2,3.9-1.1,5.6l4.6,35.3l-48.3,6.2l-4.5-35c-1.6-1.5-2.7-3.5-2.9-5.6
			c-0.8-5.9,4.5-11.5,11.7-12.4c6.5-0.8,12.4,2.4,14.1,7.4c0.2,0.5,0.3,1.1,0.4,1.6c0.1,0.5,0.1,0.7,0,0.2c0-0.1,0-0.1,0-0.2
			c-0.1-0.6-0.1-1.1,0-1.7c0.4-5.2,5.3-9.7,11.7-10.5C381.7,315,388.2,319,388.9,325z"/>
	</g>
</g>
<g>
	<g>
		<path class="st33" d="M281,318c0.3,2-0.2,4-1.1,5.8l4.7,36.3l-49.6,6.4l-4.6-35.9c-1.6-1.6-2.7-3.6-3-5.8
			c-0.8-6.1,4.6-11.8,12-12.8c7.4-1,14,3.2,14.8,9.3c0.1,0.6,0.1,1.1,0.1,1.7l0.3,0c-0.1-0.5-0.2-0.9-0.3-1.4c0-0.1,0-0.1,0-0.2
			c-0.6-6,4.7-11.6,12-12.5C273.6,307.8,280.3,311.9,281,318z"/>
		<path class="st33" d="M254.5,323.1c0.1,0.4,0.2,0.9,0.3,1.3l-0.2,0c0-0.5,0-1-0.1-1.5c-0.1-0.5-0.2-1.1-0.3-1.6c0.1,0,0.2,0,0.3,0
			c0,0.5,0,1.1,0,1.6C254.4,323,254.5,323.1,254.5,323.1z"/>
		<path class="st34" d="M279.2,319.9c0.2,1.9-0.1,3.7-1,5.3l4.3,33.5l-45.8,5.9l-4.3-33.2c-1.5-1.4-2.5-3.3-2.8-5.4
			c-0.7-5.6,4.2-10.9,11.1-11.8c6.2-0.8,11.8,2.3,13.4,7c0.2,0.5,0.3,1,0.3,1.6c0.1,0.5,0.1,0.6,0,0.2c0-0.1,0-0.1,0-0.2
			c-0.1-0.5-0.1-1.1,0-1.6c0.4-4.9,5-9.2,11.1-10C272.4,310.5,278.5,314.3,279.2,319.9z"/>
	</g>
	<path class="st35" d="M228.5,325.3c-0.4-4.7-2.6-5.7-2.2-8.2c0.4-2.2,2.4-3.7,3.7-4.6c2.1-1.5,6.1-3.3,9.2-2.2
		c1.7,0.6,1.6,1.6,3.5,3.4c2.4,2.2,7.1,5.1,11.2,4.1c1.9-0.4,3.7-2.2,7.2-5.8c2.7-2.8,3.1-3.7,5.2-4.9c0.9-0.5,3.3-1.9,6.6-1.9
		c3.3-0.1,5.6,1.2,6.9,1.9c0.8,0.4,6,3.4,6.9,8c1.2,6.6-4.8,4.9,1.2,11.6c6.2,6.9-3.8,10.3,1.6,14c4.4,3,1.4,5,4.2,8
		c3,3.3,0.2,9.3-1,11.8c-0.7,1.5-3.4,7.1-10.2,10.7c-4.1,2.2-4.5,0.8-14.7,3.6c-8,2.2-9.9,3.6-15.1,3.7c-1.8,0-1.9-0.2-8.8-1.3
		c-13.4-2.2-9-3.6-10.7-5.5c-2.5-2.8-4.7-5.8-2.4-8.7c2.5-3.2-2.7-2.9,2.3-6.8c2.2-1.8,2.2-3.4,1-5.7c-1.4-2.8,0.2-1.4-4.8-5.4
		c-2.5-2-4.8-5.9-3.9-9.4c0.6-2.5,2.7-4,3-7.9C228.6,326.6,228.5,325.8,228.5,325.3z"/>
	<g>
		<path class="st33" d="M281.8,324.1c0.3,2-0.2,4-1.1,5.8l4.7,36.3l-49.6,6.4l-4.6-35.9c-1.6-1.6-2.7-3.6-3-5.8
			c-0.8-6.1,4.6-11.8,12-12.8c7.4-1,14,3.2,14.8,9.3c0.1,0.6,0.1,1.1,0.1,1.7l0.3,0c-0.1-0.5-0.2-0.9-0.3-1.4c0-0.1,0-0.1,0-0.2
			c-0.6-6,4.7-11.6,12-12.5C274.4,313.9,281,318,281.8,324.1z"/>
		<path class="st33" d="M255.2,329.3c0.1,0.4,0.2,0.9,0.3,1.3l-0.2,0c0-0.5,0-1-0.1-1.5c-0.1-0.5-0.2-1.1-0.3-1.6c0.1,0,0.2,0,0.3,0
			c0,0.5,0,1.1,0,1.6C255.2,329.1,255.2,329.2,255.2,329.3z"/>
		<path class="st34" d="M280,326.1c0.2,1.9-0.1,3.7-1,5.3l4.3,33.5l-45.8,5.9l-4.3-33.2c-1.5-1.4-2.5-3.3-2.8-5.4
			c-0.7-5.6,4.2-10.9,11.1-11.8c6.2-0.8,11.8,2.3,13.4,7c0.2,0.5,0.3,1,0.3,1.6c0.1,0.5,0.1,0.6,0,0.2c0-0.1,0-0.1,0-0.2
			c-0.1-0.5-0.1-1.1,0-1.6c0.4-4.9,5-9.2,11.1-10C273.2,316.6,279.3,320.4,280,326.1z"/>
	</g>
</g>
<g>
	<polygon class="st9" points="247.9,358.4 247.9,392.1 200.2,349.5 200.2,314.8 247.9,358.4 	"/>
	<g>
		<rect x="247.9" y="358.4" class="st9" width="113" height="33.7"/>
		<g>
			<rect x="278.4" y="369.7" class="st36" width="64.9" height="14.2"/>
			<circle class="st37" cx="283.2" cy="378" r="2.7"/>
			<circle class="st37" cx="338.3" cy="378" r="2.7"/>
		</g>
	</g>
</g>
<polygon class="st10" points="188.1,235.9 192.1,354.4 212.3,372.3 225.7,372.3 200.2,349.5 200.3,312.3 197.2,235.9 "/>
<polygon class="st0" points="247.9,392.1 233.7,392.1 212.3,372.3 225.7,372.3 "/>
<rect x="16.1" y="62.6" class="st6" width="19.3" height="138.7"/>
<rect x="103.3" y="62.6" class="st0" width="19.3" height="138.7"/>
<rect x="86.3" y="98.8" transform="matrix(1.726803e-11 -1 1 1.726803e-11 -29.5538 221.4921)" class="st0" width="19.3" height="53.4"/>
<rect x="33.2" y="98.8" transform="matrix(1.726803e-11 -1 1 1.726803e-11 -82.6921 168.3539)" class="st6" width="19.3" height="53.4"/>
<rect x="185.9" y="73.3" class="st0" width="19.3" height="128"/>
<rect x="421.3" y="159.2" class="st10" width="19.3" height="128"/>
<rect x="430.6" y="159.2" class="st7" width="10" height="128"/>
<rect x="185.3" y="19" transform="matrix(3.621110e-11 -1 1 3.621110e-11 122.1949 266.7775)" class="st0" width="18.4" height="106.5"/>
<rect x="453.9" y="255.5" transform="matrix(1.533535e-11 -1 1 1.533535e-11 185.1338 741.1135)" class="st7" width="18.4" height="45"/>
<polygon class="st38" points="189.2,267.6 198.1,258.4 197.2,235.9 188.1,235.9 "/>
<g>
	<rect x="332.6" y="159.2" class="st10" width="22.2" height="128"/>
	<path class="st10" d="M406,193.3c0,10.7-5.4,20.3-13.9,26.8c-7,5.3-16.1,8.6-26.1,8.6c-3.9,0-7.7-0.5-11.3-1.4
		c-7.8-2-14.6-6.1-19.6-11.6c-0.9-1-1.8-2-2.6-3.1V174c5.1-7,12.6-14.7,22.2-14.9c10.5-0.2,7.5,0,11.5,0
		C388.3,159.2,406,173.7,406,193.3z"/>
	<path class="st10" d="M405.5,248.1c0,21.6-20.1,39.1-44.9,39.1c-2,0-3.7,0.1-5.8,0c-8.4-0.4-16-4.2-22.2-8.5v-61.1
		c0.8-0.6,1.7-1.1,2.6-1.7c5.7-3.4,12.4-5.8,19.6-6.6c1.9-0.2,3.8-0.3,5.8-0.3c12.3,0,23.5,4.3,31.6,11.3
		C400.4,227.3,405.5,237.2,405.5,248.1z"/>
	<g>
		<path class="st7" d="M385.5,187.7c0,5.4-2.7,10.2-6.9,13.4c-3.5,2.7-8,4.3-13,4.3c-2,0,0,0-5.7,0h-11.1v-34.8h11.1
			c5.3-0.1,3.8,0,5.7,0C376.6,170.6,385.5,177.9,385.5,187.7z"/>
	</g>
	<g>
		<path class="st7" d="M385.5,247.8c0,5.4-2.7,10.2-6.9,13.4c-3.5,2.7-8,4.3-13,4.3c-2,0,0,0-5.7,0h-11.1v-34.8h11.1
			c5.3-0.1,3.8,0,5.7,0C376.6,230.7,385.5,238,385.5,247.8z"/>
	</g>
</g>
</svg>
