<?xml version="1.0" encoding="utf-8"?>
<!-- Generator: Adobe Illustrator 23.0.2, SVG Export Plug-In . SVG Version: 6.00 Build 0)  -->
<svg version="1.1" xmlns="http://www.w3.org/2000/svg" xmlns:xlink="http://www.w3.org/1999/xlink" x="0px" y="0px"
	 viewBox="0 0 500 500" style="enable-background:new 0 0 500 500;" xml:space="preserve">
<style type="text/css">
	.st0{fill:#A1BBDD;}
	.st1{fill:none;}
	.st2{fill:#FFFFFF;}
	.st3{font-family:'Febrero-Regular';}
	.st4{font-size:39px;}
	.st5{fill:#869CB4;}
</style>
<g id="Color_Background">
	<rect x="-6.9" y="-4.7" class="st0" width="511.5" height="511.5"/>
</g>
<g id="Text">
</g>
<g id="Sparkles">
	<g>
		<rect x="62.2" y="231.7" class="st1" width="313.3" height="84.2"/>
		<text transform="matrix(1 0 0 1 63.2129 256.7343)"><tspan x="0" y="0" class="st2 st3 st4">More magical content</tspan><tspan x="60.9" y="46.8" class="st2 st3 st4">coming soon!</tspan></text>
		<polygon class="st5" points="380.7,166 396.2,189.6 377,171.3 373.6,200.8 370.3,172.2 351.9,189.6 367.5,166 332.3,161.9 
			367.6,157.8 351.3,133 370.3,151 374.1,103.4 377.9,151 396.8,133 380.5,157.8 415.9,161.9 		"/>
		<polygon class="st2" points="375.4,166 390.9,189.6 371.7,171.3 368.3,200.8 365,172.2 346.7,189.6 362.2,166 327,161.9 
			362.3,157.8 346,133 365,151 368.8,103.4 372.6,151 391.6,133 375.3,157.8 410.6,161.9 		"/>
		<g id="Layer_21_2_">
			<circle class="st5" cx="431.9" cy="316.1" r="5.9"/>
			<circle class="st5" cx="287.2" cy="375.4" r="5.9"/>
			<circle class="st5" cx="411.9" cy="241" r="5.9"/>
			<circle class="st5" cx="414.4" cy="297.5" r="5.9"/>
			<path class="st5" d="M431.9,370.1c-12.8,0.8-23.3,9.8-26.3,21.8c-3-11.8-13.1-20.7-25.5-21.8l0.1-0.1
				c12.8-0.8,23.3-9.8,26.3-21.9c2.9,11.7,13,20.6,25.3,21.8L431.9,370.1z"/>
			<path class="st5" d="M336.9,386c-6.2,0.4-11.3,4.8-12.8,10.6c-1.4-5.7-6.4-10-12.4-10.6l0,0c6.2-0.4,11.3-4.8,12.8-10.6
				C326,381.1,330.9,385.4,336.9,386L336.9,386z"/>
			<path class="st5" d="M263.6,386c-4.8,0.3-8.7,3.7-9.8,8.1c-1.1-4.4-4.9-7.7-9.5-8.1l0,0c4.8-0.3,8.7-3.7,9.8-8.2
				C255.2,382.2,259,385.5,263.6,386L263.6,386z"/>
			<path class="st5" d="M437.7,272.7c-7.1,0.4-12.9,5.5-14.6,12.1c-1.6-6.5-7.3-11.5-14.2-12.1l0,0c7.1-0.4,13-5.5,14.6-12.1
				C425.2,267.1,430.8,272,437.7,272.7L437.7,272.7z"/>
		</g>
		<g id="Layer_21_1_">
			<circle class="st2" cx="426.6" cy="316.1" r="5.9"/>
			<circle class="st2" cx="281.9" cy="375.4" r="5.9"/>
			<circle class="st2" cx="406.6" cy="241" r="5.9"/>
			<circle class="st2" cx="409.1" cy="297.5" r="5.9"/>
			<path class="st2" d="M426.6,370.1c-12.8,0.8-23.3,9.8-26.3,21.8c-3-11.8-13.1-20.7-25.5-21.8l0.1-0.1
				c12.8-0.8,23.3-9.8,26.3-21.9c2.9,11.7,13,20.6,25.3,21.8L426.6,370.1z"/>
			<path class="st2" d="M331.6,386c-6.2,0.4-11.3,4.8-12.8,10.6c-1.4-5.7-6.4-10-12.4-10.6l0,0c6.2-0.4,11.3-4.8,12.8-10.6
				C320.7,381.1,325.6,385.4,331.6,386L331.6,386z"/>
			<path class="st2" d="M258.3,386c-4.8,0.3-8.7,3.7-9.8,8.1c-1.1-4.4-4.9-7.7-9.5-8.1l0,0c4.8-0.3,8.7-3.7,9.8-8.2
				C249.9,382.2,253.7,385.5,258.3,386L258.3,386z"/>
			<path class="st2" d="M432.4,272.7c-7.1,0.4-12.9,5.5-14.6,12.1c-1.6-6.5-7.3-11.5-14.2-12.1l0,0c7.1-0.4,13-5.5,14.6-12.1
				C419.9,267.1,425.5,272,432.4,272.7L432.4,272.7z"/>
		</g>
	</g>
</g>
</svg>
