<?xml version="1.0" encoding="utf-8"?>
<!-- Generator: Adobe Illustrator 23.0.2, SVG Export Plug-In . SVG Version: 6.00 Build 0)  -->
<svg version="1.1" id="Layer_1" xmlns="http://www.w3.org/2000/svg" xmlns:xlink="http://www.w3.org/1999/xlink" x="0px" y="0px"
	 viewBox="0 0 500 500" style="enable-background:new 0 0 500 500;" xml:space="preserve">
<style type="text/css">
	.st0{fill:#A3BDD5;}
	.st1{fill:#5176AD;}
	.st2{fill:#3A5773;}
</style>
<rect x="571" y="159.7" class="st0" width="84.1" height="84.1"/>
<rect x="571" y="263.3" class="st1" width="84.1" height="84.1"/>
<rect x="571" y="366.9" class="st2" width="84.1" height="84.1"/>
<g>
	<path class="st2" d="M254,22.7c-31.5,0-57.1,79.4-57.1,177.3c0,97.9,25.5,177.3,57.1,177.3c31.5,0,57.1-79.4,57.1-177.3
		C311,102.1,285.5,22.7,254,22.7z M254,341c-19.1,0-34.6-63.2-34.6-141.1c0-77.9,15.5-141.1,34.6-141.1c19.1,0,34.6,63.2,34.6,141.1
		C288.6,277.9,273.1,341,254,341z"/>
	<rect x="220.9" y="377.2" class="st2" width="66.1" height="100.1"/>
	<rect x="228.7" y="389" class="st0" width="50.5" height="76.5"/>
	<ellipse class="st1" cx="209.2" cy="196.8" rx="24.8" ry="49.2"/>
	<ellipse class="st0" cx="209.2" cy="196.8" rx="20.3" ry="40.2"/>
	<path class="st1" d="M224.9,190.7c0,2.1-1.1,3.9-2.9,5.1l-12.8,15.5L194.8,194l0.2,0c-1-1.1-1.6-2.5-1.6-4c0-3.7,3.6-6.7,8.1-6.7
		c3.7,0,6.9,2.1,7.8,4.9c1.2-2.5,4.1-4.3,7.5-4.3C221.3,184.1,224.9,187.1,224.9,190.7z"/>
	<polygon class="st1" points="213.4,170.6 209.5,181.6 205,171.8 208.8,160.8 	"/>
	<polygon class="st1" points="213.4,223 209.5,234 205,224.2 208.8,213.2 	"/>
	<circle class="st2" cx="201.4" cy="211.3" r="2.8"/>
	<circle class="st2" cx="215.7" cy="178.8" r="2.8"/>
	<g>
		<circle class="st1" cx="291.5" cy="281.6" r="24.1"/>
		<polygon class="st0" points="303.1,299.1 291.1,292.5 279,298.6 281.5,285.3 272,275.6 285.5,273.9 291.8,261.8 297.6,274.1 
			311,276.4 301,285.7 		"/>
		<polygon class="st2" points="295.7,274.2 291.2,285 287.3,275 291.7,264.2 		"/>
		<polygon class="st2" points="289.1,282.6 289.7,291.5 285.1,284.8 284.5,275.9 		"/>
		<polygon class="st2" points="293.4,282.7 293.5,291.7 297.6,284.7 297.5,275.8 		"/>
		<circle class="st0" cx="301.6" cy="269.2" r="1.8"/>
		<circle class="st0" cx="281.6" cy="269.2" r="1.8"/>
		<circle class="st0" cx="291.5" cy="299" r="1.8"/>
		<circle class="st0" cx="307.1" cy="287.1" r="1.8"/>
		<circle class="st0" cx="275.4" cy="286.1" r="1.8"/>
	</g>
</g>
</svg>
