<?xml version="1.0" encoding="utf-8"?>
<!-- Generator: Adobe Illustrator 23.0.2, SVG Export Plug-In . SVG Version: 6.00 Build 0)  -->
<svg version="1.1" id="Layer_1" xmlns="http://www.w3.org/2000/svg" xmlns:xlink="http://www.w3.org/1999/xlink" x="0px" y="0px"
	 viewBox="0 0 500 500" style="enable-background:new 0 0 500 500;" xml:space="preserve">
<style type="text/css">
	.st0{fill:#EAEBEC;}
	.st1{fill:#8FACD4;}
	.st2{fill:#738FB1;}
	.st3{fill:#D1D0D0;}
	.st4{fill:#D7D7D8;}
	.st5{fill:#CECDCD;}
	.st6{fill:#FFFFFF;}
	.st7{fill:#869CB3;}
	.st8{fill:none;}
	.st9{display:none;fill:#262825;}
	.st10{font-family:'Febrero-Regular';}
	.st11{font-size:60px;}
	.st12{fill:#262825;}
</style>
<g>
	<path class="st0" d="M371.3,286.6v97.3c0,6.8-5.6,12.4-12.4,12.4H54c-6.8,0-12.4-5.6-12.4-12.4v-97.3c0-6.8,5.6-12.4,12.4-12.4
		h304.9C365.7,274.2,371.3,279.8,371.3,286.6z"/>
	<path class="st0" d="M354.7,254.4H53.7c-6.6,0-12-5.4-12-12V17.8c0-6.6,5.4-12,12-12h301.1c6.6,0,12,5.4,12,12v224.6
		C366.7,249,361.3,254.4,354.7,254.4z"/>
	<path class="st1" d="M327.4,50.1V210c0,6.8-5.6,12.4-12.4,12.4H93.4c-6.8,0-12.4-5.6-12.4-12.4V50.1c0-6.8,5.6-12.4,12.4-12.4H315
		c3.5,0,6.7,1.5,9,3.9C326.1,43.9,327.4,46.9,327.4,50.1z"/>
	<path class="st2" d="M327.4,50.1V210c0,6.8-5.6,12.4-12.4,12.4H122.9L324,41.7C326.1,43.9,327.4,46.9,327.4,50.1z"/>
	<path class="st3" d="M66.7,298H53.4c-1.7,0-3.1-1.4-3.1-3.1v-13.4c0-1.7,1.4-3.1,3.1-3.1h13.4c1.7,0,3.1,1.4,3.1,3.1v13.4
		C69.9,296.6,68.5,298,66.7,298z"/>
	<path class="st3" d="M93.2,298H79.9c-1.7,0-3.1-1.4-3.1-3.1v-13.4c0-1.7,1.4-3.1,3.1-3.1h13.4c1.7,0,3.1,1.4,3.1,3.1v13.4
		C96.4,296.6,95,298,93.2,298z"/>
	<path class="st3" d="M119.7,298h-13.4c-1.7,0-3.1-1.4-3.1-3.1v-13.4c0-1.7,1.4-3.1,3.1-3.1h13.4c1.7,0,3.1,1.4,3.1,3.1v13.4
		C122.9,296.6,121.5,298,119.7,298z"/>
	<path class="st3" d="M146.2,298h-13.4c-1.7,0-3.1-1.4-3.1-3.1v-13.4c0-1.7,1.4-3.1,3.1-3.1h13.4c1.7,0,3.1,1.4,3.1,3.1v13.4
		C149.4,296.6,148,298,146.2,298z"/>
	<path class="st3" d="M172.7,298h-13.4c-1.7,0-3.1-1.4-3.1-3.1v-13.4c0-1.7,1.4-3.1,3.1-3.1h13.4c1.7,0,3.1,1.4,3.1,3.1v13.4
		C175.9,296.6,174.5,298,172.7,298z"/>
	<path class="st3" d="M199.2,298h-13.4c-1.7,0-3.1-1.4-3.1-3.1v-13.4c0-1.7,1.4-3.1,3.1-3.1h13.4c1.7,0,3.1,1.4,3.1,3.1v13.4
		C202.4,296.6,201,298,199.2,298z"/>
	<path class="st3" d="M225.7,298h-13.4c-1.7,0-3.1-1.4-3.1-3.1v-13.4c0-1.7,1.4-3.1,3.1-3.1h13.4c1.7,0,3.1,1.4,3.1,3.1v13.4
		C228.9,296.6,227.5,298,225.7,298z"/>
	<path class="st3" d="M252.2,298h-13.4c-1.7,0-3.1-1.4-3.1-3.1v-13.4c0-1.7,1.4-3.1,3.1-3.1h13.4c1.7,0,3.1,1.4,3.1,3.1v13.4
		C255.3,296.6,253.9,298,252.2,298z"/>
	<path class="st3" d="M278.7,298h-13.4c-1.7,0-3.1-1.4-3.1-3.1v-13.4c0-1.7,1.4-3.1,3.1-3.1h13.4c1.7,0,3.1,1.4,3.1,3.1v13.4
		C281.8,296.6,280.4,298,278.7,298z"/>
	<path class="st3" d="M305.2,298h-13.4c-1.7,0-3.1-1.4-3.1-3.1v-13.4c0-1.7,1.4-3.1,3.1-3.1h13.4c1.7,0,3.1,1.4,3.1,3.1v13.4
		C308.3,296.6,306.9,298,305.2,298z"/>
	<path class="st3" d="M331.7,298h-13.4c-1.7,0-3.1-1.4-3.1-3.1v-13.4c0-1.7,1.4-3.1,3.1-3.1h13.4c1.7,0,3.1,1.4,3.1,3.1v13.4
		C334.8,296.6,333.4,298,331.7,298z"/>
	<path class="st3" d="M358.2,298h-13.4c-1.7,0-3.1-1.4-3.1-3.1v-13.4c0-1.7,1.4-3.1,3.1-3.1h13.4c1.7,0,3.1,1.4,3.1,3.1v13.4
		C361.3,296.6,359.9,298,358.2,298z"/>
	<path class="st3" d="M66.7,321.5H53.4c-1.7,0-3.1-1.4-3.1-3.1V305c0-1.7,1.4-3.1,3.1-3.1h13.4c1.7,0,3.1,1.4,3.1,3.1v13.4
		C69.9,320.1,68.5,321.5,66.7,321.5z"/>
	<path class="st3" d="M93.2,321.5H79.9c-1.7,0-3.1-1.4-3.1-3.1V305c0-1.7,1.4-3.1,3.1-3.1h13.4c1.7,0,3.1,1.4,3.1,3.1v13.4
		C96.4,320.1,95,321.5,93.2,321.5z"/>
	<path class="st3" d="M119.7,321.5h-13.4c-1.7,0-3.1-1.4-3.1-3.1V305c0-1.7,1.4-3.1,3.1-3.1h13.4c1.7,0,3.1,1.4,3.1,3.1v13.4
		C122.9,320.1,121.5,321.5,119.7,321.5z"/>
	<path class="st3" d="M146.2,321.5h-13.4c-1.7,0-3.1-1.4-3.1-3.1V305c0-1.7,1.4-3.1,3.1-3.1h13.4c1.7,0,3.1,1.4,3.1,3.1v13.4
		C149.4,320.1,148,321.5,146.2,321.5z"/>
	<path class="st3" d="M172.7,321.5h-13.4c-1.7,0-3.1-1.4-3.1-3.1V305c0-1.7,1.4-3.1,3.1-3.1h13.4c1.7,0,3.1,1.4,3.1,3.1v13.4
		C175.9,320.1,174.5,321.5,172.7,321.5z"/>
	<path class="st3" d="M199.2,321.5h-13.4c-1.7,0-3.1-1.4-3.1-3.1V305c0-1.7,1.4-3.1,3.1-3.1h13.4c1.7,0,3.1,1.4,3.1,3.1v13.4
		C202.4,320.1,201,321.5,199.2,321.5z"/>
	<path class="st3" d="M225.7,321.5h-13.4c-1.7,0-3.1-1.4-3.1-3.1V305c0-1.7,1.4-3.1,3.1-3.1h13.4c1.7,0,3.1,1.4,3.1,3.1v13.4
		C228.9,320.1,227.5,321.5,225.7,321.5z"/>
	<path class="st3" d="M252.2,321.5h-13.4c-1.7,0-3.1-1.4-3.1-3.1V305c0-1.7,1.4-3.1,3.1-3.1h13.4c1.7,0,3.1,1.4,3.1,3.1v13.4
		C255.3,320.1,253.9,321.5,252.2,321.5z"/>
	<path class="st3" d="M278.7,321.5h-13.4c-1.7,0-3.1-1.4-3.1-3.1V305c0-1.7,1.4-3.1,3.1-3.1h13.4c1.7,0,3.1,1.4,3.1,3.1v13.4
		C281.8,320.1,280.4,321.5,278.7,321.5z"/>
	<path class="st3" d="M305.2,321.5h-13.4c-1.7,0-3.1-1.4-3.1-3.1V305c0-1.7,1.4-3.1,3.1-3.1h13.4c1.7,0,3.1,1.4,3.1,3.1v13.4
		C308.3,320.1,306.9,321.5,305.2,321.5z"/>
	<path class="st3" d="M331.7,321.5h-13.4c-1.7,0-3.1-1.4-3.1-3.1V305c0-1.7,1.4-3.1,3.1-3.1h13.4c1.7,0,3.1,1.4,3.1,3.1v13.4
		C334.8,320.1,333.4,321.5,331.7,321.5z"/>
	<path class="st3" d="M358.2,321.5h-13.4c-1.7,0-3.1-1.4-3.1-3.1V305c0-1.7,1.4-3.1,3.1-3.1h13.4c1.7,0,3.1,1.4,3.1,3.1v13.4
		C361.3,320.1,359.9,321.5,358.2,321.5z"/>
	<path class="st3" d="M66.7,345.1H53.4c-1.7,0-3.1-1.4-3.1-3.1v-13.4c0-1.7,1.4-3.1,3.1-3.1h13.4c1.7,0,3.1,1.4,3.1,3.1v13.4
		C69.9,343.7,68.5,345.1,66.7,345.1z"/>
	<path class="st3" d="M93.2,345.1H79.9c-1.7,0-3.1-1.4-3.1-3.1v-13.4c0-1.7,1.4-3.1,3.1-3.1h13.4c1.7,0,3.1,1.4,3.1,3.1v13.4
		C96.4,343.7,95,345.1,93.2,345.1z"/>
	<path class="st3" d="M119.7,345.1h-13.4c-1.7,0-3.1-1.4-3.1-3.1v-13.4c0-1.7,1.4-3.1,3.1-3.1h13.4c1.7,0,3.1,1.4,3.1,3.1v13.4
		C122.9,343.7,121.5,345.1,119.7,345.1z"/>
	<path class="st3" d="M146.2,345.1h-13.4c-1.7,0-3.1-1.4-3.1-3.1v-13.4c0-1.7,1.4-3.1,3.1-3.1h13.4c1.7,0,3.1,1.4,3.1,3.1v13.4
		C149.4,343.7,148,345.1,146.2,345.1z"/>
	<path class="st3" d="M172.7,345.1h-13.4c-1.7,0-3.1-1.4-3.1-3.1v-13.4c0-1.7,1.4-3.1,3.1-3.1h13.4c1.7,0,3.1,1.4,3.1,3.1v13.4
		C175.9,343.7,174.5,345.1,172.7,345.1z"/>
	<path class="st3" d="M199.2,345.1h-13.4c-1.7,0-3.1-1.4-3.1-3.1v-13.4c0-1.7,1.4-3.1,3.1-3.1h13.4c1.7,0,3.1,1.4,3.1,3.1v13.4
		C202.4,343.7,201,345.1,199.2,345.1z"/>
	<path class="st3" d="M225.7,345.1h-13.4c-1.7,0-3.1-1.4-3.1-3.1v-13.4c0-1.7,1.4-3.1,3.1-3.1h13.4c1.7,0,3.1,1.4,3.1,3.1v13.4
		C228.9,343.7,227.5,345.1,225.7,345.1z"/>
	<path class="st3" d="M252.2,345.1h-13.4c-1.7,0-3.1-1.4-3.1-3.1v-13.4c0-1.7,1.4-3.1,3.1-3.1h13.4c1.7,0,3.1,1.4,3.1,3.1v13.4
		C255.3,343.7,253.9,345.1,252.2,345.1z"/>
	<path class="st3" d="M278.7,345.1h-13.4c-1.7,0-3.1-1.4-3.1-3.1v-13.4c0-1.7,1.4-3.1,3.1-3.1h13.4c1.7,0,3.1,1.4,3.1,3.1v13.4
		C281.8,343.7,280.4,345.1,278.7,345.1z"/>
	<path class="st3" d="M305.2,345.1h-13.4c-1.7,0-3.1-1.4-3.1-3.1v-13.4c0-1.7,1.4-3.1,3.1-3.1h13.4c1.7,0,3.1,1.4,3.1,3.1v13.4
		C308.3,343.7,306.9,345.1,305.2,345.1z"/>
	<path class="st3" d="M331.7,345.1h-13.4c-1.7,0-3.1-1.4-3.1-3.1v-13.4c0-1.7,1.4-3.1,3.1-3.1h13.4c1.7,0,3.1,1.4,3.1,3.1v13.4
		C334.8,343.7,333.4,345.1,331.7,345.1z"/>
	<path class="st3" d="M358.2,345.1h-13.4c-1.7,0-3.1-1.4-3.1-3.1v-13.4c0-1.7,1.4-3.1,3.1-3.1h13.4c1.7,0,3.1,1.4,3.1,3.1v13.4
		C361.3,343.7,359.9,345.1,358.2,345.1z"/>
	<path class="st3" d="M66.7,368.6H53.4c-1.7,0-3.1-1.4-3.1-3.1v-13.4c0-1.7,1.4-3.1,3.1-3.1h13.4c1.7,0,3.1,1.4,3.1,3.1v13.4
		C69.9,367.2,68.5,368.6,66.7,368.6z"/>
	<path class="st3" d="M93.2,368.6H79.9c-1.7,0-3.1-1.4-3.1-3.1v-13.4c0-1.7,1.4-3.1,3.1-3.1h13.4c1.7,0,3.1,1.4,3.1,3.1v13.4
		C96.4,367.2,95,368.6,93.2,368.6z"/>
	<path class="st3" d="M119.7,368.6h-13.4c-1.7,0-3.1-1.4-3.1-3.1v-13.4c0-1.7,1.4-3.1,3.1-3.1h13.4c1.7,0,3.1,1.4,3.1,3.1v13.4
		C122.9,367.2,121.5,368.6,119.7,368.6z"/>
	<path class="st3" d="M146.2,368.6h-13.4c-1.7,0-3.1-1.4-3.1-3.1v-13.4c0-1.7,1.4-3.1,3.1-3.1h13.4c1.7,0,3.1,1.4,3.1,3.1v13.4
		C149.4,367.2,148,368.6,146.2,368.6z"/>
	<path class="st3" d="M172.7,368.6h-13.4c-1.7,0-3.1-1.4-3.1-3.1v-13.4c0-1.7,1.4-3.1,3.1-3.1h13.4c1.7,0,3.1,1.4,3.1,3.1v13.4
		C175.9,367.2,174.5,368.6,172.7,368.6z"/>
	<path class="st3" d="M199.2,368.6h-13.4c-1.7,0-3.1-1.4-3.1-3.1v-13.4c0-1.7,1.4-3.1,3.1-3.1h13.4c1.7,0,3.1,1.4,3.1,3.1v13.4
		C202.4,367.2,201,368.6,199.2,368.6z"/>
	<path class="st3" d="M225.7,368.6h-13.4c-1.7,0-3.1-1.4-3.1-3.1v-13.4c0-1.7,1.4-3.1,3.1-3.1h13.4c1.7,0,3.1,1.4,3.1,3.1v13.4
		C228.9,367.2,227.5,368.6,225.7,368.6z"/>
	<path class="st3" d="M252.2,368.6h-13.4c-1.7,0-3.1-1.4-3.1-3.1v-13.4c0-1.7,1.4-3.1,3.1-3.1h13.4c1.7,0,3.1,1.4,3.1,3.1v13.4
		C255.3,367.2,253.9,368.6,252.2,368.6z"/>
	<path class="st3" d="M278.7,368.6h-13.4c-1.7,0-3.1-1.4-3.1-3.1v-13.4c0-1.7,1.4-3.1,3.1-3.1h13.4c1.7,0,3.1,1.4,3.1,3.1v13.4
		C281.8,367.2,280.4,368.6,278.7,368.6z"/>
	<path class="st3" d="M305.2,368.6h-13.4c-1.7,0-3.1-1.4-3.1-3.1v-13.4c0-1.7,1.4-3.1,3.1-3.1h13.4c1.7,0,3.1,1.4,3.1,3.1v13.4
		C308.3,367.2,306.9,368.6,305.2,368.6z"/>
	<path class="st3" d="M331.7,368.6h-13.4c-1.7,0-3.1-1.4-3.1-3.1v-13.4c0-1.7,1.4-3.1,3.1-3.1h13.4c1.7,0,3.1,1.4,3.1,3.1v13.4
		C334.8,367.2,333.4,368.6,331.7,368.6z"/>
	<path class="st3" d="M358.2,368.6h-13.4c-1.7,0-3.1-1.4-3.1-3.1v-13.4c0-1.7,1.4-3.1,3.1-3.1h13.4c1.7,0,3.1,1.4,3.1,3.1v13.4
		C361.3,367.2,359.9,368.6,358.2,368.6z"/>
	<path class="st3" d="M66.7,392.1H53.4c-1.7,0-3.1-1.4-3.1-3.1v-13.4c0-1.7,1.4-3.1,3.1-3.1h13.4c1.7,0,3.1,1.4,3.1,3.1v13.4
		C69.9,390.7,68.5,392.1,66.7,392.1z"/>
	<path class="st3" d="M93.2,392.1H79.9c-1.7,0-3.1-1.4-3.1-3.1v-13.4c0-1.7,1.4-3.1,3.1-3.1h13.4c1.7,0,3.1,1.4,3.1,3.1v13.4
		C96.4,390.7,95,392.1,93.2,392.1z"/>
	<path class="st3" d="M119.7,392.1h-13.4c-1.7,0-3.1-1.4-3.1-3.1v-13.4c0-1.7,1.4-3.1,3.1-3.1h13.4c1.7,0,3.1,1.4,3.1,3.1v13.4
		C122.9,390.7,121.5,392.1,119.7,392.1z"/>
	<path class="st3" d="M146.2,392.1h-13.4c-1.7,0-3.1-1.4-3.1-3.1v-13.4c0-1.7,1.4-3.1,3.1-3.1h13.4c1.7,0,3.1,1.4,3.1,3.1v13.4
		C149.4,390.7,148,392.1,146.2,392.1z"/>
	<path class="st3" d="M252.2,392.1h-92.9c-1.7,0-3.1-1.4-3.1-3.1v-13.4c0-1.7,1.4-3.1,3.1-3.1h92.9c1.7,0,3.1,1.4,3.1,3.1v13.4
		C255.3,390.7,253.9,392.1,252.2,392.1z"/>
	<path class="st3" d="M278.7,392.1h-13.4c-1.7,0-3.1-1.4-3.1-3.1v-13.4c0-1.7,1.4-3.1,3.1-3.1h13.4c1.7,0,3.1,1.4,3.1,3.1v13.4
		C281.8,390.7,280.4,392.1,278.7,392.1z"/>
	<path class="st3" d="M305.2,392.1h-13.4c-1.7,0-3.1-1.4-3.1-3.1v-13.4c0-1.7,1.4-3.1,3.1-3.1h13.4c1.7,0,3.1,1.4,3.1,3.1v13.4
		C308.3,390.7,306.9,392.1,305.2,392.1z"/>
	<path class="st3" d="M331.7,392.1h-13.4c-1.7,0-3.1-1.4-3.1-3.1v-13.4c0-1.7,1.4-3.1,3.1-3.1h13.4c1.7,0,3.1,1.4,3.1,3.1v13.4
		C334.8,390.7,333.4,392.1,331.7,392.1z"/>
	<path class="st3" d="M358.2,392.1h-13.4c-1.7,0-3.1-1.4-3.1-3.1v-13.4c0-1.7,1.4-3.1,3.1-3.1h13.4c1.7,0,3.1,1.4,3.1,3.1v13.4
		C361.3,390.7,359.9,392.1,358.2,392.1z"/>
	<path class="st0" d="M458.3,345.1c0,0.6,0,1.1,0,1.7c-0.6,27.9-15.7,50.2-34.3,50.2c-18.6,0-33.8-22.3-34.3-50.2c0-0.6,0-1.1,0-1.7
		c0-27.8,14.4-50.4,32.6-51.8c0.6-0.1,1.2-0.1,1.8-0.1C443,293.2,458.3,316.4,458.3,345.1z"/>
	<path class="st4" d="M422.2,293.2v53.5h-32.6c0-0.6,0-1.1,0-1.7C389.6,317.3,404,294.6,422.2,293.2z"/>
	<path class="st5" d="M458.3,345.1c0,0.6,0,1.1,0,1.7h-36.1v-53.5c0.6-0.1,1.2-0.1,1.8-0.1C443,293.2,458.3,316.4,458.3,345.1z"/>
	<g>
		<circle class="st6" cx="205.9" cy="135.6" r="33.5"/>
		<circle class="st6" cx="176.2" cy="102.1" r="20.9"/>
		<circle class="st6" cx="236" cy="102.1" r="20.9"/>
	</g>
	<polygon class="st6" points="289.2,149.3 296,160.3 287.5,151.7 285.8,165.4 284.4,152.1 276.1,160.1 283.2,149.2 267.4,147.1 
		283.3,145.4 276.1,133.8 284.6,142.2 286.5,120.1 288,142.3 296.6,134 289.1,145.5 304.9,147.5 	"/>
	<ellipse transform="matrix(0.9549 -0.2969 0.2969 0.9549 -7.4384 81.2173)" class="st7" cx="263.7" cy="65.1" rx="2.7" ry="2.8"/>
	<ellipse transform="matrix(0.9549 -0.2969 0.2969 0.9549 -8.5968 91.8856)" class="st7" cx="298.3" cy="74.3" rx="2.7" ry="2.8"/>
	<path class="st7" d="M315.5,95.1c-3,1.1-4.8,4.2-4.6,7.3c-1.6-2.7-4.7-4.1-7.8-3.5l0,0c3-1.1,4.8-4.2,4.6-7.3
		C309.4,94.3,312.4,95.7,315.5,95.1L315.5,95.1z"/>
	<g>
		<ellipse transform="matrix(0.9549 -0.2969 0.2969 0.9549 -10.1934 94.8947)" class="st7" cx="307.4" cy="81" rx="1.7" ry="1.8"/>
		<ellipse transform="matrix(0.9549 -0.2969 0.2969 0.9549 -10.417 94.4919)" class="st6" cx="305.9" cy="81.5" rx="1.7" ry="1.8"/>
	</g>
	<g>
		<ellipse transform="matrix(0.9549 -0.2969 0.2969 0.9549 -21.0207 94.5953)" class="st7" cx="301" cy="116.5" rx="2.7" ry="2.8"/>
		
			<ellipse transform="matrix(0.9549 -0.2969 0.2969 0.9549 -21.3327 93.9529)" class="st6" cx="298.7" cy="117.2" rx="2.7" ry="2.8"/>
	</g>
	<ellipse transform="matrix(0.9549 -0.2969 0.2969 0.9549 -7.7504 80.5749)" class="st6" cx="261.4" cy="65.8" rx="2.7" ry="2.8"/>
	<ellipse transform="matrix(0.9549 -0.2969 0.2969 0.9549 -8.9427 91.2596)" class="st6" cx="296" cy="75.1" rx="2.7" ry="2.8"/>
	<path class="st6" d="M274.9,128c-2.6,1-4.2,3.6-4,6.4c-1.4-2.3-4.1-3.6-6.8-3.1l0,0c2.6-1,4.2-3.6,4-6.4
		C269.6,127.3,272.3,128.5,274.9,128L274.9,128z"/>
	<g>
		<ellipse transform="matrix(0.9549 -0.2969 0.2969 0.9549 -9.362 84.9907)" class="st7" cx="275.2" cy="73.3" rx="1.7" ry="1.8"/>
		<ellipse transform="matrix(0.9549 -0.2969 0.2969 0.9549 -9.5682 84.5661)" class="st6" cx="273.7" cy="73.8" rx="1.7" ry="1.8"/>
	</g>
	<g>
		<ellipse transform="matrix(0.9549 -0.2969 0.2969 0.9549 -6.2699 78.1604)" class="st7" cx="254.2" cy="59.7" rx="1.7" ry="1.8"/>
		<ellipse transform="matrix(0.9549 -0.2969 0.2969 0.9549 -6.4761 77.7357)" class="st6" cx="252.7" cy="60.2" rx="1.7" ry="1.8"/>
	</g>
	<g>
		<ellipse transform="matrix(0.9549 -0.2969 0.2969 0.9549 -4.8157 88.6339)" class="st7" cx="289.4" cy="60.2" rx="1.7" ry="1.8"/>
		<ellipse transform="matrix(0.9549 -0.2969 0.2969 0.9549 -5.0166 88.2201)" class="st6" cx="288" cy="60.6" rx="1.7" ry="1.8"/>
	</g>
	<g>
		
			<ellipse transform="matrix(0.9549 -0.2969 0.2969 0.9549 -20.9186 88.8537)" class="st7" cx="282.1" cy="113.3" rx="1.7" ry="1.8"/>
		<ellipse transform="matrix(0.9549 -0.2969 0.2969 0.9549 -21.1196 88.44)" class="st6" cx="280.7" cy="113.8" rx="1.7" ry="1.8"/>
	</g>
	<g>
		
			<ellipse transform="matrix(0.9549 -0.2969 0.2969 0.9549 -33.2972 85.0151)" class="st7" cx="263.3" cy="152.1" rx="1.7" ry="1.8"/>
		
			<ellipse transform="matrix(0.9549 -0.2969 0.2969 0.9549 -33.4981 84.6014)" class="st6" cx="261.8" cy="152.6" rx="1.7" ry="1.8"/>
	</g>
	<g>
		<path class="st7" d="M280.1,59c-2,0.8-3.2,2.8-3.1,4.9c-1.1-1.8-3.2-2.8-5.2-2.3l0,0c2-0.8,3.2-2.8,3.1-4.9
			C276,58.4,278,59.4,280.1,59L280.1,59z"/>
		<path class="st6" d="M277.8,59.7c-2,0.8-3.2,2.8-3.1,4.9c-1.1-1.8-3.2-2.8-5.2-2.3l0,0c2-0.8,3.2-2.8,3.1-4.9
			C273.7,59.2,275.8,60.1,277.8,59.7L277.8,59.7z"/>
	</g>
	<g>
		<path class="st7" d="M247.9,57.4c-1.2,0.5-2,1.7-1.9,3c-0.7-1.1-1.9-1.7-3.2-1.4l0,0c1.2-0.5,2-1.7,1.9-3
			C245.4,57,246.7,57.7,247.9,57.4L247.9,57.4z"/>
		<path class="st6" d="M246.5,57.8c-1.2,0.5-2,1.7-1.9,3c-0.7-1.1-1.9-1.7-3.2-1.4l0,0c1.2-0.5,2-1.7,1.9-3
			C244,57.5,245.3,58.1,246.5,57.8L246.5,57.8z"/>
	</g>
	<g>
		<path class="st7" d="M303.9,86.5c-1.2,0.5-2,1.7-1.9,3c-0.7-1.1-1.9-1.7-3.2-1.4l0,0c1.2-0.5,2-1.7,1.9-3
			C301.4,86.2,302.7,86.8,303.9,86.5L303.9,86.5z"/>
		<path class="st6" d="M302.5,86.9c-1.2,0.5-2,1.7-1.9,3c-0.7-1.1-1.9-1.7-3.2-1.4l0,0c1.2-0.5,2-1.7,1.9-3
			C300,86.6,301.3,87.2,302.5,86.9L302.5,86.9z"/>
	</g>
	<path class="st6" d="M313.2,95.8c-3,1.1-4.8,4.2-4.6,7.3c-1.6-2.7-4.7-4.1-7.8-3.5l0,0c3-1.1,4.8-4.2,4.6-7.3
		C307.1,95,310.1,96.4,313.2,95.8L313.2,95.8z"/>
	<circle class="st6" cx="303.6" cy="80.4" r="1.2"/>
	<circle class="st6" cx="307" cy="79.4" r="1.2"/>
	<path class="st7" d="M243.5,180.9c4.4-0.4,8-3.7,9-8.1c1.1,4.2,4.7,7.4,9,7.7l0,0c-4.4,0.4-8,3.7-9,8.1
		C251.5,184.5,247.9,181.3,243.5,180.9L243.5,180.9z"/>
	<path class="st7" d="M257.6,169.2c2.1-0.2,3.9-1.8,4.3-3.9c0.5,2,2.3,3.5,4.4,3.7l0,0c-2.1,0.2-3.9,1.8-4.3,3.9
		C261.4,170.9,259.7,169.3,257.6,169.2L257.6,169.2z"/>
	<g>
		
			<ellipse transform="matrix(0.9997 -2.273731e-02 2.273731e-02 0.9997 -4.2733 5.5654)" class="st7" cx="242.6" cy="190.7" rx="2.7" ry="2.8"/>
		
			<ellipse transform="matrix(0.9997 -2.273731e-02 2.273731e-02 0.9997 -4.2714 5.6185)" class="st6" cx="244.9" cy="190.6" rx="2.7" ry="2.8"/>
	</g>
	<path class="st6" d="M245.4,180.9c4.4-0.4,8-3.7,9-8.1c1.1,4.2,4.7,7.4,9,7.7l0,0c-4.4,0.4-8,3.7-9,8.1
		C253.3,184.4,249.7,181.3,245.4,180.9L245.4,180.9z"/>
	<path class="st6" d="M260,169.1c2.1-0.2,3.9-1.8,4.3-3.9c0.5,2,2.3,3.5,4.4,3.7l0,0c-2.1,0.2-3.9,1.8-4.3,3.9
		C263.8,170.8,262.1,169.3,260,169.1L260,169.1z"/>
	<g>
		
			<ellipse transform="matrix(0.9997 -2.273731e-02 2.273731e-02 0.9997 -4.1381 5.4553)" class="st7" cx="237.8" cy="184.7" rx="1.7" ry="1.8"/>
		
			<ellipse transform="matrix(0.9997 -2.273731e-02 2.273731e-02 0.9997 -4.1369 5.4901)" class="st6" cx="239.4" cy="184.7" rx="1.7" ry="1.8"/>
	</g>
	<g>
		
			<ellipse transform="matrix(0.9997 -2.273731e-02 2.273731e-02 0.9997 -4.4081 5.3508)" class="st7" cx="233.1" cy="196.5" rx="1.7" ry="1.8"/>
		
			<ellipse transform="matrix(0.9997 -2.273731e-02 2.273731e-02 0.9997 -4.4069 5.3856)" class="st6" cx="234.6" cy="196.5" rx="1.7" ry="1.8"/>
	</g>
	<g>
		<path class="st7" d="M233.1,170.1c2.1-0.2,3.9-1.8,4.3-3.9c0.5,2,2.3,3.5,4.4,3.7l0,0c-2.1,0.2-3.9,1.8-4.3,3.9
			C236.9,171.8,235.2,170.3,233.1,170.1L233.1,170.1z"/>
		<path class="st6" d="M235.5,170c2.1-0.2,3.9-1.8,4.3-3.9c0.5,2,2.3,3.5,4.4,3.7l0,0c-2.1,0.2-3.9,1.8-4.3,3.9
			C239.3,171.7,237.6,170.2,235.5,170L235.5,170z"/>
	</g>
	<g>
		<g>
			<ellipse class="st7" cx="220.3" cy="202.3" rx="2.7" ry="2.8"/>
			<ellipse class="st6" cx="217.9" cy="202.3" rx="2.7" ry="2.8"/>
		</g>
		<circle class="st6" cx="214.9" cy="200.2" r="1.8"/>
		<circle class="st6" cx="220.3" cy="199.5" r="1.8"/>
	</g>
</g>
<rect x="108.9" y="441" class="st8" width="282.2" height="43.8"/>
<text transform="matrix(1 0 0 1 108.9184 479.5152)" class="st9 st10 st11">Shop Disney</text>
<g>
	<path class="st12" d="M113.1,471.9c0.6-0.1,1.2,0,1.7,0.4c1.2,1,4.8,3.6,9.8,3.6c5.2,0,8.5-3,8.5-6.4c0-4.2-3-6.2-10.3-8.3
		c-6.7-2.1-11.2-4.4-11.2-10.8c0-4.2,3.5-9.8,12.9-9.8c4.8,0,8.4,1.7,9.7,2.5c0.5,0.3,0.8,0.8,0.9,1.4c0.1,0.9-0.5,1.8-1.3,2
		c-0.6,0.2-1,0.1-1.5-0.2c-1.1-0.6-4.2-2.2-7.8-2.2c-6.9,0-8.5,3.6-8.5,6.4c0,4.1,2.5,5.8,8.5,7.5c8,2.5,13.1,5.1,13.1,11.6
		c0,5.7-5.9,9.9-13,9.9c-6.6,0-10.8-3.1-12.1-4.3c-0.3-0.3-0.5-0.6-0.6-1C111.6,473.1,112.2,472.1,113.1,471.9z"/>
	<path class="st12" d="M143.8,441.8c0.5-0.2,0.9-0.2,1.3,0c0.4,0.2,0.7,0.5,0.8,0.9l0.1,0.2c0.1,0.2,0.1,0.4,0.1,0.6v16.4
		c1.4-1.1,3.9-2.7,8-2.7c6.4,0,9.7,3.6,9.7,9.9v11c0,0.7-0.6,1.2-1.3,1.2c-1.3,0-2.3-1-2.3-2.1v-9.4c0-4.5-2.1-6.5-6.3-6.5
		c-4.5,0-7.2,2.1-7.9,2.7v14.2c0,0.7-0.5,1.2-1.3,1.2c-1.2,0-2.2-1-2.2-2.1v-33.7c0-0.2,0-0.5,0.1-0.7l0.1-0.2
		C143.1,442.3,143.5,441.9,143.8,441.8z"/>
	<path class="st12" d="M180.1,456.6c7,0,12.1,5.1,12.1,11.3c0,6.3-5.1,11.4-12.1,11.4c-7.1,0-12.1-5.1-12.1-11.4
		C168,461.7,173,456.6,180.1,456.6z M180.1,475.8c4.9,0,7.9-3.4,7.9-8c0-4.4-2.9-7.8-7.9-7.8c-5,0-7.9,3.4-7.9,7.8
		C172.1,472.4,175.1,475.8,180.1,475.8z"/>
	<path class="st12" d="M199.3,493.6c0,0.7-0.6,1.3-1.3,1.3c-1.2,0-2.2-1-2.2-2.2v-33.8c0-0.5,0.2-1,0.6-1.3c0.3-0.3,0.8-0.5,1.3-0.5
		h0.1c0.6,0,1.1,0.4,1.2,1.1l0,0.5c1.3-0.9,3.5-2.1,7.1-2.1c7.1,0,11.7,5.1,11.7,11.3c0,6.3-4.8,11.3-12.3,11.3
		c-3.1,0-5.1-0.9-6.2-1.6V493.6z M205.2,475.8c5.7,0,8.5-3.4,8.5-7.9c0-4.5-2.5-7.9-7.7-7.9c-4,0-6,1.9-6.6,2.4v11.4
		C200,474.3,202,475.8,205.2,475.8z"/>
	<path class="st12" d="M239.9,442.8c0-0.7,0.5-1.3,1.2-1.3h11.8c11.5,0,20.4,8.5,20.4,18.8c0,10.5-8.9,19-20.4,19h-11.8
		c-0.7,0-1.2-0.6-1.2-1.3V442.8z M252.5,475.8c9.7,0,16.4-6.6,16.4-15.4c0-8.7-6.7-15.3-16.4-15.3h-5.8c-1.7,0-3.1,1.3-3.1,3v25.6
		c0,1.2,1,2.2,2.3,2.2H252.5z"/>
	<path class="st12" d="M278.1,445.9c0-1.3,1.1-2.5,2.4-2.5s2.4,1.2,2.4,2.5c0,1.3-1.1,2.4-2.4,2.4
		C279.2,448.2,278.1,447.2,278.1,445.9z M278.7,459.3c0-0.9,0.8-1.7,1.8-1.7c1,0,1.8,0.8,1.8,1.7V478c0,0.7-0.5,1.2-1.3,1.2
		c-1.3,0-2.3-1-2.3-2.2V459.3z"/>
	<path class="st12" d="M289.6,474.1c0.4-0.1,0.9,0,1.2,0.3c0.8,0.6,2.7,1.7,5.1,1.7c2.8,0,4-1.4,4-3c0-1.9-1.4-2.8-5.1-4
		c-3.8-1.3-7-3-7-6.5c0-2.6,2.4-5.9,7.7-5.9c2.6,0,4.7,0.8,5.9,1.5c0.5,0.3,0.8,0.7,0.9,1.3c0.1,0.8-0.4,1.6-1.1,1.9
		c-0.4,0.1-0.9,0.1-1.4-0.1c-0.8-0.4-2.5-1.2-4.3-1.2c-3,0-3.4,1.5-3.4,2.7c0,1.7,1,2.5,4.1,3.5c4,1.4,8,2.8,8,6.9
		c0,3.5-3.7,6.2-8.3,6.2c-3.4,0-5.7-1.3-7-2.2c-0.4-0.3-0.7-0.7-0.7-1.3C288.2,475,288.8,474.3,289.6,474.1z"/>
	<path class="st12" d="M309.4,458.2c0.4-0.3,0.7-0.5,1.3-0.5c0.7,0,1.1,0.5,1.2,1l0,0l0.1,1.1c1.4-1.2,4-2.7,8.3-2.7
		c6.9,0,9.7,4,9.7,9.9v10c0,1.2-1,2.2-2.3,2.2c-0.7,0-1.3-0.5-1.3-1.2v-10.3c0-4.5-2.1-6.5-6.3-6.5c-4.4,0-7.2,2-7.9,2.6v14.2
		c0,0.6-0.5,1.2-1.3,1.2c-1.2,0-2.2-0.9-2.2-2.1v-17.7C308.8,459,309,458.6,309.4,458.2z"/>
	<path class="st12" d="M346.3,456.6c6.5,0,10.9,4.2,10.9,10c0,0.5,0.2,2.6-1.4,2.6h-17.2c0.4,3.8,2.9,6.7,7.9,6.7c3,0,5.1-1,6.3-1.8
		c0.3-0.2,0.5-0.2,0.8-0.2h0.2c0.5,0,1,0.2,1.3,0.6c0.3,0.4,0.4,0.8,0.2,1.3l0,0.2c-0.1,0.3-0.3,0.6-0.5,0.8
		c-1.4,1.2-4.7,2.4-8.5,2.4c-7.6,0-11.9-5.1-11.9-11.4C334.4,461.8,338.7,456.6,346.3,456.6z M353.6,466.6c-0.2-3.7-2.5-6.7-7.3-6.7
		c-4.9,0-7.2,2.9-7.6,6.7H353.6z"/>
	<path class="st12" d="M362.8,457L362.8,457c0.3,0.2,0.5,0.4,0.5,0.4l9.4,15.2l8.4-15.1c0.1-0.2,0.3-0.3,0.6-0.4l0.1-0.1
		c0.6-0.3,1.5-0.2,2.1,0.1c0.5,0.4,0.6,1.1,0.3,1.7l-17.7,35c-0.2,0.2-0.4,0.4-0.8,0.5c-0.5,0.2-1.1,0.2-1.6,0
		c-0.8-0.4-1.2-1.2-0.8-2l7.1-14.4l-10.1-19c-0.3-0.6-0.2-1.3,0.4-1.8C361.3,456.8,362.1,456.7,362.8,457z"/>
</g>
</svg>
