<?xml version="1.0" encoding="utf-8"?>
<!-- Generator: Adobe Illustrator 23.0.2, SVG Export Plug-In . SVG Version: 6.00 Build 0)  -->
<svg version="1.1" id="Layer_1" xmlns="http://www.w3.org/2000/svg" xmlns:xlink="http://www.w3.org/1999/xlink" x="0px" y="0px"
	 viewBox="0 0 500 500" style="enable-background:new 0 0 500 500;" xml:space="preserve">
<style type="text/css">
	.st0{fill:#EAEBEC;}
	.st1{fill:#8FACD4;}
	.st2{fill:#738FB1;}
	.st3{fill:#D1D0D0;}
	.st4{fill:#D7D7D8;}
	.st5{fill:#CECDCD;}
	.st6{fill:#FFFFFF;}
	.st7{fill:#869CB3;}
	.st8{fill:none;}
	.st9{display:none;fill:#262825;}
	.st10{font-family:'Febrero-Regular';}
	.st11{font-size:60px;}
	.st12{fill:#262825;}
</style>
<g>
	<path class="st0" d="M371.3,310.6v97.3c0,6.8-5.6,12.4-12.4,12.4H54c-6.8,0-12.4-5.6-12.4-12.4v-97.3c0-6.8,5.6-12.4,12.4-12.4
		h304.9C365.7,298.2,371.3,303.8,371.3,310.6z"/>
	<path class="st0" d="M354.7,278.4H53.7c-6.6,0-12-5.4-12-12V41.8c0-6.6,5.4-12,12-12h301.1c6.6,0,12,5.4,12,12v224.6
		C366.7,273,361.3,278.4,354.7,278.4z"/>
	<path class="st1" d="M327.4,74.1V234c0,6.8-5.6,12.4-12.4,12.4H93.4c-6.8,0-12.4-5.6-12.4-12.4V74.1c0-6.8,5.6-12.4,12.4-12.4H315
		c3.5,0,6.7,1.5,9,3.9C326.1,67.9,327.4,70.9,327.4,74.1z"/>
	<path class="st2" d="M327.4,74.1V234c0,6.8-5.6,12.4-12.4,12.4H122.9L324,65.7C326.1,67.9,327.4,70.9,327.4,74.1z"/>
	<path class="st3" d="M66.7,322H53.4c-1.7,0-3.1-1.4-3.1-3.1v-13.4c0-1.7,1.4-3.1,3.1-3.1h13.4c1.7,0,3.1,1.4,3.1,3.1v13.4
		C69.9,320.6,68.5,322,66.7,322z"/>
	<path class="st3" d="M93.2,322H79.9c-1.7,0-3.1-1.4-3.1-3.1v-13.4c0-1.7,1.4-3.1,3.1-3.1h13.4c1.7,0,3.1,1.4,3.1,3.1v13.4
		C96.4,320.6,95,322,93.2,322z"/>
	<path class="st3" d="M119.7,322h-13.4c-1.7,0-3.1-1.4-3.1-3.1v-13.4c0-1.7,1.4-3.1,3.1-3.1h13.4c1.7,0,3.1,1.4,3.1,3.1v13.4
		C122.9,320.6,121.5,322,119.7,322z"/>
	<path class="st3" d="M146.2,322h-13.4c-1.7,0-3.1-1.4-3.1-3.1v-13.4c0-1.7,1.4-3.1,3.1-3.1h13.4c1.7,0,3.1,1.4,3.1,3.1v13.4
		C149.4,320.6,148,322,146.2,322z"/>
	<path class="st3" d="M172.7,322h-13.4c-1.7,0-3.1-1.4-3.1-3.1v-13.4c0-1.7,1.4-3.1,3.1-3.1h13.4c1.7,0,3.1,1.4,3.1,3.1v13.4
		C175.9,320.6,174.5,322,172.7,322z"/>
	<path class="st3" d="M199.2,322h-13.4c-1.7,0-3.1-1.4-3.1-3.1v-13.4c0-1.7,1.4-3.1,3.1-3.1h13.4c1.7,0,3.1,1.4,3.1,3.1v13.4
		C202.4,320.6,201,322,199.2,322z"/>
	<path class="st3" d="M225.7,322h-13.4c-1.7,0-3.1-1.4-3.1-3.1v-13.4c0-1.7,1.4-3.1,3.1-3.1h13.4c1.7,0,3.1,1.4,3.1,3.1v13.4
		C228.9,320.6,227.5,322,225.7,322z"/>
	<path class="st3" d="M252.2,322h-13.4c-1.7,0-3.1-1.4-3.1-3.1v-13.4c0-1.7,1.4-3.1,3.1-3.1h13.4c1.7,0,3.1,1.4,3.1,3.1v13.4
		C255.3,320.6,253.9,322,252.2,322z"/>
	<path class="st3" d="M278.7,322h-13.4c-1.7,0-3.1-1.4-3.1-3.1v-13.4c0-1.7,1.4-3.1,3.1-3.1h13.4c1.7,0,3.1,1.4,3.1,3.1v13.4
		C281.8,320.6,280.4,322,278.7,322z"/>
	<path class="st3" d="M305.2,322h-13.4c-1.7,0-3.1-1.4-3.1-3.1v-13.4c0-1.7,1.4-3.1,3.1-3.1h13.4c1.7,0,3.1,1.4,3.1,3.1v13.4
		C308.3,320.6,306.9,322,305.2,322z"/>
	<path class="st3" d="M331.7,322h-13.4c-1.7,0-3.1-1.4-3.1-3.1v-13.4c0-1.7,1.4-3.1,3.1-3.1h13.4c1.7,0,3.1,1.4,3.1,3.1v13.4
		C334.8,320.6,333.4,322,331.7,322z"/>
	<path class="st3" d="M358.2,322h-13.4c-1.7,0-3.1-1.4-3.1-3.1v-13.4c0-1.7,1.4-3.1,3.1-3.1h13.4c1.7,0,3.1,1.4,3.1,3.1v13.4
		C361.3,320.6,359.9,322,358.2,322z"/>
	<path class="st3" d="M66.7,345.5H53.4c-1.7,0-3.1-1.4-3.1-3.1V329c0-1.7,1.4-3.1,3.1-3.1h13.4c1.7,0,3.1,1.4,3.1,3.1v13.4
		C69.9,344.1,68.5,345.5,66.7,345.5z"/>
	<path class="st3" d="M93.2,345.5H79.9c-1.7,0-3.1-1.4-3.1-3.1V329c0-1.7,1.4-3.1,3.1-3.1h13.4c1.7,0,3.1,1.4,3.1,3.1v13.4
		C96.4,344.1,95,345.5,93.2,345.5z"/>
	<path class="st3" d="M119.7,345.5h-13.4c-1.7,0-3.1-1.4-3.1-3.1V329c0-1.7,1.4-3.1,3.1-3.1h13.4c1.7,0,3.1,1.4,3.1,3.1v13.4
		C122.9,344.1,121.5,345.5,119.7,345.5z"/>
	<path class="st3" d="M146.2,345.5h-13.4c-1.7,0-3.1-1.4-3.1-3.1V329c0-1.7,1.4-3.1,3.1-3.1h13.4c1.7,0,3.1,1.4,3.1,3.1v13.4
		C149.4,344.1,148,345.5,146.2,345.5z"/>
	<path class="st3" d="M172.7,345.5h-13.4c-1.7,0-3.1-1.4-3.1-3.1V329c0-1.7,1.4-3.1,3.1-3.1h13.4c1.7,0,3.1,1.4,3.1,3.1v13.4
		C175.9,344.1,174.5,345.5,172.7,345.5z"/>
	<path class="st3" d="M199.2,345.5h-13.4c-1.7,0-3.1-1.4-3.1-3.1V329c0-1.7,1.4-3.1,3.1-3.1h13.4c1.7,0,3.1,1.4,3.1,3.1v13.4
		C202.4,344.1,201,345.5,199.2,345.5z"/>
	<path class="st3" d="M225.7,345.5h-13.4c-1.7,0-3.1-1.4-3.1-3.1V329c0-1.7,1.4-3.1,3.1-3.1h13.4c1.7,0,3.1,1.4,3.1,3.1v13.4
		C228.9,344.1,227.5,345.5,225.7,345.5z"/>
	<path class="st3" d="M252.2,345.5h-13.4c-1.7,0-3.1-1.4-3.1-3.1V329c0-1.7,1.4-3.1,3.1-3.1h13.4c1.7,0,3.1,1.4,3.1,3.1v13.4
		C255.3,344.1,253.9,345.5,252.2,345.5z"/>
	<path class="st3" d="M278.7,345.5h-13.4c-1.7,0-3.1-1.4-3.1-3.1V329c0-1.7,1.4-3.1,3.1-3.1h13.4c1.7,0,3.1,1.4,3.1,3.1v13.4
		C281.8,344.1,280.4,345.5,278.7,345.5z"/>
	<path class="st3" d="M305.2,345.5h-13.4c-1.7,0-3.1-1.4-3.1-3.1V329c0-1.7,1.4-3.1,3.1-3.1h13.4c1.7,0,3.1,1.4,3.1,3.1v13.4
		C308.3,344.1,306.9,345.5,305.2,345.5z"/>
	<path class="st3" d="M331.7,345.5h-13.4c-1.7,0-3.1-1.4-3.1-3.1V329c0-1.7,1.4-3.1,3.1-3.1h13.4c1.7,0,3.1,1.4,3.1,3.1v13.4
		C334.8,344.1,333.4,345.5,331.7,345.5z"/>
	<path class="st3" d="M358.2,345.5h-13.4c-1.7,0-3.1-1.4-3.1-3.1V329c0-1.7,1.4-3.1,3.1-3.1h13.4c1.7,0,3.1,1.4,3.1,3.1v13.4
		C361.3,344.1,359.9,345.5,358.2,345.5z"/>
	<path class="st3" d="M66.7,369.1H53.4c-1.7,0-3.1-1.4-3.1-3.1v-13.4c0-1.7,1.4-3.1,3.1-3.1h13.4c1.7,0,3.1,1.4,3.1,3.1v13.4
		C69.9,367.7,68.5,369.1,66.7,369.1z"/>
	<path class="st3" d="M93.2,369.1H79.9c-1.7,0-3.1-1.4-3.1-3.1v-13.4c0-1.7,1.4-3.1,3.1-3.1h13.4c1.7,0,3.1,1.4,3.1,3.1v13.4
		C96.4,367.7,95,369.1,93.2,369.1z"/>
	<path class="st3" d="M119.7,369.1h-13.4c-1.7,0-3.1-1.4-3.1-3.1v-13.4c0-1.7,1.4-3.1,3.1-3.1h13.4c1.7,0,3.1,1.4,3.1,3.1v13.4
		C122.9,367.7,121.5,369.1,119.7,369.1z"/>
	<path class="st3" d="M146.2,369.1h-13.4c-1.7,0-3.1-1.4-3.1-3.1v-13.4c0-1.7,1.4-3.1,3.1-3.1h13.4c1.7,0,3.1,1.4,3.1,3.1v13.4
		C149.4,367.7,148,369.1,146.2,369.1z"/>
	<path class="st3" d="M172.7,369.1h-13.4c-1.7,0-3.1-1.4-3.1-3.1v-13.4c0-1.7,1.4-3.1,3.1-3.1h13.4c1.7,0,3.1,1.4,3.1,3.1v13.4
		C175.9,367.7,174.5,369.1,172.7,369.1z"/>
	<path class="st3" d="M199.2,369.1h-13.4c-1.7,0-3.1-1.4-3.1-3.1v-13.4c0-1.7,1.4-3.1,3.1-3.1h13.4c1.7,0,3.1,1.4,3.1,3.1v13.4
		C202.4,367.7,201,369.1,199.2,369.1z"/>
	<path class="st3" d="M225.7,369.1h-13.4c-1.7,0-3.1-1.4-3.1-3.1v-13.4c0-1.7,1.4-3.1,3.1-3.1h13.4c1.7,0,3.1,1.4,3.1,3.1v13.4
		C228.9,367.7,227.5,369.1,225.7,369.1z"/>
	<path class="st3" d="M252.2,369.1h-13.4c-1.7,0-3.1-1.4-3.1-3.1v-13.4c0-1.7,1.4-3.1,3.1-3.1h13.4c1.7,0,3.1,1.4,3.1,3.1v13.4
		C255.3,367.7,253.9,369.1,252.2,369.1z"/>
	<path class="st3" d="M278.7,369.1h-13.4c-1.7,0-3.1-1.4-3.1-3.1v-13.4c0-1.7,1.4-3.1,3.1-3.1h13.4c1.7,0,3.1,1.4,3.1,3.1v13.4
		C281.8,367.7,280.4,369.1,278.7,369.1z"/>
	<path class="st3" d="M305.2,369.1h-13.4c-1.7,0-3.1-1.4-3.1-3.1v-13.4c0-1.7,1.4-3.1,3.1-3.1h13.4c1.7,0,3.1,1.4,3.1,3.1v13.4
		C308.3,367.7,306.9,369.1,305.2,369.1z"/>
	<path class="st3" d="M331.7,369.1h-13.4c-1.7,0-3.1-1.4-3.1-3.1v-13.4c0-1.7,1.4-3.1,3.1-3.1h13.4c1.7,0,3.1,1.4,3.1,3.1v13.4
		C334.8,367.7,333.4,369.1,331.7,369.1z"/>
	<path class="st3" d="M358.2,369.1h-13.4c-1.7,0-3.1-1.4-3.1-3.1v-13.4c0-1.7,1.4-3.1,3.1-3.1h13.4c1.7,0,3.1,1.4,3.1,3.1v13.4
		C361.3,367.7,359.9,369.1,358.2,369.1z"/>
	<path class="st3" d="M66.7,392.6H53.4c-1.7,0-3.1-1.4-3.1-3.1v-13.4c0-1.7,1.4-3.1,3.1-3.1h13.4c1.7,0,3.1,1.4,3.1,3.1v13.4
		C69.9,391.2,68.5,392.6,66.7,392.6z"/>
	<path class="st3" d="M93.2,392.6H79.9c-1.7,0-3.1-1.4-3.1-3.1v-13.4c0-1.7,1.4-3.1,3.1-3.1h13.4c1.7,0,3.1,1.4,3.1,3.1v13.4
		C96.4,391.2,95,392.6,93.2,392.6z"/>
	<path class="st3" d="M119.7,392.6h-13.4c-1.7,0-3.1-1.4-3.1-3.1v-13.4c0-1.7,1.4-3.1,3.1-3.1h13.4c1.7,0,3.1,1.4,3.1,3.1v13.4
		C122.9,391.2,121.5,392.6,119.7,392.6z"/>
	<path class="st3" d="M146.2,392.6h-13.4c-1.7,0-3.1-1.4-3.1-3.1v-13.4c0-1.7,1.4-3.1,3.1-3.1h13.4c1.7,0,3.1,1.4,3.1,3.1v13.4
		C149.4,391.2,148,392.6,146.2,392.6z"/>
	<path class="st3" d="M172.7,392.6h-13.4c-1.7,0-3.1-1.4-3.1-3.1v-13.4c0-1.7,1.4-3.1,3.1-3.1h13.4c1.7,0,3.1,1.4,3.1,3.1v13.4
		C175.9,391.2,174.5,392.6,172.7,392.6z"/>
	<path class="st3" d="M199.2,392.6h-13.4c-1.7,0-3.1-1.4-3.1-3.1v-13.4c0-1.7,1.4-3.1,3.1-3.1h13.4c1.7,0,3.1,1.4,3.1,3.1v13.4
		C202.4,391.2,201,392.6,199.2,392.6z"/>
	<path class="st3" d="M225.7,392.6h-13.4c-1.7,0-3.1-1.4-3.1-3.1v-13.4c0-1.7,1.4-3.1,3.1-3.1h13.4c1.7,0,3.1,1.4,3.1,3.1v13.4
		C228.9,391.2,227.5,392.6,225.7,392.6z"/>
	<path class="st3" d="M252.2,392.6h-13.4c-1.7,0-3.1-1.4-3.1-3.1v-13.4c0-1.7,1.4-3.1,3.1-3.1h13.4c1.7,0,3.1,1.4,3.1,3.1v13.4
		C255.3,391.2,253.9,392.6,252.2,392.6z"/>
	<path class="st3" d="M278.7,392.6h-13.4c-1.7,0-3.1-1.4-3.1-3.1v-13.4c0-1.7,1.4-3.1,3.1-3.1h13.4c1.7,0,3.1,1.4,3.1,3.1v13.4
		C281.8,391.2,280.4,392.6,278.7,392.6z"/>
	<path class="st3" d="M305.2,392.6h-13.4c-1.7,0-3.1-1.4-3.1-3.1v-13.4c0-1.7,1.4-3.1,3.1-3.1h13.4c1.7,0,3.1,1.4,3.1,3.1v13.4
		C308.3,391.2,306.9,392.6,305.2,392.6z"/>
	<path class="st3" d="M331.7,392.6h-13.4c-1.7,0-3.1-1.4-3.1-3.1v-13.4c0-1.7,1.4-3.1,3.1-3.1h13.4c1.7,0,3.1,1.4,3.1,3.1v13.4
		C334.8,391.2,333.4,392.6,331.7,392.6z"/>
	<path class="st3" d="M358.2,392.6h-13.4c-1.7,0-3.1-1.4-3.1-3.1v-13.4c0-1.7,1.4-3.1,3.1-3.1h13.4c1.7,0,3.1,1.4,3.1,3.1v13.4
		C361.3,391.2,359.9,392.6,358.2,392.6z"/>
	<path class="st3" d="M66.7,416.1H53.4c-1.7,0-3.1-1.4-3.1-3.1v-13.4c0-1.7,1.4-3.1,3.1-3.1h13.4c1.7,0,3.1,1.4,3.1,3.1v13.4
		C69.9,414.7,68.5,416.1,66.7,416.1z"/>
	<path class="st3" d="M93.2,416.1H79.9c-1.7,0-3.1-1.4-3.1-3.1v-13.4c0-1.7,1.4-3.1,3.1-3.1h13.4c1.7,0,3.1,1.4,3.1,3.1v13.4
		C96.4,414.7,95,416.1,93.2,416.1z"/>
	<path class="st3" d="M119.7,416.1h-13.4c-1.7,0-3.1-1.4-3.1-3.1v-13.4c0-1.7,1.4-3.1,3.1-3.1h13.4c1.7,0,3.1,1.4,3.1,3.1v13.4
		C122.9,414.7,121.5,416.1,119.7,416.1z"/>
	<path class="st3" d="M146.2,416.1h-13.4c-1.7,0-3.1-1.4-3.1-3.1v-13.4c0-1.7,1.4-3.1,3.1-3.1h13.4c1.7,0,3.1,1.4,3.1,3.1v13.4
		C149.4,414.7,148,416.1,146.2,416.1z"/>
	<path class="st3" d="M252.2,416.1h-92.9c-1.7,0-3.1-1.4-3.1-3.1v-13.4c0-1.7,1.4-3.1,3.1-3.1h92.9c1.7,0,3.1,1.4,3.1,3.1v13.4
		C255.3,414.7,253.9,416.1,252.2,416.1z"/>
	<path class="st3" d="M278.7,416.1h-13.4c-1.7,0-3.1-1.4-3.1-3.1v-13.4c0-1.7,1.4-3.1,3.1-3.1h13.4c1.7,0,3.1,1.4,3.1,3.1v13.4
		C281.8,414.7,280.4,416.1,278.7,416.1z"/>
	<path class="st3" d="M305.2,416.1h-13.4c-1.7,0-3.1-1.4-3.1-3.1v-13.4c0-1.7,1.4-3.1,3.1-3.1h13.4c1.7,0,3.1,1.4,3.1,3.1v13.4
		C308.3,414.7,306.9,416.1,305.2,416.1z"/>
	<path class="st3" d="M331.7,416.1h-13.4c-1.7,0-3.1-1.4-3.1-3.1v-13.4c0-1.7,1.4-3.1,3.1-3.1h13.4c1.7,0,3.1,1.4,3.1,3.1v13.4
		C334.8,414.7,333.4,416.1,331.7,416.1z"/>
	<path class="st3" d="M358.2,416.1h-13.4c-1.7,0-3.1-1.4-3.1-3.1v-13.4c0-1.7,1.4-3.1,3.1-3.1h13.4c1.7,0,3.1,1.4,3.1,3.1v13.4
		C361.3,414.7,359.9,416.1,358.2,416.1z"/>
	<path class="st0" d="M458.3,369.1c0,0.6,0,1.1,0,1.7c-0.6,27.9-15.7,50.2-34.3,50.2c-18.6,0-33.8-22.3-34.3-50.2c0-0.6,0-1.1,0-1.7
		c0-27.8,14.4-50.4,32.6-51.8c0.6-0.1,1.2-0.1,1.8-0.1C443,317.2,458.3,340.4,458.3,369.1z"/>
	<path class="st4" d="M422.2,317.2v53.5h-32.6c0-0.6,0-1.1,0-1.7C389.6,341.3,404,318.6,422.2,317.2z"/>
	<path class="st5" d="M458.3,369.1c0,0.6,0,1.1,0,1.7h-36.1v-53.5c0.6-0.1,1.2-0.1,1.8-0.1C443,317.2,458.3,340.4,458.3,369.1z"/>
	<g>
		<circle class="st6" cx="205.9" cy="159.6" r="33.5"/>
		<circle class="st6" cx="176.2" cy="126.1" r="20.9"/>
		<circle class="st6" cx="236" cy="126.1" r="20.9"/>
	</g>
	<polygon class="st6" points="289.2,173.3 296,184.3 287.5,175.7 285.8,189.4 284.4,176.1 276.1,184.1 283.2,173.2 267.4,171.1 
		283.3,169.4 276.1,157.8 284.6,166.2 286.5,144.1 288,166.3 296.6,158 289.1,169.5 304.9,171.5 	"/>
	<ellipse transform="matrix(0.9549 -0.2969 0.2969 0.9549 -14.5629 82.2991)" class="st7" cx="263.7" cy="89.1" rx="2.7" ry="2.8"/>
	<ellipse transform="matrix(0.9549 -0.2969 0.2969 0.9549 -15.7213 92.9674)" class="st7" cx="298.3" cy="98.3" rx="2.7" ry="2.8"/>
	<path class="st7" d="M315.5,119.1c-3,1.1-4.8,4.2-4.6,7.3c-1.6-2.7-4.7-4.1-7.8-3.5l0,0c3-1.1,4.8-4.2,4.6-7.3
		C309.4,118.3,312.4,119.7,315.5,119.1L315.5,119.1z"/>
	<g>
		<ellipse transform="matrix(0.9549 -0.2969 0.2969 0.9549 -17.3179 95.9765)" class="st7" cx="307.4" cy="105" rx="1.7" ry="1.8"/>
		
			<ellipse transform="matrix(0.9549 -0.2969 0.2969 0.9549 -17.5415 95.5737)" class="st6" cx="305.9" cy="105.5" rx="1.7" ry="1.8"/>
	</g>
	<g>
		<ellipse transform="matrix(0.9549 -0.2969 0.2969 0.9549 -28.1452 95.6772)" class="st7" cx="301" cy="140.5" rx="2.7" ry="2.8"/>
		
			<ellipse transform="matrix(0.9549 -0.2969 0.2969 0.9549 -28.4572 95.0348)" class="st6" cx="298.7" cy="141.2" rx="2.7" ry="2.8"/>
	</g>
	<ellipse transform="matrix(0.9549 -0.2969 0.2969 0.9549 -14.8749 81.6567)" class="st6" cx="261.4" cy="89.8" rx="2.7" ry="2.8"/>
	<ellipse transform="matrix(0.9549 -0.2969 0.2969 0.9549 -16.0672 92.3414)" class="st6" cx="296" cy="99.1" rx="2.7" ry="2.8"/>
	<path class="st6" d="M274.9,152c-2.6,1-4.2,3.6-4,6.4c-1.4-2.3-4.1-3.6-6.8-3.1l0,0c2.6-1,4.2-3.6,4-6.4
		C269.6,151.3,272.3,152.5,274.9,152L274.9,152z"/>
	<g>
		
			<ellipse transform="matrix(0.9549 -0.2969 0.2969 0.9549 -16.4865 86.0726)" class="st7" cx="275.2" cy="97.3" rx="1.7" ry="1.8"/>
		
			<ellipse transform="matrix(0.9549 -0.2969 0.2969 0.9549 -16.6927 85.6479)" class="st6" cx="273.7" cy="97.8" rx="1.7" ry="1.8"/>
	</g>
	<g>
		
			<ellipse transform="matrix(0.9549 -0.2969 0.2969 0.9549 -13.3944 79.2422)" class="st7" cx="254.2" cy="83.7" rx="1.7" ry="1.8"/>
		
			<ellipse transform="matrix(0.9549 -0.2969 0.2969 0.9549 -13.6006 78.8176)" class="st6" cx="252.7" cy="84.2" rx="1.7" ry="1.8"/>
	</g>
	<g>
		
			<ellipse transform="matrix(0.9549 -0.2969 0.2969 0.9549 -11.9402 89.7157)" class="st7" cx="289.4" cy="84.2" rx="1.7" ry="1.8"/>
		<ellipse transform="matrix(0.9549 -0.2969 0.2969 0.9549 -12.1411 89.302)" class="st6" cx="288" cy="84.6" rx="1.7" ry="1.8"/>
	</g>
	<g>
		
			<ellipse transform="matrix(0.9549 -0.2969 0.2969 0.9549 -28.0431 89.9356)" class="st7" cx="282.1" cy="137.3" rx="1.7" ry="1.8"/>
		
			<ellipse transform="matrix(0.9549 -0.2969 0.2969 0.9549 -28.2441 89.5218)" class="st6" cx="280.7" cy="137.8" rx="1.7" ry="1.8"/>
	</g>
	<g>
		
			<ellipse transform="matrix(0.9549 -0.2969 0.2969 0.9549 -40.4216 86.097)" class="st7" cx="263.3" cy="176.1" rx="1.7" ry="1.8"/>
		
			<ellipse transform="matrix(0.9549 -0.2969 0.2969 0.9549 -40.6226 85.6832)" class="st6" cx="261.8" cy="176.6" rx="1.7" ry="1.8"/>
	</g>
	<g>
		<path class="st7" d="M280.1,83c-2,0.8-3.2,2.8-3.1,4.9c-1.1-1.8-3.2-2.8-5.2-2.3l0,0c2-0.8,3.2-2.8,3.1-4.9
			C276,82.4,278,83.4,280.1,83L280.1,83z"/>
		<path class="st6" d="M277.8,83.7c-2,0.8-3.2,2.8-3.1,4.9c-1.1-1.8-3.2-2.8-5.2-2.3l0,0c2-0.8,3.2-2.8,3.1-4.9
			C273.7,83.2,275.8,84.1,277.8,83.7L277.8,83.7z"/>
	</g>
	<g>
		<path class="st7" d="M247.9,81.4c-1.2,0.5-2,1.7-1.9,3c-0.7-1.1-1.9-1.7-3.2-1.4l0,0c1.2-0.5,2-1.7,1.9-3
			C245.4,81,246.7,81.7,247.9,81.4L247.9,81.4z"/>
		<path class="st6" d="M246.5,81.8c-1.2,0.5-2,1.7-1.9,3c-0.7-1.1-1.9-1.7-3.2-1.4l0,0c1.2-0.5,2-1.7,1.9-3
			C244,81.5,245.3,82.1,246.5,81.8L246.5,81.8z"/>
	</g>
	<g>
		<path class="st7" d="M303.9,110.5c-1.2,0.5-2,1.7-1.9,3c-0.7-1.1-1.9-1.7-3.2-1.4l0,0c1.2-0.5,2-1.7,1.9-3
			C301.4,110.2,302.7,110.8,303.9,110.5L303.9,110.5z"/>
		<path class="st6" d="M302.5,110.9c-1.2,0.5-2,1.7-1.9,3c-0.7-1.1-1.9-1.7-3.2-1.4l0,0c1.2-0.5,2-1.7,1.9-3
			C300,110.6,301.3,111.2,302.5,110.9L302.5,110.9z"/>
	</g>
	<path class="st6" d="M313.2,119.8c-3,1.1-4.8,4.2-4.6,7.3c-1.6-2.7-4.7-4.1-7.8-3.5l0,0c3-1.1,4.8-4.2,4.6-7.3
		C307.1,119,310.1,120.4,313.2,119.8L313.2,119.8z"/>
	<circle class="st6" cx="303.6" cy="104.4" r="1.2"/>
	<circle class="st6" cx="307" cy="103.4" r="1.2"/>
	<path class="st7" d="M243.5,204.9c4.4-0.4,8-3.7,9-8.1c1.1,4.2,4.7,7.4,9,7.7l0,0c-4.4,0.4-8,3.7-9,8.1
		C251.5,208.5,247.9,205.3,243.5,204.9L243.5,204.9z"/>
	<path class="st7" d="M257.6,193.2c2.1-0.2,3.9-1.8,4.3-3.9c0.5,2,2.3,3.5,4.4,3.7l0,0c-2.1,0.2-3.9,1.8-4.3,3.9
		C261.4,194.9,259.7,193.3,257.6,193.2L257.6,193.2z"/>
	<g>
		
			<ellipse transform="matrix(0.9997 -2.273731e-02 2.273731e-02 0.9997 -4.819 5.5716)" class="st7" cx="242.6" cy="214.7" rx="2.7" ry="2.8"/>
		
			<ellipse transform="matrix(0.9997 -2.273731e-02 2.273731e-02 0.9997 -4.8171 5.6247)" class="st6" cx="244.9" cy="214.6" rx="2.7" ry="2.8"/>
	</g>
	<path class="st6" d="M245.4,204.9c4.4-0.4,8-3.7,9-8.1c1.1,4.2,4.7,7.4,9,7.7l0,0c-4.4,0.4-8,3.7-9,8.1
		C253.3,208.4,249.7,205.3,245.4,204.9L245.4,204.9z"/>
	<path class="st6" d="M260,193.1c2.1-0.2,3.9-1.8,4.3-3.9c0.5,2,2.3,3.5,4.4,3.7l0,0c-2.1,0.2-3.9,1.8-4.3,3.9
		C263.8,194.8,262.1,193.3,260,193.1L260,193.1z"/>
	<g>
		
			<ellipse transform="matrix(0.9997 -2.273731e-02 2.273731e-02 0.9997 -4.6838 5.4615)" class="st7" cx="237.8" cy="208.7" rx="1.7" ry="1.8"/>
		
			<ellipse transform="matrix(0.9997 -2.273731e-02 2.273731e-02 0.9997 -4.6826 5.4963)" class="st6" cx="239.4" cy="208.7" rx="1.7" ry="1.8"/>
	</g>
	<g>
		
			<ellipse transform="matrix(0.9997 -2.273731e-02 2.273731e-02 0.9997 -4.9538 5.357)" class="st7" cx="233.1" cy="220.5" rx="1.7" ry="1.8"/>
		
			<ellipse transform="matrix(0.9997 -2.273731e-02 2.273731e-02 0.9997 -4.9526 5.3918)" class="st6" cx="234.6" cy="220.5" rx="1.7" ry="1.8"/>
	</g>
	<g>
		<path class="st7" d="M233.1,194.1c2.1-0.2,3.9-1.8,4.3-3.9c0.5,2,2.3,3.5,4.4,3.7l0,0c-2.1,0.2-3.9,1.8-4.3,3.9
			C236.9,195.8,235.2,194.3,233.1,194.1L233.1,194.1z"/>
		<path class="st6" d="M235.5,194c2.1-0.2,3.9-1.8,4.3-3.9c0.5,2,2.3,3.5,4.4,3.7l0,0c-2.1,0.2-3.9,1.8-4.3,3.9
			C239.3,195.7,237.6,194.2,235.5,194L235.5,194z"/>
	</g>
	<g>
		<g>
			<ellipse class="st7" cx="220.3" cy="226.3" rx="2.7" ry="2.8"/>
			<ellipse class="st6" cx="217.9" cy="226.3" rx="2.7" ry="2.8"/>
		</g>
		<circle class="st6" cx="214.9" cy="224.2" r="1.8"/>
		<circle class="st6" cx="220.3" cy="223.5" r="1.8"/>
	</g>
</g>
<rect x="108.9" y="441" class="st8" width="282.2" height="43.8"/>
<text transform="matrix(1 0 0 1 108.9184 479.5152)" class="st9 st10 st11">Shop Disney</text>
<g>
	<path class="st12" d="M113.1,471.9c0.6-0.1,1.2,0,1.7,0.4c1.2,1,4.8,3.6,9.8,3.6c5.2,0,8.5-3,8.5-6.4c0-4.2-3-6.2-10.3-8.3
		c-6.7-2.1-11.2-4.4-11.2-10.8c0-4.2,3.5-9.8,12.9-9.8c4.8,0,8.4,1.7,9.7,2.5c0.5,0.3,0.8,0.8,0.9,1.4c0.1,0.9-0.5,1.8-1.3,2
		c-0.6,0.2-1,0.1-1.5-0.2c-1.1-0.6-4.2-2.2-7.8-2.2c-6.9,0-8.5,3.6-8.5,6.4c0,4.1,2.5,5.8,8.5,7.5c8,2.5,13.1,5.1,13.1,11.6
		c0,5.7-5.9,9.9-13,9.9c-6.6,0-10.8-3.1-12.1-4.3c-0.3-0.3-0.5-0.6-0.6-1C111.6,473.1,112.2,472.1,113.1,471.9z"/>
	<path class="st12" d="M143.8,441.8c0.5-0.2,0.9-0.2,1.3,0c0.4,0.2,0.7,0.5,0.8,0.9l0.1,0.2c0.1,0.2,0.1,0.4,0.1,0.6v16.4
		c1.4-1.1,3.9-2.7,8-2.7c6.4,0,9.7,3.6,9.7,9.9v11c0,0.7-0.6,1.2-1.3,1.2c-1.3,0-2.3-1-2.3-2.1v-9.4c0-4.5-2.1-6.5-6.3-6.5
		c-4.5,0-7.2,2.1-7.9,2.7v14.2c0,0.7-0.5,1.2-1.3,1.2c-1.2,0-2.2-1-2.2-2.1v-33.7c0-0.2,0-0.5,0.1-0.7l0.1-0.2
		C143.1,442.3,143.5,441.9,143.8,441.8z"/>
	<path class="st12" d="M180.1,456.6c7,0,12.1,5.1,12.1,11.3c0,6.3-5.1,11.4-12.1,11.4c-7.1,0-12.1-5.1-12.1-11.4
		C168,461.7,173,456.6,180.1,456.6z M180.1,475.8c4.9,0,7.9-3.4,7.9-8c0-4.4-2.9-7.8-7.9-7.8c-5,0-7.9,3.4-7.9,7.8
		C172.1,472.4,175.1,475.8,180.1,475.8z"/>
	<path class="st12" d="M199.3,493.6c0,0.7-0.6,1.3-1.3,1.3c-1.2,0-2.2-1-2.2-2.2v-33.8c0-0.5,0.2-1,0.6-1.3c0.3-0.3,0.8-0.5,1.3-0.5
		h0.1c0.6,0,1.1,0.4,1.2,1.1l0,0.5c1.3-0.9,3.5-2.1,7.1-2.1c7.1,0,11.7,5.1,11.7,11.3c0,6.3-4.8,11.3-12.3,11.3
		c-3.1,0-5.1-0.9-6.2-1.6V493.6z M205.2,475.8c5.7,0,8.5-3.4,8.5-7.9c0-4.5-2.5-7.9-7.7-7.9c-4,0-6,1.9-6.6,2.4v11.4
		C200,474.3,202,475.8,205.2,475.8z"/>
	<path class="st12" d="M239.9,442.8c0-0.7,0.5-1.3,1.2-1.3h11.8c11.5,0,20.4,8.5,20.4,18.8c0,10.5-8.9,19-20.4,19h-11.8
		c-0.7,0-1.2-0.6-1.2-1.3V442.8z M252.5,475.8c9.7,0,16.4-6.6,16.4-15.4c0-8.7-6.7-15.3-16.4-15.3h-5.8c-1.7,0-3.1,1.3-3.1,3v25.6
		c0,1.2,1,2.2,2.3,2.2H252.5z"/>
	<path class="st12" d="M278.1,445.9c0-1.3,1.1-2.5,2.4-2.5s2.4,1.2,2.4,2.5c0,1.3-1.1,2.4-2.4,2.4
		C279.2,448.2,278.1,447.2,278.1,445.9z M278.7,459.3c0-0.9,0.8-1.7,1.8-1.7c1,0,1.8,0.8,1.8,1.7V478c0,0.7-0.5,1.2-1.3,1.2
		c-1.3,0-2.3-1-2.3-2.2V459.3z"/>
	<path class="st12" d="M289.6,474.1c0.4-0.1,0.9,0,1.2,0.3c0.8,0.6,2.7,1.7,5.1,1.7c2.8,0,4-1.4,4-3c0-1.9-1.4-2.8-5.1-4
		c-3.8-1.3-7-3-7-6.5c0-2.6,2.4-5.9,7.7-5.9c2.6,0,4.7,0.8,5.9,1.5c0.5,0.3,0.8,0.7,0.9,1.3c0.1,0.8-0.4,1.6-1.1,1.9
		c-0.4,0.1-0.9,0.1-1.4-0.1c-0.8-0.4-2.5-1.2-4.3-1.2c-3,0-3.4,1.5-3.4,2.7c0,1.7,1,2.5,4.1,3.5c4,1.4,8,2.8,8,6.9
		c0,3.5-3.7,6.2-8.3,6.2c-3.4,0-5.7-1.3-7-2.2c-0.4-0.3-0.7-0.7-0.7-1.3C288.2,475,288.8,474.3,289.6,474.1z"/>
	<path class="st12" d="M309.4,458.2c0.4-0.3,0.7-0.5,1.3-0.5c0.7,0,1.1,0.5,1.2,1l0,0l0.1,1.1c1.4-1.2,4-2.7,8.3-2.7
		c6.9,0,9.7,4,9.7,9.9v10c0,1.2-1,2.2-2.3,2.2c-0.7,0-1.3-0.5-1.3-1.2v-10.3c0-4.5-2.1-6.5-6.3-6.5c-4.4,0-7.2,2-7.9,2.6v14.2
		c0,0.6-0.5,1.2-1.3,1.2c-1.2,0-2.2-0.9-2.2-2.1v-17.7C308.8,459,309,458.6,309.4,458.2z"/>
	<path class="st12" d="M346.3,456.6c6.5,0,10.9,4.2,10.9,10c0,0.5,0.2,2.6-1.4,2.6h-17.2c0.4,3.8,2.9,6.7,7.9,6.7c3,0,5.1-1,6.3-1.8
		c0.3-0.2,0.5-0.2,0.8-0.2h0.2c0.5,0,1,0.2,1.3,0.6c0.3,0.4,0.4,0.8,0.2,1.3l0,0.2c-0.1,0.3-0.3,0.6-0.5,0.8
		c-1.4,1.2-4.7,2.4-8.5,2.4c-7.6,0-11.9-5.1-11.9-11.4C334.4,461.8,338.7,456.6,346.3,456.6z M353.6,466.6c-0.2-3.7-2.5-6.7-7.3-6.7
		c-4.9,0-7.2,2.9-7.6,6.7H353.6z"/>
	<path class="st12" d="M362.8,457L362.8,457c0.3,0.2,0.5,0.4,0.5,0.4l9.4,15.2l8.4-15.1c0.1-0.2,0.3-0.3,0.6-0.4l0.1-0.1
		c0.6-0.3,1.5-0.2,2.1,0.1c0.5,0.4,0.6,1.1,0.3,1.7l-17.7,35c-0.2,0.2-0.4,0.4-0.8,0.5c-0.5,0.2-1.1,0.2-1.6,0
		c-0.8-0.4-1.2-1.2-0.8-2l7.1-14.4l-10.1-19c-0.3-0.6-0.2-1.3,0.4-1.8C361.3,456.8,362.1,456.7,362.8,457z"/>
</g>
</svg>
