<?xml version="1.0" encoding="utf-8"?>
<!-- Generator: Adobe Illustrator 23.0.2, SVG Export Plug-In . SVG Version: 6.00 Build 0)  -->
<svg version="1.1" id="Layer_1" xmlns="http://www.w3.org/2000/svg" xmlns:xlink="http://www.w3.org/1999/xlink" x="0px" y="0px"
	 viewBox="0 0 500 500" style="enable-background:new 0 0 500 500;" xml:space="preserve">
<style type="text/css">
	.st0{fill:#EAEBEC;}
	.st1{fill:#8FACD4;}
	.st2{fill:#738FB1;}
	.st3{fill:#D1D0D0;}
	.st4{fill:#D7D7D8;}
	.st5{fill:#CECDCD;}
	.st6{fill:#FFFFFF;}
	.st7{fill:#869CB3;}
</style>
<path class="st0" d="M367.8,332.7v94.5c0,6.6-5.4,12-12,12H59.7c-6.6,0-12-5.4-12-12v-94.5c0-6.6,5.4-12,12-12h296.1
	C362.4,320.7,367.8,326.1,367.8,332.7z"/>
<path class="st0" d="M351.4,301.5H59.7c-6.6,0-12-5.4-12-12V72c0-6.6,5.4-12,12-12h291.7c6.6,0,12,5.4,12,12v217.4
	C363.4,296.1,358,301.5,351.4,301.5z"/>
<path class="st1" d="M325.2,103.1v155.3c0,6.6-5.4,12-12,12H97.9c-6.6,0-12-5.4-12-12V103.1c0-6.6,5.4-12,12-12h215.3
	c3.4,0,6.5,1.5,8.7,3.8C323.9,97.1,325.2,100,325.2,103.1z"/>
<path class="st2" d="M325.2,103.1v155.3c0,6.6-5.4,12-12,12H126.5L321.9,94.9C323.9,97.1,325.2,100,325.2,103.1z"/>
<path class="st3" d="M71.9,343.9H59.1c-1.7,0-3.1-1.4-3.1-3.1V328c0-1.7,1.4-3.1,3.1-3.1h12.8c1.7,0,3.1,1.4,3.1,3.1v12.8
	C75.1,342.5,73.7,343.9,71.9,343.9z"/>
<path class="st3" d="M97.7,343.9H84.9c-1.7,0-3.1-1.4-3.1-3.1V328c0-1.7,1.4-3.1,3.1-3.1h12.8c1.7,0,3.1,1.4,3.1,3.1v12.8
	C100.8,342.5,99.4,343.9,97.7,343.9z"/>
<path class="st3" d="M123.4,343.9h-12.8c-1.7,0-3.1-1.4-3.1-3.1V328c0-1.7,1.4-3.1,3.1-3.1h12.8c1.7,0,3.1,1.4,3.1,3.1v12.8
	C126.5,342.5,125.1,343.9,123.4,343.9z"/>
<path class="st3" d="M149.1,343.9h-12.8c-1.7,0-3.1-1.4-3.1-3.1V328c0-1.7,1.4-3.1,3.1-3.1h12.8c1.7,0,3.1,1.4,3.1,3.1v12.8
	C152.3,342.5,150.9,343.9,149.1,343.9z"/>
<path class="st3" d="M174.9,343.9h-12.8c-1.7,0-3.1-1.4-3.1-3.1V328c0-1.7,1.4-3.1,3.1-3.1h12.8c1.7,0,3.1,1.4,3.1,3.1v12.8
	C178,342.5,176.6,343.9,174.9,343.9z"/>
<path class="st3" d="M200.6,343.9h-12.8c-1.7,0-3.1-1.4-3.1-3.1V328c0-1.7,1.4-3.1,3.1-3.1h12.8c1.7,0,3.1,1.4,3.1,3.1v12.8
	C203.7,342.5,202.3,343.9,200.6,343.9z"/>
<path class="st3" d="M226.3,343.9h-12.8c-1.7,0-3.1-1.4-3.1-3.1V328c0-1.7,1.4-3.1,3.1-3.1h12.8c1.7,0,3.1,1.4,3.1,3.1v12.8
	C229.5,342.5,228.1,343.9,226.3,343.9z"/>
<path class="st3" d="M252.1,343.9h-12.8c-1.7,0-3.1-1.4-3.1-3.1V328c0-1.7,1.4-3.1,3.1-3.1h12.8c1.7,0,3.1,1.4,3.1,3.1v12.8
	C255.2,342.5,253.8,343.9,252.1,343.9z"/>
<path class="st3" d="M277.8,343.9H265c-1.7,0-3.1-1.4-3.1-3.1V328c0-1.7,1.4-3.1,3.1-3.1h12.8c1.7,0,3.1,1.4,3.1,3.1v12.8
	C280.9,342.5,279.5,343.9,277.8,343.9z"/>
<path class="st3" d="M303.5,343.9h-12.8c-1.7,0-3.1-1.4-3.1-3.1V328c0-1.7,1.4-3.1,3.1-3.1h12.8c1.7,0,3.1,1.4,3.1,3.1v12.8
	C306.7,342.5,305.3,343.9,303.5,343.9z"/>
<path class="st3" d="M329.3,343.9h-12.8c-1.7,0-3.1-1.4-3.1-3.1V328c0-1.7,1.4-3.1,3.1-3.1h12.8c1.7,0,3.1,1.4,3.1,3.1v12.8
	C332.4,342.5,331,343.9,329.3,343.9z"/>
<path class="st3" d="M355,343.9h-12.8c-1.7,0-3.1-1.4-3.1-3.1V328c0-1.7,1.4-3.1,3.1-3.1H355c1.7,0,3.1,1.4,3.1,3.1v12.8
	C358.1,342.5,356.7,343.9,355,343.9z"/>
<path class="st3" d="M71.9,366.7H59.1c-1.7,0-3.1-1.4-3.1-3.1v-12.8c0-1.7,1.4-3.1,3.1-3.1h12.8c1.7,0,3.1,1.4,3.1,3.1v12.8
	C75.1,365.3,73.7,366.7,71.9,366.7z"/>
<path class="st3" d="M97.7,366.7H84.9c-1.7,0-3.1-1.4-3.1-3.1v-12.8c0-1.7,1.4-3.1,3.1-3.1h12.8c1.7,0,3.1,1.4,3.1,3.1v12.8
	C100.8,365.3,99.4,366.7,97.7,366.7z"/>
<path class="st3" d="M123.4,366.7h-12.8c-1.7,0-3.1-1.4-3.1-3.1v-12.8c0-1.7,1.4-3.1,3.1-3.1h12.8c1.7,0,3.1,1.4,3.1,3.1v12.8
	C126.5,365.3,125.1,366.7,123.4,366.7z"/>
<path class="st3" d="M149.1,366.7h-12.8c-1.7,0-3.1-1.4-3.1-3.1v-12.8c0-1.7,1.4-3.1,3.1-3.1h12.8c1.7,0,3.1,1.4,3.1,3.1v12.8
	C152.3,365.3,150.9,366.7,149.1,366.7z"/>
<path class="st3" d="M174.9,366.7h-12.8c-1.7,0-3.1-1.4-3.1-3.1v-12.8c0-1.7,1.4-3.1,3.1-3.1h12.8c1.7,0,3.1,1.4,3.1,3.1v12.8
	C178,365.3,176.6,366.7,174.9,366.7z"/>
<path class="st3" d="M200.6,366.7h-12.8c-1.7,0-3.1-1.4-3.1-3.1v-12.8c0-1.7,1.4-3.1,3.1-3.1h12.8c1.7,0,3.1,1.4,3.1,3.1v12.8
	C203.7,365.3,202.3,366.7,200.6,366.7z"/>
<path class="st3" d="M226.3,366.7h-12.8c-1.7,0-3.1-1.4-3.1-3.1v-12.8c0-1.7,1.4-3.1,3.1-3.1h12.8c1.7,0,3.1,1.4,3.1,3.1v12.8
	C229.5,365.3,228.1,366.7,226.3,366.7z"/>
<path class="st3" d="M252.1,366.7h-12.8c-1.7,0-3.1-1.4-3.1-3.1v-12.8c0-1.7,1.4-3.1,3.1-3.1h12.8c1.7,0,3.1,1.4,3.1,3.1v12.8
	C255.2,365.3,253.8,366.7,252.1,366.7z"/>
<path class="st3" d="M277.8,366.7H265c-1.7,0-3.1-1.4-3.1-3.1v-12.8c0-1.7,1.4-3.1,3.1-3.1h12.8c1.7,0,3.1,1.4,3.1,3.1v12.8
	C280.9,365.3,279.5,366.7,277.8,366.7z"/>
<path class="st3" d="M303.5,366.7h-12.8c-1.7,0-3.1-1.4-3.1-3.1v-12.8c0-1.7,1.4-3.1,3.1-3.1h12.8c1.7,0,3.1,1.4,3.1,3.1v12.8
	C306.7,365.3,305.3,366.7,303.5,366.7z"/>
<path class="st3" d="M329.3,366.7h-12.8c-1.7,0-3.1-1.4-3.1-3.1v-12.8c0-1.7,1.4-3.1,3.1-3.1h12.8c1.7,0,3.1,1.4,3.1,3.1v12.8
	C332.4,365.3,331,366.7,329.3,366.7z"/>
<path class="st3" d="M355,366.7h-12.8c-1.7,0-3.1-1.4-3.1-3.1v-12.8c0-1.7,1.4-3.1,3.1-3.1H355c1.7,0,3.1,1.4,3.1,3.1v12.8
	C358.1,365.3,356.7,366.7,355,366.7z"/>
<path class="st3" d="M71.9,389.6H59.1c-1.7,0-3.1-1.4-3.1-3.1v-12.8c0-1.7,1.4-3.1,3.1-3.1h12.8c1.7,0,3.1,1.4,3.1,3.1v12.8
	C75.1,388.1,73.7,389.6,71.9,389.6z"/>
<path class="st3" d="M97.7,389.6H84.9c-1.7,0-3.1-1.4-3.1-3.1v-12.8c0-1.7,1.4-3.1,3.1-3.1h12.8c1.7,0,3.1,1.4,3.1,3.1v12.8
	C100.8,388.1,99.4,389.6,97.7,389.6z"/>
<path class="st3" d="M123.4,389.6h-12.8c-1.7,0-3.1-1.4-3.1-3.1v-12.8c0-1.7,1.4-3.1,3.1-3.1h12.8c1.7,0,3.1,1.4,3.1,3.1v12.8
	C126.5,388.1,125.1,389.6,123.4,389.6z"/>
<path class="st3" d="M149.1,389.6h-12.8c-1.7,0-3.1-1.4-3.1-3.1v-12.8c0-1.7,1.4-3.1,3.1-3.1h12.8c1.7,0,3.1,1.4,3.1,3.1v12.8
	C152.3,388.1,150.9,389.6,149.1,389.6z"/>
<path class="st3" d="M174.9,389.6h-12.8c-1.7,0-3.1-1.4-3.1-3.1v-12.8c0-1.7,1.4-3.1,3.1-3.1h12.8c1.7,0,3.1,1.4,3.1,3.1v12.8
	C178,388.1,176.6,389.6,174.9,389.6z"/>
<path class="st3" d="M200.6,389.6h-12.8c-1.7,0-3.1-1.4-3.1-3.1v-12.8c0-1.7,1.4-3.1,3.1-3.1h12.8c1.7,0,3.1,1.4,3.1,3.1v12.8
	C203.7,388.1,202.3,389.6,200.6,389.6z"/>
<path class="st3" d="M226.3,389.6h-12.8c-1.7,0-3.1-1.4-3.1-3.1v-12.8c0-1.7,1.4-3.1,3.1-3.1h12.8c1.7,0,3.1,1.4,3.1,3.1v12.8
	C229.5,388.1,228.1,389.6,226.3,389.6z"/>
<path class="st3" d="M252.1,389.6h-12.8c-1.7,0-3.1-1.4-3.1-3.1v-12.8c0-1.7,1.4-3.1,3.1-3.1h12.8c1.7,0,3.1,1.4,3.1,3.1v12.8
	C255.2,388.1,253.8,389.6,252.1,389.6z"/>
<path class="st3" d="M277.8,389.6H265c-1.7,0-3.1-1.4-3.1-3.1v-12.8c0-1.7,1.4-3.1,3.1-3.1h12.8c1.7,0,3.1,1.4,3.1,3.1v12.8
	C280.9,388.1,279.5,389.6,277.8,389.6z"/>
<path class="st3" d="M303.5,389.6h-12.8c-1.7,0-3.1-1.4-3.1-3.1v-12.8c0-1.7,1.4-3.1,3.1-3.1h12.8c1.7,0,3.1,1.4,3.1,3.1v12.8
	C306.7,388.1,305.3,389.6,303.5,389.6z"/>
<path class="st3" d="M329.3,389.6h-12.8c-1.7,0-3.1-1.4-3.1-3.1v-12.8c0-1.7,1.4-3.1,3.1-3.1h12.8c1.7,0,3.1,1.4,3.1,3.1v12.8
	C332.4,388.1,331,389.6,329.3,389.6z"/>
<path class="st3" d="M355,389.6h-12.8c-1.7,0-3.1-1.4-3.1-3.1v-12.8c0-1.7,1.4-3.1,3.1-3.1H355c1.7,0,3.1,1.4,3.1,3.1v12.8
	C358.1,388.1,356.7,389.6,355,389.6z"/>
<path class="st3" d="M71.9,412.4H59.1c-1.7,0-3.1-1.4-3.1-3.1v-12.8c0-1.7,1.4-3.1,3.1-3.1h12.8c1.7,0,3.1,1.4,3.1,3.1v12.8
	C75.1,411,73.7,412.4,71.9,412.4z"/>
<path class="st3" d="M97.7,412.4H84.9c-1.7,0-3.1-1.4-3.1-3.1v-12.8c0-1.7,1.4-3.1,3.1-3.1h12.8c1.7,0,3.1,1.4,3.1,3.1v12.8
	C100.8,411,99.4,412.4,97.7,412.4z"/>
<path class="st3" d="M123.4,412.4h-12.8c-1.7,0-3.1-1.4-3.1-3.1v-12.8c0-1.7,1.4-3.1,3.1-3.1h12.8c1.7,0,3.1,1.4,3.1,3.1v12.8
	C126.5,411,125.1,412.4,123.4,412.4z"/>
<path class="st3" d="M149.1,412.4h-12.8c-1.7,0-3.1-1.4-3.1-3.1v-12.8c0-1.7,1.4-3.1,3.1-3.1h12.8c1.7,0,3.1,1.4,3.1,3.1v12.8
	C152.3,411,150.9,412.4,149.1,412.4z"/>
<path class="st3" d="M174.9,412.4h-12.8c-1.7,0-3.1-1.4-3.1-3.1v-12.8c0-1.7,1.4-3.1,3.1-3.1h12.8c1.7,0,3.1,1.4,3.1,3.1v12.8
	C178,411,176.6,412.4,174.9,412.4z"/>
<path class="st3" d="M200.6,412.4h-12.8c-1.7,0-3.1-1.4-3.1-3.1v-12.8c0-1.7,1.4-3.1,3.1-3.1h12.8c1.7,0,3.1,1.4,3.1,3.1v12.8
	C203.7,411,202.3,412.4,200.6,412.4z"/>
<path class="st3" d="M226.3,412.4h-12.8c-1.7,0-3.1-1.4-3.1-3.1v-12.8c0-1.7,1.4-3.1,3.1-3.1h12.8c1.7,0,3.1,1.4,3.1,3.1v12.8
	C229.5,411,228.1,412.4,226.3,412.4z"/>
<path class="st3" d="M252.1,412.4h-12.8c-1.7,0-3.1-1.4-3.1-3.1v-12.8c0-1.7,1.4-3.1,3.1-3.1h12.8c1.7,0,3.1,1.4,3.1,3.1v12.8
	C255.2,411,253.8,412.4,252.1,412.4z"/>
<path class="st3" d="M277.8,412.4H265c-1.7,0-3.1-1.4-3.1-3.1v-12.8c0-1.7,1.4-3.1,3.1-3.1h12.8c1.7,0,3.1,1.4,3.1,3.1v12.8
	C280.9,411,279.5,412.4,277.8,412.4z"/>
<path class="st3" d="M303.5,412.4h-12.8c-1.7,0-3.1-1.4-3.1-3.1v-12.8c0-1.7,1.4-3.1,3.1-3.1h12.8c1.7,0,3.1,1.4,3.1,3.1v12.8
	C306.7,411,305.3,412.4,303.5,412.4z"/>
<path class="st3" d="M329.3,412.4h-12.8c-1.7,0-3.1-1.4-3.1-3.1v-12.8c0-1.7,1.4-3.1,3.1-3.1h12.8c1.7,0,3.1,1.4,3.1,3.1v12.8
	C332.4,411,331,412.4,329.3,412.4z"/>
<path class="st3" d="M355,412.4h-12.8c-1.7,0-3.1-1.4-3.1-3.1v-12.8c0-1.7,1.4-3.1,3.1-3.1H355c1.7,0,3.1,1.4,3.1,3.1v12.8
	C358.1,411,356.7,412.4,355,412.4z"/>
<path class="st3" d="M71.9,435.2H59.1c-1.7,0-3.1-1.4-3.1-3.1v-12.8c0-1.7,1.4-3.1,3.1-3.1h12.8c1.7,0,3.1,1.4,3.1,3.1v12.8
	C75.1,433.8,73.7,435.2,71.9,435.2z"/>
<path class="st3" d="M97.7,435.2H84.9c-1.7,0-3.1-1.4-3.1-3.1v-12.8c0-1.7,1.4-3.1,3.1-3.1h12.8c1.7,0,3.1,1.4,3.1,3.1v12.8
	C100.8,433.8,99.4,435.2,97.7,435.2z"/>
<path class="st3" d="M123.4,435.2h-12.8c-1.7,0-3.1-1.4-3.1-3.1v-12.8c0-1.7,1.4-3.1,3.1-3.1h12.8c1.7,0,3.1,1.4,3.1,3.1v12.8
	C126.5,433.8,125.1,435.2,123.4,435.2z"/>
<path class="st3" d="M149.1,435.2h-12.8c-1.7,0-3.1-1.4-3.1-3.1v-12.8c0-1.7,1.4-3.1,3.1-3.1h12.8c1.7,0,3.1,1.4,3.1,3.1v12.8
	C152.3,433.8,150.9,435.2,149.1,435.2z"/>
<path class="st3" d="M252.1,435.2h-90c-1.7,0-3.1-1.4-3.1-3.1v-12.8c0-1.7,1.4-3.1,3.1-3.1h90c1.7,0,3.1,1.4,3.1,3.1v12.8
	C255.2,433.8,253.8,435.2,252.1,435.2z"/>
<path class="st3" d="M277.8,435.2H265c-1.7,0-3.1-1.4-3.1-3.1v-12.8c0-1.7,1.4-3.1,3.1-3.1h12.8c1.7,0,3.1,1.4,3.1,3.1v12.8
	C280.9,433.8,279.5,435.2,277.8,435.2z"/>
<path class="st3" d="M303.5,435.2h-12.8c-1.7,0-3.1-1.4-3.1-3.1v-12.8c0-1.7,1.4-3.1,3.1-3.1h12.8c1.7,0,3.1,1.4,3.1,3.1v12.8
	C306.7,433.8,305.3,435.2,303.5,435.2z"/>
<path class="st3" d="M329.3,435.2h-12.8c-1.7,0-3.1-1.4-3.1-3.1v-12.8c0-1.7,1.4-3.1,3.1-3.1h12.8c1.7,0,3.1,1.4,3.1,3.1v12.8
	C332.4,433.8,331,435.2,329.3,435.2z"/>
<path class="st3" d="M355,435.2h-12.8c-1.7,0-3.1-1.4-3.1-3.1v-12.8c0-1.7,1.4-3.1,3.1-3.1H355c1.7,0,3.1,1.4,3.1,3.1v12.8
	C358.1,433.8,356.7,435.2,355,435.2z"/>
<path class="st0" d="M452.3,389.6c0,0.5,0,1.1,0,1.6C451.8,418.3,437,440,419,440c-18.1,0-32.8-21.7-33.4-48.8c0-0.5,0-1.1,0-1.6
	c0-27,14-49,31.7-50.3c0.6,0,1.1-0.1,1.7-0.1C437.4,339.1,452.3,361.7,452.3,389.6z"/>
<path class="st4" d="M417.2,339.2v52h-31.6c0-0.5,0-1.1,0-1.6C385.6,362.6,399.6,340.6,417.2,339.2z"/>
<path class="st5" d="M452.3,389.6c0,0.5,0,1.1,0,1.6h-35.1v-52c0.6,0,1.1-0.1,1.7-0.1C437.4,339.1,452.3,361.7,452.3,389.6z"/>
<g>
	<circle class="st6" cx="207.1" cy="186.1" r="32.5"/>
	<circle class="st6" cx="178.4" cy="153.6" r="20.3"/>
	<circle class="st6" cx="236.4" cy="153.6" r="20.3"/>
</g>
<polygon class="st6" points="288,199.4 294.7,210.1 286.4,201.8 284.8,215.1 283.5,202.2 275.4,209.9 282.3,199.3 266.9,197.3 
	282.4,195.7 275.4,184.4 283.6,192.6 285.5,171.1 286.9,192.6 295.2,184.6 288,195.7 303.4,197.7 "/>
<ellipse transform="matrix(0.9549 -0.2969 0.2969 0.9549 -23.057 83.469)" class="st7" cx="263.3" cy="117.7" rx="2.6" ry="2.7"/>
<ellipse transform="matrix(0.9549 -0.2969 0.2969 0.9549 -24.182 93.8302)" class="st7" cx="296.9" cy="126.5" rx="2.6" ry="2.7"/>
<path class="st7" d="M313.6,146.8c-2.9,1.1-4.6,4-4.4,7.1c-1.5-2.6-4.6-4-7.5-3.4l0,0c2.9-1.1,4.7-4.1,4.4-7.1
	C307.6,146,310.6,147.4,313.6,146.8L313.6,146.8z"/>
<g>
	
		<ellipse transform="matrix(0.9549 -0.2969 0.2969 0.9549 -25.7327 96.7527)" class="st7" cx="305.7" cy="133.1" rx="1.7" ry="1.7"/>
	
		<ellipse transform="matrix(0.9549 -0.2969 0.2969 0.9549 -25.9498 96.3615)" class="st6" cx="304.3" cy="133.6" rx="1.7" ry="1.7"/>
</g>
<g>
	<ellipse transform="matrix(0.9549 -0.2969 0.2969 0.9549 -36.2482 96.462)" class="st7" cx="299.5" cy="167.6" rx="2.6" ry="2.7"/>
	
		<ellipse transform="matrix(0.9549 -0.2969 0.2969 0.9549 -36.5512 95.8381)" class="st6" cx="297.3" cy="168.3" rx="2.6" ry="2.7"/>
</g>
<ellipse transform="matrix(0.9549 -0.2969 0.2969 0.9549 -23.3599 82.8451)" class="st6" cx="261.1" cy="118.3" rx="2.6" ry="2.7"/>
<ellipse transform="matrix(0.9549 -0.2969 0.2969 0.9549 -24.5179 93.2223)" class="st6" cx="294.7" cy="127.3" rx="2.6" ry="2.7"/>
<path class="st6" d="M274.2,178.7c-2.5,1-4.1,3.5-3.9,6.2c-1.4-2.3-4-3.5-6.6-3l0,0c2.5-1,4.1-3.5,3.9-6.2
	C269,178,271.6,179.3,274.2,178.7L274.2,178.7z"/>
<g>
	
		<ellipse transform="matrix(0.9549 -0.2969 0.2969 0.9549 -24.9252 87.1339)" class="st7" cx="274.4" cy="125.6" rx="1.7" ry="1.7"/>
	<ellipse transform="matrix(0.9549 -0.2969 0.2969 0.9549 -25.1255 86.7215)" class="st6" cx="273" cy="126.1" rx="1.7" ry="1.7"/>
</g>
<g>
	
		<ellipse transform="matrix(0.9549 -0.2969 0.2969 0.9549 -21.9221 80.5002)" class="st7" cx="254.1" cy="112.4" rx="1.7" ry="1.7"/>
	
		<ellipse transform="matrix(0.9549 -0.2969 0.2969 0.9549 -22.1224 80.0878)" class="st6" cx="252.6" cy="112.9" rx="1.7" ry="1.7"/>
</g>
<g>
	
		<ellipse transform="matrix(0.9549 -0.2969 0.2969 0.9549 -20.5098 90.6721)" class="st7" cx="288.3" cy="112.9" rx="1.7" ry="1.7"/>
	
		<ellipse transform="matrix(0.9549 -0.2969 0.2969 0.9549 -20.7049 90.2703)" class="st6" cx="286.9" cy="113.3" rx="1.7" ry="1.7"/>
</g>
<g>
	
		<ellipse transform="matrix(0.9549 -0.2969 0.2969 0.9549 -36.1491 90.8857)" class="st7" cx="281.2" cy="164.5" rx="1.7" ry="1.7"/>
	
		<ellipse transform="matrix(0.9549 -0.2969 0.2969 0.9549 -36.3443 90.4838)" class="st6" cx="279.8" cy="164.9" rx="1.7" ry="1.7"/>
</g>
<g>
	
		<ellipse transform="matrix(0.9549 -0.2969 0.2969 0.9549 -48.1713 87.1576)" class="st7" cx="262.9" cy="202.2" rx="1.7" ry="1.7"/>
	
		<ellipse transform="matrix(0.9549 -0.2969 0.2969 0.9549 -48.3664 86.7557)" class="st6" cx="261.5" cy="202.6" rx="1.7" ry="1.7"/>
</g>
<g>
	<path class="st7" d="M279.2,111.8c-1.9,0.7-3.1,2.7-3,4.8c-1-1.8-3.1-2.7-5-2.3l0,0c1.9-0.7,3.1-2.7,3-4.8
		C275.2,111.2,277.2,112.1,279.2,111.8L279.2,111.8z"/>
	<path class="st6" d="M277,112.5c-1.9,0.7-3.1,2.7-3,4.8c-1-1.8-3.1-2.7-5-2.3l0,0c1.9-0.7,3.1-2.7,3-4.8
		C273,111.9,275.1,112.8,277,112.5L277,112.5z"/>
</g>
<g>
	<path class="st7" d="M248,110.2c-1.2,0.5-1.9,1.7-1.8,2.9c-0.7-1.1-1.9-1.7-3.1-1.4l0,0c1.2-0.5,1.9-1.7,1.8-3
		C245.5,109.8,246.8,110.4,248,110.2L248,110.2z"/>
	<path class="st6" d="M246.6,110.6c-1.2,0.5-1.9,1.7-1.8,2.9c-0.7-1.1-1.9-1.7-3.1-1.4l0,0c1.2-0.5,1.9-1.7,1.8-3
		C244.2,110.3,245.4,110.8,246.6,110.6L246.6,110.6z"/>
</g>
<g>
	<path class="st7" d="M302.3,138.5c-1.2,0.5-1.9,1.7-1.8,2.9c-0.7-1.1-1.9-1.7-3.1-1.4l0,0c1.2-0.5,1.9-1.7,1.8-3
		C299.9,138.1,301.1,138.7,302.3,138.5L302.3,138.5z"/>
	<path class="st6" d="M301,138.9c-1.2,0.5-1.9,1.7-1.8,2.9c-0.7-1.1-1.9-1.7-3.1-1.4l0,0c1.2-0.5,1.9-1.7,1.8-3
		C298.5,138.5,299.8,139.1,301,138.9L301,138.9z"/>
</g>
<path class="st6" d="M311.4,147.5c-2.9,1.1-4.6,4-4.4,7.1c-1.5-2.6-4.6-4-7.5-3.4l0,0c2.9-1.1,4.7-4.1,4.4-7.1
	C305.4,146.7,308.4,148.1,311.4,147.5L311.4,147.5z"/>
<circle class="st6" cx="302.1" cy="132.5" r="1.1"/>
<circle class="st6" cx="305.3" cy="131.5" r="1.1"/>
<path class="st7" d="M243.7,230.1c4.3-0.4,7.8-3.6,8.7-7.8c1.1,4.1,4.6,7.2,8.8,7.4l0,0c-4.3,0.4-7.8,3.6-8.7,7.9
	C251.4,233.6,247.9,230.5,243.7,230.1L243.7,230.1z"/>
<path class="st7" d="M257.4,218.7c2.1-0.2,3.8-1.8,4.2-3.8c0.5,2,2.2,3.4,4.2,3.6l0,0c-2.1,0.2-3.8,1.8-4.2,3.8
	C261.1,220.4,259.4,218.9,257.4,218.7L257.4,218.7z"/>
<g>
	
		<ellipse transform="matrix(0.9997 -2.273731e-02 2.273731e-02 0.9997 -5.3859 5.5829)" class="st7" cx="242.8" cy="239.6" rx="2.6" ry="2.7"/>
	
		<ellipse transform="matrix(0.9997 -2.273731e-02 2.273731e-02 0.9997 -5.3842 5.6345)" class="st6" cx="245.1" cy="239.6" rx="2.6" ry="2.7"/>
</g>
<path class="st6" d="M245.5,230.1c4.3-0.4,7.8-3.6,8.7-7.8c1.1,4.1,4.6,7.2,8.8,7.4l0,0c-4.3,0.4-7.8,3.6-8.7,7.9
	C253.2,233.5,249.7,230.5,245.5,230.1L245.5,230.1z"/>
<path class="st6" d="M259.7,218.7c2.1-0.2,3.8-1.8,4.2-3.8c0.5,2,2.2,3.4,4.2,3.6l0,0c-2.1,0.2-3.8,1.8-4.2,3.8
	C263.4,220.3,261.7,218.8,259.7,218.7L259.7,218.7z"/>
<g>
	
		<ellipse transform="matrix(0.9997 -2.273731e-02 2.273731e-02 0.9997 -5.2546 5.4759)" class="st7" cx="238.2" cy="233.8" rx="1.7" ry="1.7"/>
	
		<ellipse transform="matrix(0.9997 -2.273731e-02 2.273731e-02 0.9997 -5.2535 5.5098)" class="st6" cx="239.7" cy="233.8" rx="1.7" ry="1.7"/>
</g>
<g>
	
		<ellipse transform="matrix(0.9997 -2.273731e-02 2.273731e-02 0.9997 -5.5169 5.3744)" class="st7" cx="233.6" cy="245.3" rx="1.7" ry="1.7"/>
	
		<ellipse transform="matrix(0.9997 -2.273731e-02 2.273731e-02 0.9997 -5.5158 5.4082)" class="st6" cx="235.1" cy="245.3" rx="1.7" ry="1.7"/>
</g>
<g>
	<path class="st7" d="M233.6,219.6c2.1-0.2,3.8-1.8,4.2-3.8c0.5,2,2.2,3.4,4.2,3.6l0,0c-2.1,0.2-3.8,1.8-4.2,3.8
		C237.3,221.2,235.6,219.8,233.6,219.6L233.6,219.6z"/>
	<path class="st6" d="M235.9,219.6c2.1-0.2,3.8-1.8,4.2-3.8c0.5,2,2.2,3.4,4.2,3.6l0,0c-2.1,0.2-3.8,1.8-4.2,3.8
		C239.6,221.2,237.9,219.8,235.9,219.6L235.9,219.6z"/>
</g>
<g>
	<g>
		<ellipse class="st7" cx="221.2" cy="250.9" rx="2.6" ry="2.7"/>
		<ellipse class="st6" cx="218.9" cy="250.9" rx="2.6" ry="2.7"/>
	</g>
	<circle class="st6" cx="215.9" cy="248.9" r="1.7"/>
	<circle class="st6" cx="221.2" cy="248.2" r="1.7"/>
</g>
</svg>
