<?xml version="1.0" encoding="utf-8"?>
<!-- Generator: Adobe Illustrator 23.0.2, SVG Export Plug-In . SVG Version: 6.00 Build 0)  -->
<svg version="1.1" id="Layer_1" xmlns="http://www.w3.org/2000/svg" xmlns:xlink="http://www.w3.org/1999/xlink" x="0px" y="0px"
	 viewBox="0 0 500 500" style="enable-background:new 0 0 500 500;" xml:space="preserve">
<style type="text/css">
	.st0{fill:#5176AD;}
	.st1{fill:#3A5773;}
	.st2{fill:#A3BDD5;}
</style>
<ellipse class="st0" cx="194.8" cy="124.8" rx="30.4" ry="37.6"/>
<ellipse class="st0" cx="300.8" cy="124.8" rx="30.4" ry="37.6"/>
<ellipse class="st1" cx="194.8" cy="138.6" rx="19.3" ry="37.6"/>
<ellipse class="st1" cx="299.3" cy="142.5" rx="19.3" ry="37.6"/>
<path class="st0" d="M336.1,323.2c0,64.7-42.1,84.8-94.1,84.8s-94.1-20.1-94.1-84.8S190,206,242,206S336.1,258.4,336.1,323.2z"/>
<path class="st2" d="M333.2,198.8c0,49.3-40,64.5-89.3,64.5s-89.3-15.2-89.3-64.5s40-89.3,89.3-89.3S333.2,149.5,333.2,198.8z"/>
<rect x="571" y="159.7" class="st2" width="84.1" height="84.1"/>
<rect x="571" y="263.3" class="st0" width="84.1" height="84.1"/>
<rect x="571" y="366.9" class="st1" width="84.1" height="84.1"/>
<path class="st0" d="M331.3,188.5c0,49.3-40,64.5-89.3,64.5s-89.3-15.2-89.3-64.5s40-89.3,89.3-89.3S331.3,139.2,331.3,188.5z"/>
<ellipse transform="matrix(0.9605 -0.2782 0.2782 0.9605 -76.778 54.1846)" class="st0" cx="152.6" cy="297.6" rx="48.7" ry="20.6"/>
<ellipse transform="matrix(0.309 -0.9511 0.9511 0.309 -53.8084 521.2327)" class="st0" cx="331.8" cy="297.6" rx="20.6" ry="48.7"/>
<ellipse class="st0" cx="180.5" cy="396.1" rx="32.4" ry="19.1"/>
<ellipse class="st0" cx="303.7" cy="396.1" rx="32.4" ry="19.1"/>
<circle class="st2" cx="217.4" cy="165.6" r="7.9"/>
<circle class="st2" cx="270.4" cy="165.6" r="7.9"/>
<ellipse class="st2" cx="243.9" cy="197.2" rx="18.7" ry="8.7"/>
</svg>
