<?xml version="1.0" encoding="utf-8"?>
<!-- Generator: Adobe Illustrator 23.0.2, SVG Export Plug-In . SVG Version: 6.00 Build 0)  -->
<svg version="1.1" xmlns="http://www.w3.org/2000/svg" xmlns:xlink="http://www.w3.org/1999/xlink" x="0px" y="0px"
	 viewBox="0 0 500 500" style="enable-background:new 0 0 500 500;" xml:space="preserve">
<style type="text/css">
	.st0{fill:#A3BDD5;}
	.st1{fill:#5176AD;}
	.st2{fill:#3A5773;}
	.st3{display:none;}
	.st4{display:inline;fill:#A3BDD5;}
	.st5{display:inline;fill:#5176AD;}
	.st6{display:inline;fill:#3A5773;}
	.st7{display:inline;}
	.st8{fill:none;}
	.st9{font-family:'Febrero-Regular';}
	.st10{font-size:45px;}
</style>
<g id="Outline">
	<rect x="571" y="159.7" class="st0" width="84.1" height="84.1"/>
	<rect x="571" y="263.3" class="st1" width="84.1" height="84.1"/>
	<rect x="571" y="366.9" class="st2" width="84.1" height="84.1"/>
	<g>
		<ellipse class="st1" cx="188.5" cy="424.8" rx="32.4" ry="19.1"/>
		<ellipse class="st1" cx="311.8" cy="424.8" rx="32.4" ry="19.1"/>
		<ellipse class="st1" cx="202.8" cy="153.5" rx="30.4" ry="37.6"/>
		<ellipse class="st1" cx="308.9" cy="153.5" rx="30.4" ry="37.6"/>
		<ellipse class="st2" cx="202.8" cy="167.2" rx="19.3" ry="37.6"/>
		<ellipse class="st2" cx="307.3" cy="171.1" rx="19.3" ry="37.6"/>
		<path class="st1" d="M344.1,351.8c0,64.7-42.1,84.8-94.1,84.8s-94.1-20.1-94.1-84.8S198,234.6,250,234.6S344.1,287.1,344.1,351.8z
			"/>
		<path class="st0" d="M341.2,227.5c0,49.3-40,64.5-89.3,64.5s-89.3-15.2-89.3-64.5s40-89.3,89.3-89.3S341.2,178.2,341.2,227.5z"/>
		<path class="st1" d="M339.3,217.1c0,49.3-40,64.5-89.3,64.5s-89.3-15.2-89.3-64.5s40-89.3,89.3-89.3S339.3,167.9,339.3,217.1z"/>
		
			<ellipse transform="matrix(0.9605 -0.2782 0.2782 0.9605 -84.4309 57.5432)" class="st1" cx="160.6" cy="326.3" rx="48.7" ry="20.6"/>
		
			<ellipse transform="matrix(0.309 -0.9511 0.9511 0.309 -75.5198 548.6437)" class="st1" cx="339.8" cy="326.3" rx="20.6" ry="48.7"/>
		<circle class="st0" cx="225.4" cy="194.2" r="7.9"/>
		<circle class="st0" cx="278.4" cy="194.2" r="7.9"/>
		<ellipse class="st0" cx="251.9" cy="225.9" rx="18.7" ry="8.7"/>
		<g>
			<path d="M142.9,79.3c0.4-0.1,0.9,0,1.2,0.3c0.9,0.8,3.6,2.7,7.3,2.7c3.9,0,6.4-2.2,6.4-4.8c0-3.2-2.3-4.6-7.7-6.2
				c-5-1.6-8.4-3.3-8.4-8.1c0-3.2,2.6-7.4,9.6-7.4c3.6,0,6.3,1.3,7.3,1.9c0.4,0.2,0.6,0.6,0.7,1c0.1,0.7-0.4,1.4-1,1.5
				c-0.5,0.1-0.8,0.1-1.1-0.1c-0.8-0.5-3.2-1.6-5.9-1.6c-5.2,0-6.4,2.7-6.4,4.8c0,3.1,1.9,4.4,6.4,5.7c6,1.8,9.8,3.8,9.8,8.7
				c0,4.2-4.5,7.4-9.7,7.4c-4.9,0-8.1-2.4-9.1-3.2c-0.2-0.2-0.4-0.5-0.5-0.8C141.7,80.2,142.1,79.5,142.9,79.3z"/>
			<path d="M166.5,70.7H165c-0.7,0-0.9-0.5-0.9-1c0-0.8,0.7-1.5,1.5-1.5h0.9v-3.6c0-0.3,0.1-0.7,0.4-0.9l0.1-0.1
				c0.2-0.2,0.5-0.4,0.8-0.4c0.4,0,0.7,0.1,1,0.4c0.2,0.2,0.4,0.6,0.4,0.9v3.7h5.2c0.6,0,1,0.5,1,1c0,0.8-0.7,1.5-1.5,1.5h-4.7v8.9
				c0,1.8,0.1,2.3,1.7,2.3c1.1,0,2.6-0.3,3.2-0.7c0.3-0.2,0.7-0.2,1-0.1c0.5,0.2,0.9,0.7,0.8,1.3c0,0.4-0.2,0.7-0.6,0.9
				c-0.8,0.6-2.5,1.4-4.6,1.4c-3.7,0-4.1-2.3-4.1-4.7V70.7z"/>
			<path d="M178.4,69.9c0-0.9,0.8-1.6,1.7-1.6c0.5,0,1,0.4,1,1v7.7c0,3.4,1.6,4.9,4.8,4.9c3.3,0,5-1.6,5.4-2v-10
				c0-0.9,0.8-1.6,1.7-1.6c0.5,0,1,0.4,1,1v13.9c0,0.8-0.7,1.4-1.5,1.4c-0.6,0-0.9-0.5-0.9-0.8l0,0l-0.1-0.6c-1,0.8-2.7,1.8-5.8,1.8
				c-5.2,0-7.3-2.9-7.3-7.4V69.9z"/>
			<path d="M201.1,71.2h-2c-0.7,0-1-0.6-1-1c0-0.8,0.7-1.5,1.5-1.5h1.5v-5.1c0-5,2.9-7.5,7.5-7.5c2,0,3.8,0.8,4.6,1.6
				c0.2,0.2,0.3,0.5,0.4,0.7l0,0.1c0,0.3,0,0.6-0.2,0.9c-0.2,0.3-0.6,0.5-0.9,0.5c-0.3,0-0.6-0.1-0.8-0.3c-0.5-0.4-1.7-0.6-3-0.6
				c-2.7,0-4.7,1.4-4.7,4.9v4.6h6.4c0.5,0,1,0.4,1,0.9v0.2c0,0.4-0.2,0.7-0.4,1c-0.2,0.2-0.6,0.3-0.9,0.3h-6V84c0,0.5-0.5,0.9-1,0.9
				c-0.9,0-1.7-0.7-1.7-1.6V71.2z"/>
			<path d="M217.3,71.2h-2c-0.7,0-1-0.6-1-1c0-0.8,0.7-1.5,1.5-1.5h1.5v-5.1c0-5,2.9-7.5,7.5-7.5c2,0,3.8,0.8,4.6,1.6
				c0.2,0.2,0.3,0.5,0.4,0.7l0,0.1c0,0.3,0,0.6-0.2,0.9c-0.2,0.3-0.6,0.5-0.9,0.5c-0.3,0-0.6-0.1-0.8-0.3c-0.5-0.4-1.7-0.6-3-0.6
				c-2.7,0-4.7,1.4-4.7,4.9v4.6h6.4c0.5,0,1,0.4,1,0.9v0.2c0,0.4-0.2,0.7-0.4,1c-0.2,0.2-0.6,0.3-0.9,0.3h-6V84c0,0.5-0.5,0.9-1,0.9
				c-0.9,0-1.7-0.7-1.7-1.6V71.2z"/>
			<path d="M238.7,67.8c4.9,0,8.2,3.2,8.2,7.5c0,0.4,0.1,1.9-1.1,1.9h-12.9c0.3,2.9,2.2,5,5.9,5c2.2,0,3.8-0.7,4.7-1.3
				c0.2-0.1,0.4-0.2,0.6-0.2h0.1c0.4,0,0.7,0.2,0.9,0.5c0.2,0.3,0.3,0.6,0.2,1l0,0.1c-0.1,0.2-0.2,0.5-0.4,0.6
				c-1.1,0.9-3.5,1.8-6.4,1.8c-5.7,0-8.9-3.9-8.9-8.5C229.8,71.7,233,67.8,238.7,67.8z M244.2,75.4c-0.2-2.8-1.9-5-5.5-5
				c-3.6,0-5.4,2.1-5.7,5H244.2z"/>
			<path d="M259,67.9c2.4,0,4,0.7,4.9,1.2V57.5c0-0.3,0.1-0.7,0.4-0.9c0.3-0.3,0.6-0.4,0.9-0.4c0.4,0,0.7,0.1,1,0.5
				c0.2,0.2,0.3,0.5,0.3,0.9v25.7c0,0.7-0.6,1.3-1.4,1.3c-0.5,0-1-0.3-1-0.9l0-0.5c-1,0.8-2.8,1.8-5.6,1.8c-5,0-8.4-3.8-8.4-8.5
				C250,71.6,253.5,67.9,259,67.9z M258.5,82.4c3.3,0,5-1.9,5.3-2.4v-8.1c-0.5-0.4-2.1-1.4-4.7-1.4c-4,0-6.1,2.4-6.1,5.9
				C253.1,79.8,255,82.4,258.5,82.4z"/>
			<path d="M290.8,59.2h-7.2c-0.4,0-0.8-0.2-1-0.5l0,0c-0.4-0.5-0.4-1.2,0.1-1.7c0.2-0.3,0.6-0.4,1-0.4h17.5c0.4,0,0.7,0.2,1,0.5
				c0.5,0.5,0.4,1.3,0,1.8c-0.2,0.3-0.6,0.4-1,0.4h-3.4c-2.1,0-3.9,1.5-3.9,3.4v21.3c0,0.6-0.6,0.9-1.2,0.9h-0.8
				c-0.6,0-1.1-0.4-1.1-0.9V59.2z"/>
			<path d="M313.3,67.8c5.3,0,9,3.9,9,8.5c0,4.7-3.8,8.5-9,8.5c-5.3,0-9-3.8-9-8.5C304.2,71.7,308,67.8,313.3,67.8z M313.3,82.3
				c3.7,0,5.9-2.6,5.9-6c0-3.3-2.2-5.9-5.9-5.9c-3.8,0-5.9,2.6-5.9,5.9C307.3,79.7,309.5,82.3,313.3,82.3z"/>
			<path d="M326.3,68.2L326.3,68.2c0.2,0.2,0.4,0.3,0.4,0.3l7,11.4l6.3-11.3c0.1-0.1,0.2-0.2,0.4-0.3l0.1-0.1
				c0.5-0.2,1.1-0.2,1.5,0.1c0.4,0.3,0.5,0.8,0.3,1.3L329,95.7c-0.1,0.2-0.3,0.3-0.6,0.4c-0.4,0.1-0.8,0.1-1.2,0
				c-0.6-0.3-0.9-0.9-0.6-1.5l5.3-10.8l-7.6-14.3c-0.3-0.5-0.1-1,0.3-1.3C325.2,68,325.8,67.9,326.3,68.2z"/>
			<path d="M346.1,81c0.3-0.1,0.7,0,0.9,0.2c0.6,0.4,2,1.3,3.8,1.3c2.1,0,3-1,3-2.3c0-1.4-1-2.1-3.8-3c-2.9-0.9-5.3-2.2-5.3-4.9
				c0-1.9,1.8-4.4,5.8-4.4c2,0,3.5,0.6,4.4,1.1c0.3,0.2,0.6,0.5,0.6,0.9c0.1,0.6-0.3,1.2-0.8,1.4c-0.3,0.1-0.7,0.1-1-0.1
				c-0.6-0.3-1.9-0.9-3.2-0.9c-2.3,0-2.6,1.1-2.6,2c0,1.3,0.7,1.9,3.1,2.7c3,1,6,2.1,6,5.2c0,2.6-2.8,4.7-6.2,4.7
				c-2.6,0-4.3-1-5.3-1.7c-0.3-0.2-0.5-0.5-0.5-1C345,81.6,345.5,81.1,346.1,81z"/>
		</g>
	</g>
	<rect x="-91.4" y="79.4" class="st8" width="72.6" height="92.2"/>
	<text transform="matrix(1 0 0 1 -91.4033 102.8735)"><tspan x="0" y="0" style="font-family:'MyriadPro-Regular'; font-size:33px;">45 </tspan><tspan x="0" y="39.6" style="font-family:'MyriadPro-Regular'; font-size:33px;">font</tspan></text>
</g>
<g id="w_x2F_o_outline" class="st3">
	<rect x="571" y="159.7" class="st4" width="84.1" height="84.1"/>
	<rect x="571" y="263.3" class="st5" width="84.1" height="84.1"/>
	<rect x="571" y="366.9" class="st6" width="84.1" height="84.1"/>
	<g class="st7">
		<ellipse class="st1" cx="188.5" cy="424.8" rx="32.4" ry="19.1"/>
		<ellipse class="st1" cx="311.8" cy="424.8" rx="32.4" ry="19.1"/>
		<ellipse class="st1" cx="202.8" cy="153.5" rx="30.4" ry="37.6"/>
		<ellipse class="st1" cx="308.9" cy="153.5" rx="30.4" ry="37.6"/>
		<ellipse class="st2" cx="202.8" cy="167.2" rx="19.3" ry="37.6"/>
		<ellipse class="st2" cx="307.3" cy="171.1" rx="19.3" ry="37.6"/>
		<path class="st1" d="M344.1,351.8c0,64.7-42.1,84.8-94.1,84.8s-94.1-20.1-94.1-84.8S198,234.6,250,234.6S344.1,287.1,344.1,351.8z
			"/>
		<path class="st0" d="M341.2,227.5c0,49.3-40,64.5-89.3,64.5s-89.3-15.2-89.3-64.5s40-89.3,89.3-89.3S341.2,178.2,341.2,227.5z"/>
		<path class="st1" d="M339.3,217.1c0,49.3-40,64.5-89.3,64.5s-89.3-15.2-89.3-64.5s40-89.3,89.3-89.3S339.3,167.9,339.3,217.1z"/>
		
			<ellipse transform="matrix(0.9605 -0.2782 0.2782 0.9605 -84.4309 57.5432)" class="st1" cx="160.6" cy="326.3" rx="48.7" ry="20.6"/>
		
			<ellipse transform="matrix(0.309 -0.9511 0.9511 0.309 -75.5198 548.6437)" class="st1" cx="339.8" cy="326.3" rx="20.6" ry="48.7"/>
		<circle class="st0" cx="225.4" cy="194.2" r="7.9"/>
		<circle class="st0" cx="278.4" cy="194.2" r="7.9"/>
		<ellipse class="st0" cx="251.9" cy="225.9" rx="18.7" ry="8.7"/>
		<rect x="139.7" y="56.1" class="st8" width="220.6" height="31.2"/>
		<text transform="matrix(1 0 0 1 139.679 85.017)" class="st9 st10">Stuffed Toys</text>
	</g>
	<rect x="-91.4" y="79.4" style="display:inline;fill:none;" width="72.6" height="92.2"/>
	<text transform="matrix(1 0 0 1 -91.4033 102.8735)" class="st7"><tspan x="0" y="0" style="font-family:'MyriadPro-Regular'; font-size:33px;">45 </tspan><tspan x="0" y="39.6" style="font-family:'MyriadPro-Regular'; font-size:33px;">font</tspan></text>
</g>
</svg>
