<?xml version="1.0" encoding="utf-8"?>
<!-- Generator: Adobe Illustrator 23.0.2, SVG Export Plug-In . SVG Version: 6.00 Build 0)  -->
<svg version="1.1" xmlns="http://www.w3.org/2000/svg" xmlns:xlink="http://www.w3.org/1999/xlink" x="0px" y="0px"
	 viewBox="0 0 500 500" style="enable-background:new 0 0 500 500;" xml:space="preserve">
<style type="text/css">
	.st0{fill:#BC3C3F;}
	.st1{opacity:2.000000e-02;fill:#FFFFFF;}
	.st2{fill:#DFDFDF;}
	.st3{opacity:0.95;}
	.st4{opacity:7.000000e-02;fill:#DFDFDF;}
	.st5{fill:#FFFFFF;}
	.st6{fill:#F2E2EA;}
	.st7{fill:#E7C7D6;}
	.st8{opacity:7.000000e-02;fill:#020301;}
	.st9{fill:#BE4751;}
	.st10{fill:#020301;}
	.st11{fill:none;}
	.st12{display:none;fill:#252723;}
	.st13{font-family:'Febrero-Regular';}
	.st14{font-size:60px;}
	.st15{fill:#252723;}
</style>
<g id="Layer_1">
</g>
<g id="Layer_2">
	<g>
		<path class="st0" d="M250,131.7c-49.5,0-89.6,40.1-89.6,89.6s40.1,89.6,89.6,89.6s89.6-40.1,89.6-89.6S299.5,131.7,250,131.7z
			 M250,290.3c-38.1,0-69-30.9-69-69s30.9-69,69-69s69,30.9,69,69S288.1,290.3,250,290.3z"/>
		<path class="st0" d="M250,17.3c-112.6,0-203.9,91.3-203.9,203.9S137.4,425.2,250,425.2s203.9-91.3,203.9-203.9
			S362.6,17.3,250,17.3z M250,378.4c-86.8,0-157.1-70.4-157.1-157.1S163.2,64.1,250,64.1s157.1,70.3,157.1,157.1
			S336.8,378.4,250,378.4z"/>
		<rect y="-10.6" class="st1" width="500" height="465.7"/>
		<g>
			<path class="st2" d="M211.1,135.9c0,18.4-8.5,33.4-19.1,33.4s-18.8-14.7-17.7-33.1c0.8-12.9,7.5-23.9,13.1-29.5
				c2.4-2.4,6.7-2.4,9.1,0C202.2,112.4,211.1,123.3,211.1,135.9z"/>
			<g class="st3">
				<path class="st2" d="M307.7,136.8c0,5.1-0.5,9.9-1.5,14.2c-0.5,2.2-1.1,4.2-1.8,6.1c-0.9,2.3-1.8,4.4-2.9,6.2
					c-0.6,1-1.3,1.9-2,2.8c-2.6,3.1-5.6,5-8.8,5c-2,0-3.8-0.7-5.6-1.9c-2.3-1.6-4.3-4.1-6.1-7.4c-0.9-1.7-1.7-3.7-2.5-5.8v0
					c-1.8-5.4-2.9-12-2.9-19.1c0-0.7,0-1.4,0-2c0.4-12.1,8-22.6,12.9-28c2.2-2.4,5.9-2.4,8.1,0.1
					C299.7,112.6,307.7,123.9,307.7,136.8z"/>
				<path class="st2" d="M211.1,136.8c0,18.9-7.6,34.2-17,34.2c-9.4,0-17-15.3-17-34.2c0-12.9,7.9-24.1,13-29.9c2.1-2.5,6-2.5,8.1,0
					C203.2,112.7,211.1,123.9,211.1,136.8z"/>
				<path class="st2" d="M301.9,135.5c0,3.4-0.4,6.5-1,9.4c-0.3,1.4-0.7,2.8-1.2,4c-0.6,1.5-1.2,2.9-1.9,4.1
					c-0.4,0.7-0.8,1.3-1.3,1.8c-1.7,2.1-3.7,3.3-5.8,3.3c-1.3,0-2.5-0.4-3.7-1.2c-1.5-1-2.9-2.7-4-4.9c-0.6-1.1-1.2-2.4-1.6-3.8v0
					c-1.2-3.6-1.9-7.9-1.9-12.6c0-0.5,0-0.9,0-1.3c0.2-8,5.3-14.9,8.6-18.5c1.4-1.6,3.9-1.6,5.3,0
					C296.6,119.5,301.9,126.9,301.9,135.5z"/>
				<path class="st2" d="M205.3,135.4c0,12.5-5,22.6-11.3,22.6c-6.2,0-11.3-10.1-11.3-22.6c0-8.5,5.2-15.9,8.6-19.8
					c1.4-1.6,4-1.6,5.4,0C200.1,119.5,205.3,126.9,205.3,135.4z"/>
				<ellipse class="st2" cx="245" cy="303.5" rx="10.1" ry="19.9"/>
				
					<ellipse transform="matrix(0.7071 -0.7071 0.7071 0.7071 -32.2651 242.3382)" class="st4" cx="276.4" cy="160.1" rx="23.9" ry="26.1"/>
				
					<ellipse transform="matrix(0.7071 -0.7071 0.7071 0.7071 -52.7788 196.0889)" class="st4" cx="210.3" cy="161.8" rx="26.1" ry="23.9"/>
				<ellipse class="st4" cx="244.5" cy="284.4" rx="13.6" ry="23.6"/>
				<path class="st2" d="M314.5,213.4c0,2.6-0.1,5.2-0.3,7.8c-0.3,3.8-0.7,7.5-1.4,11.2c-0.4,2.4-1,4.8-1.6,7.2
					c-9.1,35.2-35.9,60.7-67.6,60.7c-39.2,0-70.9-38.9-70.9-86.8s31.7-86.8,70.9-86.8c10.8,0,21,2.9,30.1,8.2
					c7,4,13.4,9.4,18.9,15.9c1.6,1.9,3.2,3.9,4.6,5.9c1.5,2.1,2.9,4.3,4.2,6.6c0.6,1,1.2,2.1,1.7,3.1c1.8,3.5,3.5,7.2,4.9,11
					c3.7,9.8,5.9,20.6,6.3,31.9C314.5,210.7,314.5,212,314.5,213.4z"/>
				<path class="st2" d="M318.2,202.4c-0.9,2.6-2.2,4.9-3.8,6.9c0.1,1.4,0.1,2.7,0.1,4.1c0,2.6-0.1,5.2-0.3,7.8
					c-4.6,2.9-10,4.6-15.8,4.6c-16.5,0-29.9-13.4-29.9-29.9c0-11.7,6.8-21.9,16.6-26.8c4-2,8.5-3.1,13.3-3.1c0.4,0,0.8,0,1.1,0
					c1.3,0,2.5,0.2,3.7,0.4c1.8,3.5,3.5,7.2,4.9,11C317,182,321.5,192.6,318.2,202.4z"/>
				<path class="st2" d="M318.2,202.4c-0.9,2.6-2.2,4.9-3.8,6.9c0.1,1.4,0.1,2.7,0.1,4.1c0,2.6-0.1,5.2-0.3,7.8
					c-4.6,2.9-10,4.6-15.8,4.6c-16.5,0-29.9-13.4-29.9-29.9c0-11.7,6.8-21.9,16.6-26.8c4-2,8.5-3.1,13.3-3.1c0.4,0,0.8,0,1.1,0
					c1.3,0,2.5,0.2,3.7,0.4c1.8,3.5,3.5,7.2,4.9,11C317,182,321.5,192.6,318.2,202.4z"/>
				<path class="st2" d="M298.4,235.1c-21.7,0-39.2-17.6-39.2-39.2c0-14.6,8-27.4,19.9-34.2c5.4-3.1,11.6-4.9,18.2-5.1
					c-1.5-2.1-3-4-4.6-5.9c-5.8,0.7-11.2,2.5-16.1,5.2v0c-14.1,7.7-23.7,22.7-23.7,40c0,25.1,20.4,45.5,45.5,45.5
					c4.5,0,8.8-0.6,12.9-1.8c0.6-2.3,1.1-4.7,1.6-7.2C308.3,234.2,303.5,235.1,298.4,235.1z"/>
				<path class="st2" d="M318.2,202.4c-0.9,2.6-2.2,4.9-3.8,6.9c0.1,1.4,0.1,2.7,0.1,4.1c0,2.6-0.1,5.2-0.3,7.8
					c-4.6,2.9-10,4.6-15.8,4.6c-16.5,0-29.9-13.4-29.9-29.9c0-11.7,6.8-21.9,16.6-26.8c4-2,8.5-3.1,13.3-3.1c0.4,0,0.8,0,1.1,0
					c1.3,0,2.5,0.2,3.7,0.4c1.8,3.5,3.5,7.2,4.9,11C317,182,321.5,192.6,318.2,202.4z"/>
				<circle class="st2" cx="186.4" cy="195.9" r="20.9"/>
				<ellipse class="st2" cx="241.9" cy="240.1" rx="28.6" ry="13.9"/>
				<ellipse class="st2" cx="242.9" cy="235.2" rx="20.8" ry="4.4"/>
				<g>
					<path class="st2" d="M318.2,202.4c-0.9,2.6-2.2,4.9-3.8,6.9c-5.3,6.4-14.2,9.2-22.6,6.4c-11-3.6-16.9-15.4-13.3-26.4
						c3.6-11,15.4-16.9,26.4-13.3c1.1,0.4,2.2,0.8,3.2,1.4C317,182,321.5,192.6,318.2,202.4z"/>
					<circle class="st2" cx="298.2" cy="202.2" r="12.1"/>
				</g>
				<circle class="st2" cx="186.4" cy="202.2" r="12.1"/>
			</g>
		</g>
		<path class="st5" d="M299.8,138.4c0,4.8-0.5,9.4-1.5,13.5c-0.5,2-1,4-1.7,5.8c-0.8,2.2-1.8,4.2-2.8,5.9c-0.6,1-1.2,1.8-1.9,2.6
			c-2.5,3-5.3,4.7-8.4,4.7c-1.9,0-3.7-0.6-5.3-1.8c-2.2-1.5-4.1-3.9-5.8-7c-0.9-1.7-1.7-3.5-2.3-5.5v0c-1.7-5.2-2.8-11.4-2.8-18.2
			c0-0.7,0-1.3,0-1.9c0.3-11.5,7.6-21.5,12.3-26.7c2.1-2.3,5.6-2.3,7.7,0.1C292.2,115.4,299.8,126.1,299.8,138.4z"/>
		<path class="st5" d="M207.9,138.4c0,17.9-7.3,32.5-16.2,32.5c-9,0-16.2-14.6-16.2-32.5c0-12.3,7.6-22.9,12.3-28.5
			c2-2.4,5.7-2.4,7.7,0C200.4,115.5,207.9,126.2,207.9,138.4z"/>
		<path class="st6" d="M294.3,137.1c0,3.2-0.3,6.2-1,8.9c-0.3,1.4-0.7,2.6-1.1,3.8c-0.5,1.4-1.2,2.7-1.8,3.9
			c-0.4,0.6-0.8,1.2-1.2,1.7c-1.6,2-3.5,3.1-5.6,3.1c-1.2,0-2.4-0.4-3.5-1.2c-1.4-1-2.7-2.6-3.8-4.6c-0.6-1.1-1.1-2.3-1.6-3.7v0
			c-1.2-3.4-1.8-7.6-1.8-12c0-0.4,0-0.9,0-1.3c0.2-7.6,5-14.2,8.1-17.6c1.4-1.5,3.7-1.5,5.1,0C289.3,121.9,294.3,129,294.3,137.1z"
			/>
		<path class="st6" d="M202.4,137.1c0,11.9-4.8,21.5-10.7,21.5s-10.7-9.6-10.7-21.5c0-8.1,5-15.2,8.2-18.8c1.3-1.6,3.8-1.6,5.1,0
			C197.4,121.9,202.4,129,202.4,137.1z"/>
		<ellipse class="st7" cx="240.1" cy="297" rx="9.6" ry="18.9"/>
		
			<ellipse transform="matrix(0.7071 -0.7071 0.7071 0.7071 -34.4483 237.9731)" class="st8" cx="270" cy="160.6" rx="22.7" ry="24.8"/>
		
			<ellipse transform="matrix(0.7071 -0.7071 0.7071 0.7071 -53.9642 193.9733)" class="st8" cx="207.2" cy="162.1" rx="24.8" ry="22.7"/>
		<ellipse class="st8" cx="239.7" cy="278.8" rx="12.9" ry="22.5"/>
		<path class="st5" d="M306.3,211.3c0,2.5-0.1,5-0.3,7.4c-0.2,3.6-0.7,7.2-1.3,10.6c-0.4,2.3-0.9,4.6-1.5,6.8
			c-8.6,33.5-34.2,57.7-64.3,57.7c-37.2,0-67.4-37-67.4-82.6s30.2-82.6,67.4-82.6c10.2,0,19.9,2.8,28.6,7.8c6.7,3.8,12.8,9,18,15.2
			c1.5,1.8,3,3.7,4.4,5.6c1.4,2,2.8,4.1,4,6.3c0.6,1,1.1,2,1.6,3c1.8,3.3,3.3,6.8,4.7,10.4c3.5,9.3,5.6,19.6,6,30.4
			C306.3,208.7,306.3,210,306.3,211.3z"/>
		<path class="st9" d="M309.8,200.8c-0.8,2.5-2.1,4.7-3.6,6.5c0,1.3,0.1,2.6,0.1,3.9c0,2.5-0.1,5-0.3,7.4c-4.4,2.8-9.5,4.3-15.1,4.3
			c-15.7,0-28.4-12.7-28.4-28.4c0-11.2,6.4-20.8,15.8-25.5c3.8-1.9,8.1-3,12.6-3c0.4,0,0.7,0,1.1,0c1.2,0,2.4,0.2,3.5,0.4
			c1.8,3.3,3.3,6.8,4.7,10.4C308.7,181.4,312.9,191.5,309.8,200.8z"/>
		<path class="st9" d="M309.8,200.8c-0.8,2.5-2.1,4.7-3.6,6.5c0,1.3,0.1,2.6,0.1,3.9c0,2.5-0.1,5-0.3,7.4c-4.4,2.8-9.5,4.3-15.1,4.3
			c-15.7,0-28.4-12.7-28.4-28.4c0-11.2,6.4-20.8,15.8-25.5c3.8-1.9,8.1-3,12.6-3c0.4,0,0.7,0,1.1,0c1.2,0,2.4,0.2,3.5,0.4
			c1.8,3.3,3.3,6.8,4.7,10.4C308.7,181.4,312.9,191.5,309.8,200.8z"/>
		<path class="st9" d="M290.9,231.9c-20.6,0-37.3-16.7-37.3-37.3c0-13.9,7.6-26.1,18.9-32.5c5.1-2.9,11-4.7,17.3-4.8
			c-1.4-2-2.8-3.8-4.4-5.6c-5.5,0.7-10.6,2.4-15.3,5v0c-13.4,7.4-22.5,21.6-22.5,38c0,23.9,19.4,43.3,43.3,43.3
			c4.2,0,8.3-0.6,12.2-1.8c0.6-2.2,1.1-4.5,1.5-6.8C300.4,231,295.8,231.9,290.9,231.9z"/>
		<path class="st9" d="M309.8,200.8c-0.8,2.5-2.1,4.7-3.6,6.5c0,1.3,0.1,2.6,0.1,3.9c0,2.5-0.1,5-0.3,7.4c-4.4,2.8-9.5,4.3-15.1,4.3
			c-15.7,0-28.4-12.7-28.4-28.4c0-11.2,6.4-20.8,15.8-25.5c3.8-1.9,8.1-3,12.6-3c0.4,0,0.7,0,1.1,0c1.2,0,2.4,0.2,3.5,0.4
			c1.8,3.3,3.3,6.8,4.7,10.4C308.7,181.4,312.9,191.5,309.8,200.8z"/>
		<circle class="st10" cx="184.4" cy="194.6" r="19.9"/>
		<ellipse class="st10" cx="237.3" cy="236.6" rx="27.3" ry="13.2"/>
		<ellipse class="st5" cx="238.2" cy="232" rx="19.8" ry="4.2"/>
		<g>
			<path class="st10" d="M309.8,200.8c-0.8,2.5-2.1,4.7-3.6,6.5c-5.1,6.1-13.5,8.8-21.5,6.1c-10.4-3.4-16.1-14.7-12.7-25.1
				c3.4-10.4,14.7-16.1,25.1-12.7c1.1,0.4,2.1,0.8,3,1.3C308.7,181.4,312.9,191.5,309.8,200.8z"/>
			<circle class="st5" cx="290.8" cy="200.6" r="11.5"/>
		</g>
		<circle class="st5" cx="184.4" cy="200.6" r="11.5"/>
	</g>
	<g>
		<path class="st5" d="M-106.5,334.6c0,4.8-0.5,9.4-1.5,13.5c-0.5,2-1,4-1.7,5.8c-0.8,2.2-1.8,4.2-2.8,5.9c-0.6,1-1.2,1.8-1.9,2.6
			c-2.5,3-5.3,4.7-8.4,4.7c-1.9,0-3.7-0.6-5.3-1.8c-2.2-1.5-4.1-3.9-5.8-7c-0.9-1.7-1.7-3.5-2.3-5.5v0c-1.7-5.2-2.8-11.4-2.8-18.2
			c0-0.7,0-1.3,0-1.9c0.5-17,7.5-30.6,16.2-30.6C-113.7,302.1-106.5,316.7-106.5,334.6z"/>
		<ellipse class="st7" cx="-166.2" cy="493.2" rx="9.6" ry="18.9"/>
		<path class="st5" d="M-100,407.5c0,2.5-0.1,5-0.3,7.4c-0.2,3.6-0.7,7.2-1.3,10.6c-0.4,2.3-0.9,4.6-1.5,6.8
			c-8.6,33.5-34.2,57.7-64.3,57.7c-37.2,0-67.4-37-67.4-82.6s30.2-82.6,67.4-82.6c10.2,0,19.9,2.8,28.6,7.8c6.7,3.8,12.8,9,18,15.2
			c1.5,1.8,3,3.7,4.4,5.6c1.4,2,2.8,4.1,4,6.3c0.6,1,1.1,2,1.6,3c1.8,3.3,3.3,6.8,4.7,10.4c3.5,9.3,5.6,19.6,6,30.4
			C-100.1,404.9-100,406.2-100,407.5z"/>
		<path class="st9" d="M-96.5,397.1c-0.8,2.5-2.1,4.7-3.6,6.5c0,1.3,0.1,2.6,0.1,3.9c0,2.5-0.1,5-0.3,7.4c-4.4,2.8-9.5,4.3-15.1,4.3
			c-15.7,0-28.4-12.7-28.4-28.4c0-11.2,6.4-20.8,15.8-25.5c3.8-1.9,8.1-3,12.6-3c0.4,0,0.7,0,1.1,0c1.2,0,2.4,0.2,3.5,0.4
			c1.8,3.3,3.3,6.8,4.7,10.4C-97.6,377.7-93.4,387.7-96.5,397.1z"/>
		<path class="st9" d="M-96.5,397.1c-0.8,2.5-2.1,4.7-3.6,6.5c0,1.3,0.1,2.6,0.1,3.9c0,2.5-0.1,5-0.3,7.4c-4.4,2.8-9.5,4.3-15.1,4.3
			c-15.7,0-28.4-12.7-28.4-28.4c0-11.2,6.4-20.8,15.8-25.5c3.8-1.9,8.1-3,12.6-3c0.4,0,0.7,0,1.1,0c1.2,0,2.4,0.2,3.5,0.4
			c1.8,3.3,3.3,6.8,4.7,10.4C-97.6,377.7-93.4,387.7-96.5,397.1z"/>
		<path class="st9" d="M-115.4,428.2c-20.6,0-37.3-16.7-37.3-37.3c0-13.9,7.6-26.1,18.9-32.5c5.1-2.9,11-4.7,17.3-4.8
			c0.4,0,0.7,0,1.1,0c1.9,0,3.9,0.2,5.7,0.4c0.6-1.8,1.2-3.7,1.7-5.8c-2.4-0.4-4.9-0.6-7.4-0.6c-1.9,0-3.7,0.1-5.5,0.3
			c-5.5,0.7-10.6,2.4-15.3,5v0c-13.4,7.4-22.5,21.6-22.5,38c0,23.9,19.4,43.3,43.3,43.3c4.2,0,8.3-0.6,12.2-1.8
			c0.6-2.2,1.1-4.5,1.5-6.8C-105.9,427.2-110.5,428.2-115.4,428.2z"/>
		<path class="st9" d="M-96.5,397.1c-0.8,2.5-2.1,4.7-3.6,6.5c0,1.3,0.1,2.6,0.1,3.9c0,2.5-0.1,5-0.3,7.4c-4.4,2.8-9.5,4.3-15.1,4.3
			c-15.7,0-28.4-12.7-28.4-28.4c0-11.2,6.4-20.8,15.8-25.5c3.8-1.9,8.1-3,12.6-3c0.4,0,0.7,0,1.1,0c1.2,0,2.4,0.2,3.5,0.4
			c1.8,3.3,3.3,6.8,4.7,10.4C-97.6,377.7-93.4,387.7-96.5,397.1z"/>
		<circle class="st10" cx="-221.9" cy="390.8" r="19.9"/>
		<ellipse class="st10" cx="-169" cy="432.9" rx="27.3" ry="13.2"/>
		<ellipse class="st5" cx="-168.1" cy="428.2" rx="19.8" ry="4.2"/>
		<ellipse class="st5" cx="-214.6" cy="334.6" rx="16.2" ry="32.5"/>
		<g>
			<path class="st10" d="M-96.5,397.1c-0.8,2.5-2.1,4.7-3.6,6.5c-5.1,6.1-13.5,8.8-21.5,6.1c-10.4-3.4-16.1-14.7-12.7-25.1
				c3.4-10.4,14.7-16.1,25.1-12.7c1.1,0.4,2.1,0.8,3,1.3C-97.6,377.7-93.4,387.7-96.5,397.1z"/>
			<circle class="st5" cx="-115.5" cy="396.8" r="11.5"/>
		</g>
		<circle class="st5" cx="-221.9" cy="396.8" r="11.5"/>
	</g>
	<rect x="177" y="441" class="st11" width="142" height="43.8"/>
	<text transform="matrix(1 0 0 1 177.0221 479.5152)" class="st12 st13 st14">Target</text>
	<g>
		<path class="st15" d="M189.2,445.1h-9.6c-0.5,0-1-0.2-1.4-0.7l0-0.1c-0.5-0.7-0.5-1.6,0.1-2.2c0.3-0.4,0.8-0.6,1.3-0.6H203
			c0.5,0,1,0.2,1.3,0.6c0.6,0.7,0.6,1.7,0,2.3c-0.3,0.4-0.8,0.6-1.3,0.6h-4.5c-2.8,0-5.2,2.1-5.2,4.6v28.4c0,0.7-0.8,1.3-1.6,1.3
			h-1.1c-0.8,0-1.4-0.6-1.4-1.3V445.1z"/>
		<path class="st15" d="M216.7,464.3c1.9,0,3.8,0.5,4.8,0.7c-0.1-3.8-0.6-5.1-4.1-5.1c-2.9,0-5.9,0.7-6.8,0.9
			c-0.5,0.1-1-0.1-1.1-0.6c-0.2-0.4,0-0.9,0.4-1.2c0.9-0.6,4-2.4,7.8-2.4c7.1,0,7.5,4.3,7.5,9.5v11.4c0,0.7-0.6,1.2-1.3,1.2h-0.6
			c-0.7,0-1.1-0.5-1.2-1l0,0l-0.1-0.8c-1.6,1.2-4,2.4-7,2.4c-4.3,0-7.7-2.9-7.7-7.5C207,467.5,210.8,464.3,216.7,464.3z M215,476
			c2.9,0,5.6-1.6,6.6-2.8v-5c-1-0.4-2.7-0.9-4.9-0.9c-3.9,0-5.7,1.7-5.7,4.4C211,474.5,212.4,476,215,476z"/>
		<path class="st15" d="M228.8,459.6c0-1,0.9-1.8,2-1.8c0.6,0,1.1,0.4,1.2,1.1l0.1,0.8c1.2-1.1,3.2-2.5,6.3-2.5
			c1.5,0,2.6,0.3,3.2,0.6c0.3,0.1,0.7,0.3,0.9,0.7l0.1,0.2c0.3,0.5,0.3,1.1,0.1,1.5l0,0.1c-0.2,0.5-0.6,0.8-1,1
			c-0.4,0.1-0.8,0.1-1.1,0c-0.5-0.2-1.3-0.5-2.2-0.5c-3.7,0-5.7,3.5-5.9,6.8c-0.4,4.8,0.1,10.6,0.1,10.6l0,0l0,0
			c0,0.7-0.5,1.2-1.3,1.2c-1.3,0-2.3-1-2.3-2.2V459.6z"/>
		<path class="st15" d="M247.1,470.9c-0.7-1.1-1.4-2.8-1.4-5c0-5.2,3.9-9.3,10.7-9.3h9.4c0.8,0,1.3,0.6,1.3,1.3v0.1l0,0.1
			c-0.4,0.9-1.3,1.6-2.3,1.6l-1,0.1c1.1,1.1,2.3,3,2.3,6.1c0,4.8-3.7,9-10.2,9c-3.4,0-5.6-1-6.6-1.7c-0.7,0.4-2,1.4-2,3
			c0,1.9,1.6,2.4,3.7,2.4h8.8c5,0,8.8,2.3,8.8,7.5c0,5-4.8,9.4-12.2,9.4c-8.2,0-11.8-4.5-11.8-8.6c0-2.7,1.6-4.5,2.7-5.5
			c-1.4-0.6-3.5-2.2-3.5-4.9C243.8,473.4,246,471.6,247.1,470.9z M256.3,492.1c5.2,0,8-2.7,8-5.9c0-2.3-0.7-4.2-4.5-4.2h-7.6
			c-0.8,0.2-4,1.6-4,4.6C248.2,489.2,250.7,492.1,256.3,492.1z M262.6,466.3c0-4.2-3-6.3-6.7-6.3c-4.3,0-6.2,2.6-6.2,6.3
			c0,3.6,1.6,6.3,6.2,6.3C260.1,472.6,262.6,469.8,262.6,466.3z"/>
		<path class="st15" d="M283.1,456.6c6.5,0,10.9,4.2,10.9,10c0,0.5,0.2,2.6-1.4,2.6h-17.2c0.4,3.8,2.9,6.7,7.9,6.7
			c3,0,5.1-1,6.3-1.8c0.3-0.2,0.5-0.2,0.8-0.2h0.2c0.5,0,1,0.2,1.3,0.6c0.3,0.4,0.4,0.8,0.2,1.3l0,0.2c-0.1,0.3-0.3,0.6-0.5,0.8
			c-1.4,1.2-4.7,2.4-8.5,2.4c-7.6,0-11.9-5.1-11.9-11.4C271.2,461.8,275.4,456.6,283.1,456.6z M290.4,466.6
			c-0.2-3.7-2.5-6.7-7.3-6.7c-4.9,0-7.2,2.9-7.6,6.7H290.4z"/>
		<path class="st15" d="M300.3,460.4h-1.9c-0.9,0-1.2-0.7-1.2-1.3c0-1.1,0.9-2,2-2h1.2v-4.8c0-0.4,0.2-0.9,0.5-1.2l0.1-0.1
			c0.3-0.3,0.7-0.5,1.1-0.5c0.5,0,0.9,0.1,1.3,0.5c0.3,0.3,0.5,0.8,0.5,1.2v4.9h6.9c0.8,0,1.3,0.6,1.3,1.3c0,1.1-0.9,2-2,2h-6.2
			v11.9c0,2.4,0.2,3.1,2.2,3.1c1.5,0,3.4-0.5,4.3-0.9c0.4-0.2,0.9-0.2,1.3-0.1c0.7,0.3,1.2,1,1.1,1.8c-0.1,0.5-0.3,0.9-0.7,1.2
			c-1.1,0.7-3.4,1.8-6.2,1.8c-4.9,0-5.5-3-5.5-6.3V460.4z"/>
	</g>
</g>
</svg>
